<svg width="108" height="108" viewBox="0 0 108 108" fill="none" xmlns="http://www.w3.org/2000/svg">
<rect x="1" y="1" width="106" height="106" stroke="#B39D6E" stroke-width="2"/>
<path d="M26.1193 69.2404C25.8134 69.9747 25.4332 70.6124 25.0073 71.1573C24.8891 71.2865 24.7851 71.4176 24.6749 71.5407C24.5647 71.6638 24.4422 71.7707 24.3338 71.8796C24.1153 72.1115 23.8758 72.2828 23.6567 72.4639C23.2 72.8022 22.7829 73.0587 22.4178 73.2497C22.065 73.4568 21.768 73.5699 21.5681 73.6596C21.3682 73.7492 21.2674 73.8011 21.2674 73.8011C21.2674 73.8011 21.3744 73.7572 21.5867 73.6837C21.7927 73.6021 22.1021 73.5051 22.4672 73.3141C22.8367 73.1454 23.2804 72.9068 23.7637 72.5865C24.2328 72.2644 24.7434 71.8464 25.212 71.3071C25.6744 70.7597 26.093 70.1054 26.4292 69.3606C26.7538 68.6505 27.0003 67.8723 27.208 67.06C27.8822 67.2713 28.5145 67.3613 28.8418 67.4042C27.3737 69.9401 24.4102 74.0605 21.3697 75.9492C21.3697 75.9492 19.9405 76.0878 19.793 73.8976C19.793 73.8976 19.9201 73.3136 21.0494 72.868C21.0494 72.868 25.1065 72.0024 25.9925 66.5608C26.2622 66.7119 26.5498 66.8364 26.8393 66.9467C26.6317 67.7589 26.4135 68.5408 26.1193 69.2404Z" fill="#B39D6E"/>
<path d="M30.6762 59.5832C31.1888 58.8181 31.7058 58.0753 32.2047 57.3591C32.7099 56.6509 33.199 55.9551 33.6683 55.3001C34.1437 54.6532 34.587 54.031 35.0005 53.47C36.6707 51.2138 37.7857 49.7171 37.7857 49.7171C37.7857 49.7171 37.4855 50.0758 36.955 50.701C36.4387 51.3281 35.6841 52.228 34.8224 53.3382C33.9607 54.4483 32.9529 55.7347 31.9202 57.1554C31.407 57.8698 30.8839 58.6045 30.3713 59.3696C30.1119 59.7482 29.8506 60.1409 29.5974 60.5275C29.5435 60.6073 29.4959 60.6951 29.45 60.7687C29.3325 60.7823 29.2514 60.7933 29.2514 60.7933C28.986 60.831 28.7125 60.8748 28.431 60.9248C29.3944 59.3141 30.5738 57.4351 31.8361 55.6971C36.9713 48.6408 42.4171 41.7554 47.833 34.9312C50.2411 31.9031 52.4074 28.677 54.6249 25.501C55.6929 23.9765 56.7626 22.4376 57.8244 20.905C59.2254 18.8813 60.9113 18.9934 63.1128 19.9762C64.0288 20.3856 64.8657 20.9583 65.5502 21.6992C65.8996 22.0705 67.6081 24.2769 67.2224 24.7909C67.2224 24.7909 53.2049 43.7029 46.9273 51.3044C46.9273 51.3044 44.8975 52.4932 40.6604 50.4769C40.6604 50.4769 36.5239 55.8186 33.3078 60.2099C31.7703 60.4573 30.6194 60.6251 29.9426 60.7101C30.1877 60.3298 30.4329 59.9494 30.6762 59.5832ZM47.7032 48.4173C48.2226 47.8774 48.9703 47.0852 49.8493 46.0642C51.6197 44.0381 53.9664 41.1468 56.3956 37.8466C58.8391 34.5482 60.9137 31.4693 62.3872 29.2235C63.8607 26.9777 64.7207 25.5489 64.7207 25.5489C64.7207 25.5489 63.6683 26.844 62.0167 28.9579C61.0448 30.1911 59.8674 31.7231 58.5661 33.427C59.54 32.0131 60.3974 30.7142 61.1032 29.6343C62.4449 27.5667 63.2231 26.2647 63.2231 26.2647C63.2231 26.2647 62.2587 27.441 60.7328 29.3688C59.8308 30.5098 58.7351 31.915 57.5378 33.4878C58.4157 32.1988 59.1915 31.0268 59.8193 30.0452C61.021 28.1618 61.7194 26.9724 61.7194 26.9724C61.7194 26.9724 60.8348 28.0361 59.4407 29.7858C58.6168 30.8285 57.609 32.115 56.5015 33.5548C57.2816 32.405 57.9632 31.3436 58.5211 30.4542C59.5891 28.7632 60.2095 27.6721 60.2095 27.6721C60.2095 27.6721 59.4048 28.6233 58.1506 30.1886C57.3985 31.125 56.4786 32.2926 55.4732 33.6156C56.1573 32.5907 56.7511 31.6481 57.2371 30.865C58.1732 29.3521 58.7058 28.3798 58.7058 28.3798C58.7058 28.3798 57.9809 29.2184 56.8666 30.5994C55.7524 31.9805 54.2264 33.9083 52.6366 36.1026C51.0407 38.289 49.6681 40.3165 48.6726 41.7854C47.6771 43.2543 47.032 44.1468 47.032 44.1468C47.032 44.1468 47.2307 43.9557 47.5879 43.6045C47.9388 43.2452 48.4402 42.7319 49.027 42.0633C49.62 41.4029 50.3046 40.5951 51.0469 39.6792C50.2204 40.8519 49.488 41.9138 48.8751 42.7816C48.3043 43.6042 47.827 44.2653 47.4995 44.7218C47.172 45.1782 46.9881 45.4219 46.9881 45.4219C46.9881 45.4219 47.2048 45.2042 47.6102 44.8159C48.0033 44.4114 48.5647 43.8264 49.2276 43.0738C49.8986 42.3149 50.6773 41.3965 51.5075 40.3618C50.585 41.6594 49.7586 42.8321 49.0677 43.7982C48.4269 44.7129 47.8896 45.4458 47.52 45.9474C47.1504 46.449 46.9405 46.7255 46.9405 46.7255C46.9405 46.7255 47.1894 46.4831 47.6307 46.0415C48.0658 45.5919 48.6873 44.9352 49.4202 44.0904C50.1612 43.2394 51.034 42.2103 51.9681 41.0444C50.9497 42.467 50.0291 43.7503 49.2603 44.8148C48.5434 45.8136 47.954 46.6121 47.5343 47.165C47.1226 47.7118 46.8806 48.0129 46.8806 48.0129C46.8806 48.0129 47.1473 47.7439 47.6388 47.2511C48.116 46.7563 48.7975 46.0278 49.6066 45.0989C50.4317 44.1576 51.3925 43.0098 52.4225 41.719C51.3001 43.2727 50.2935 44.6606 49.4547 45.8171C48.6678 46.9081 48.0123 47.7703 47.5585 48.3622C47.0967 48.9603 46.8447 49.2819 46.8447 49.2819C46.8447 49.2819 47.1777 48.9492 47.7032 48.4173ZM42.0887 49.7376C42.2216 49.8273 42.3645 49.8967 42.4994 49.9722C42.6342 50.0478 42.7771 50.1171 42.928 50.1803C43.0728 50.2354 43.2138 50.319 43.3604 50.3599L43.8046 50.5049C43.9574 50.5538 44.1139 50.5743 44.2605 50.6152C44.4151 50.6499 44.5618 50.6908 44.7201 50.6971L45.1854 50.7363C45.3419 50.7568 45.496 50.7407 45.6482 50.739L46.1128 50.7274L45.6476 50.6882C45.4972 50.6758 45.3388 50.6695 45.1904 50.6429L44.7388 50.5548C44.5822 50.5343 44.4437 50.4872 44.2971 50.4463C44.1505 50.4054 44.0038 50.3645 43.8591 50.3094L43.4329 50.1378C43.2881 50.0827 43.1613 50.001 43.0327 49.9335C42.904 49.866 42.7692 49.7904 42.6424 49.7087C42.5156 49.627 42.3888 49.5453 42.2701 49.4574L41.9157 49.1794C41.6961 48.977 41.4766 48.7746 41.275 48.5456C41.0796 48.3246 40.886 48.0894 40.7228 47.8437C40.6381 47.7169 40.5596 47.5981 40.4829 47.465C40.4353 47.3864 40.402 47.3097 40.3624 47.2249L41.6202 45.7975C42.0789 45.2786 42.5376 44.7598 42.9759 44.231L44.3129 42.6403L45.6234 41.0317C46.4957 39.9519 47.3332 38.8602 48.185 37.7705C49.0164 36.6708 49.8497 35.557 50.6545 34.4393C51.4797 33.3316 52.266 32.1899 53.0584 31.0562C53.8508 29.9225 54.6167 28.7708 55.3825 27.6192C56.1421 26.4595 56.8876 25.2979 57.6064 24.1184C58.3252 22.9389 59.0521 21.7532 59.7239 20.5458L57.3343 23.9308L54.918 27.2979L52.4894 30.6488L50.028 33.9738C49.2089 35.0896 48.3652 36.1731 47.54 37.2808C46.7024 38.3724 45.871 39.4721 45.013 40.5538L43.7433 42.1822L42.4533 43.8008C41.6015 44.8905 40.7187 45.94 39.8546 47.0137L39.7425 47.151L39.8111 47.2902C39.8921 47.4456 39.9688 47.5786 40.0596 47.7135C40.1505 47.8484 40.2414 47.9834 40.3342 48.104C40.5258 48.3535 40.7398 48.5986 40.9637 48.8232C41.0806 48.9254 41.1875 49.0479 41.3125 49.1439L41.6854 49.446L42.0887 49.7376Z" fill="#B39D6E"/>
<path d="M90.1095 47.911C89.7818 47.4846 89.8557 46.8647 90.2902 46.5308C90.7247 46.1969 91.3347 46.2912 91.6624 46.7176C91.9901 47.144 91.9081 47.7701 91.4817 48.0978C91.0553 48.4255 90.4373 48.3374 90.1095 47.911Z" fill="#B39D6E"/>
<path d="M28.7989 67.3986C29.0435 66.9675 29.2379 66.5877 29.3804 66.2735C29.6445 66.3008 29.9372 66.3319 30.2682 66.3463C31.9398 66.4565 34.3663 66.5498 37.3645 66.4212C40.3627 66.2926 43.9185 65.9403 47.8326 65.3383C51.7548 64.73 56.0229 63.8558 60.4631 62.7727C69.3392 60.584 77.2014 57.9587 82.8238 55.9159C88.4604 53.8749 91.8508 52.4082 91.8508 52.4082C91.8508 52.4082 88.3917 53.7356 82.7231 55.6349C77.0544 57.5342 69.1681 60.0116 60.3081 62.1879C55.8821 63.273 51.6325 64.1713 47.7394 64.834C43.8463 65.4967 40.3177 65.9177 37.3387 66.1211C34.3596 66.3246 31.938 66.3043 30.2732 66.2528C29.9564 66.2403 29.6761 66.2253 29.4101 66.2122C29.4931 66.0205 29.5662 65.8491 29.6052 65.7167C29.77 65.2318 30.7333 63.7876 32.0272 61.9741C35.1034 61.7472 38.8944 61.2014 42.9515 60.3358C47.9442 59.2888 52.3907 58.0472 55.5904 57.0983C58.79 56.1494 60.7386 55.471 60.7386 55.471C60.7386 55.471 58.7375 55.9978 55.5057 56.805C52.2678 57.6041 47.7972 58.6978 42.8207 59.7325C38.9337 60.5697 35.314 61.1886 32.3306 61.5362C32.6401 61.1064 32.9676 60.65 33.3093 60.1954C42.8508 58.6727 67.2485 54.0002 85.0763 43.793C85.0763 43.793 87.15 42.7112 88.4733 42.8844C89.7966 43.0577 94.4123 43.9513 94.3796 46.3567C94.3513 48.7844 93.2687 52.6879 91.9814 53.6772C90.6941 54.6665 61.2361 67.592 29.0569 67.4179C29.0489 67.4241 28.9554 67.4191 28.7989 67.3986ZM91.984 46.4701C91.5203 45.8667 90.6461 45.745 90.0346 46.2149C89.4312 46.6787 89.3096 47.5528 89.7795 48.1643C90.2432 48.7677 91.1174 48.8894 91.7289 48.4195C92.3323 47.9557 92.4478 47.0735 91.984 46.4701Z" fill="#B39D6E"/>
<path d="M26.8545 63.5693C26.8786 63.5508 26.9009 63.5465 26.9232 63.5422C26.808 63.7586 26.6947 63.9609 26.6012 64.1223C26.6068 63.9132 26.6775 63.7054 26.8545 63.5693Z" fill="#B39D6E"/>
<path d="M26.1477 62.6666C25.751 62.9331 25.5621 63.2702 25.4532 63.4947C25.393 63.7329 25.362 63.8591 25.362 63.8591C25.362 63.8591 25.3992 63.7409 25.4736 63.5046C25.5887 63.2881 25.7881 62.9814 26.1873 62.7514C26.5499 62.5239 27.0555 62.3657 27.6346 62.2534C27.4755 62.5292 27.3244 62.7989 27.1832 63.0482C26.9784 63.0648 26.7699 63.1099 26.5929 63.2459C26.1665 63.5736 26.0759 64.1551 26.3269 64.6149C26.2117 64.8314 26.1442 64.9601 26.1442 64.9601C26.1186 65.5429 26.0577 66.0632 25.9702 66.5655C25.1674 66.1203 24.5181 65.4419 24.5142 64.4211C24.4886 62.0732 26.5393 61.2778 28.4086 60.9291C28.1776 61.3114 27.9628 61.6812 27.7659 62.0245C27.11 62.1702 26.5543 62.3797 26.1477 62.6666Z" fill="#B39D6E"/>
<path d="M27.9799 63.3186C27.7665 63.1242 27.4894 63.0301 27.1974 63.0497C27.3385 62.8005 27.4896 62.5308 27.6488 62.2549C27.9526 62.2006 28.2687 62.1624 28.6133 62.1279C28.3886 62.5182 28.1781 62.9104 27.9799 63.3186Z" fill="#B39D6E"/>
<path d="M27.3637 64.765C27.1348 64.8001 26.8923 64.7177 26.7377 64.5166C26.6449 64.3959 26.6128 64.2542 26.6092 64.1162C26.7045 63.9406 26.8098 63.7445 26.9312 63.5361C27.2214 63.3642 27.5833 63.4188 27.8016 63.6862C27.7205 63.8637 27.6251 64.0394 27.544 64.2169C27.4833 64.4043 27.4244 64.5775 27.3637 64.765Z" fill="#B39D6E"/>
<path d="M26.1585 64.9616C26.1585 64.9616 26.226 64.8329 26.3411 64.6164C26.364 64.6628 26.3788 64.7154 26.4159 64.7637C26.6262 65.0373 26.9361 65.1574 27.2529 65.17C27.2219 65.2962 27.197 65.4304 27.1661 65.5566C27.0656 65.9921 26.9652 66.4276 26.8728 66.857C26.8691 66.8854 26.8573 66.9201 26.8536 66.9485C26.5703 66.8463 26.2827 66.7218 26.0068 66.5627C26.072 66.0647 26.1329 65.5444 26.1585 64.9616Z" fill="#B39D6E"/>
<path d="M29.9976 61.7811C29.7359 61.7902 29.4946 61.8093 29.2533 61.8284C29.4681 61.4585 29.6892 61.0967 29.9164 60.7429C29.9244 60.7367 29.9343 60.7163 29.9424 60.7101C30.6131 60.617 31.7639 60.4492 33.3077 60.2099C32.9721 60.6725 32.6465 61.1147 32.3289 61.5507C31.506 61.6456 30.7215 61.7239 29.9976 61.7811Z" fill="#B39D6E"/>
<path d="M29.4419 60.7747C29.2345 61.0876 29.0413 61.4024 28.8401 61.7235C28.8123 61.7705 28.7844 61.8175 28.7565 61.8645C28.4039 61.9051 28.0858 61.9576 27.7802 62.0261C27.9771 61.6828 28.1919 61.313 28.4229 60.9307C28.7044 60.8807 28.9779 60.8369 29.2433 60.7993C29.2433 60.7993 29.3244 60.7882 29.4419 60.7747Z" fill="#B39D6E"/>
<path d="M27.2088 66.9445C27.3743 66.3438 27.4865 65.7073 27.66 65.1004C27.759 65.0627 27.85 65.0312 27.9385 64.9632C28.3408 64.654 28.4481 64.1109 28.246 63.6647C28.5036 63.134 28.7958 62.615 29.1023 62.0979C29.4005 62.0863 29.6987 62.0747 30.0093 62.0792C30.6342 62.0596 31.3197 62.0191 32.0356 61.9681C30.7417 63.7815 29.7784 65.2257 29.6136 65.7107C29.5665 65.8493 29.4934 66.0206 29.4185 66.2062C28.9879 66.1788 28.6303 66.1464 28.3643 66.1333C27.9194 66.104 27.6899 66.0885 27.6899 66.0885C27.6899 66.0885 27.9176 66.1183 28.3605 66.1618C28.6247 66.1891 28.9743 66.2276 29.3949 66.2755C29.2445 66.5959 29.05 66.9757 28.8135 67.4006C28.4782 67.3639 27.854 67.2678 27.1797 67.0565C27.1772 67.02 27.189 66.9853 27.2088 66.9445Z" fill="#B39D6E"/>
<path d="M27.683 64.6476C27.5865 64.7218 27.4733 64.7576 27.3637 64.765C27.4245 64.5775 27.4833 64.4043 27.544 64.2169C27.6252 64.0394 27.7205 63.8637 27.8016 63.6862L27.8078 63.6942C28.0366 63.9919 27.9807 64.4188 27.683 64.6476Z" fill="#B39D6E"/>
<path d="M27.9799 63.3187C28.1843 62.9185 28.3886 62.5183 28.6196 62.136C28.7736 62.12 28.9339 62.112 29.1003 62.1121C28.7876 62.6211 28.5016 63.1481 28.2439 63.6789C28.2106 63.6021 28.1914 63.5273 28.1358 63.4548C28.0863 63.3905 28.0251 63.3608 27.9799 63.3187Z" fill="#B39D6E"/>
<path d="M27.2087 66.9445C27.1969 66.9791 27.1913 67.0218 27.1715 67.0627C27.0595 67.0335 26.9494 66.9902 26.8393 66.9468C26.843 66.9184 26.8548 66.8837 26.8585 66.8553C26.9571 66.434 27.0575 65.9985 27.1517 65.5549C27.1827 65.4287 27.2075 65.2945 27.2385 65.1683C27.3827 65.1727 27.5163 65.1467 27.6457 65.0985C27.4864 65.7072 27.3661 66.35 27.2087 66.9445Z" fill="#B39D6E"/>
<path d="M28.8481 61.7171C29.0413 61.4023 29.2425 61.0813 29.4499 60.7683C29.5675 60.7548 29.7296 60.7326 29.9585 60.6974C29.9504 60.7036 29.9405 60.724 29.9325 60.7302C29.6972 61.0901 29.4762 61.452 29.2694 61.8157C29.1011 61.8298 28.9347 61.8298 28.7726 61.852C28.7986 61.8192 28.8122 61.7703 28.8481 61.7171Z" fill="#B39D6E"/>
</svg>
