<svg width="144" height="38" viewBox="0 0 144 38" fill="none" xmlns="http://www.w3.org/2000/svg">
<path d="M50.3671 21.1368C50.0183 21.4836 49.65 21.7577 49.2776 21.9679C49.1794 22.0137 49.0889 22.064 48.9968 22.1081C48.9047 22.1523 48.8093 22.1843 48.7217 22.2208C48.5419 22.3015 48.3645 22.3425 48.1964 22.3941C47.8553 22.4789 47.5563 22.5266 47.3024 22.5491C47.0519 22.5838 46.8554 22.578 46.72 22.5818C46.5846 22.5856 46.5147 22.5913 46.5147 22.5913C46.5147 22.5913 46.5862 22.5916 46.7249 22.5999C46.8619 22.6022 47.0616 22.6202 47.3154 22.5976C47.5664 22.5888 47.8764 22.5577 48.2284 22.4894C48.5727 22.4166 48.9635 22.299 49.359 22.102C49.7528 21.899 50.147 21.6245 50.5157 21.2789C50.8694 20.9502 51.1947 20.5642 51.5058 20.1495C51.8409 20.43 52.1807 20.6313 52.3574 20.7334C50.9177 21.8338 48.2482 23.4846 46.0638 23.8425C46.0638 23.8425 45.2147 23.5828 45.6497 22.2969C45.6497 22.2969 45.8607 21.9934 46.6114 22.0067C46.6114 22.0067 49.1339 22.4742 50.93 19.5762C51.0482 19.7264 51.1829 19.8657 51.3222 19.9973C51.011 20.412 50.701 20.8069 50.3671 21.1368Z" fill="#B39D6E"/>
<path d="M55.2594 16.7012C55.7335 16.3857 56.2049 16.084 56.6597 15.7932C57.1161 15.5085 57.5604 15.2271 57.9837 14.9642C58.4087 14.7074 58.8093 14.4572 59.1785 14.2348C60.6674 13.3421 61.6591 12.7516 61.6591 12.7516C61.6591 12.7516 61.4025 12.8853 60.9513 13.1166C60.5078 13.3524 59.8634 13.6875 59.1081 14.1173C58.3527 14.547 57.4721 15.0428 56.5455 15.6095C56.083 15.8958 55.61 16.1914 55.1358 16.5069C54.8979 16.6616 54.6556 16.824 54.4193 16.9847C54.3697 17.0175 54.3216 17.0564 54.278 17.0876C54.2076 17.0674 54.1587 17.0546 54.1587 17.0546C53.9982 17.0131 53.8316 16.9733 53.6589 16.9351C54.591 16.2436 55.7102 15.45 56.8432 14.7566C61.4491 11.9438 66.1919 9.30222 70.9031 6.68857C72.9964 5.53 74.9985 4.20096 77.0181 2.91273C77.9895 2.29513 78.9653 1.66985 79.9351 1.0462C81.2151 0.222486 82.1514 0.686215 83.1758 1.76951C83.6019 2.22051 83.9441 2.74598 84.1595 3.33144C84.271 3.62638 84.7237 5.29162 84.3816 5.49374C84.3816 5.49374 71.8917 12.9722 66.5041 15.8255C66.5041 15.8255 65.0629 16.0233 63.1208 13.8671C63.1208 13.8671 59.4918 15.9374 56.6139 17.683C55.677 17.4598 54.9799 17.2828 54.5732 17.1709C54.8034 17.0118 55.0336 16.8526 55.2594 16.7012ZM67.6317 14.3605C68.0563 14.1753 68.6712 13.9001 69.4153 13.5253C70.9068 12.7878 72.9326 11.6928 75.1025 10.3837C77.2801 9.07916 79.195 7.81247 80.569 6.87911C81.943 5.94574 82.773 5.33357 82.773 5.33357C82.773 5.33357 81.8649 5.82376 80.4204 6.63958C79.5729 7.11353 78.5372 7.70938 77.39 8.37407C78.2814 7.7974 79.0791 7.25883 79.7383 6.80936C80.9948 5.94647 81.748 5.38735 81.748 5.38735C81.748 5.38735 80.9182 5.83055 79.5896 6.56984C78.804 7.00774 77.845 7.55054 76.7883 8.165C77.5953 7.63694 78.3162 7.15142 78.9075 6.73962C80.0404 5.94883 80.7213 5.43506 80.7213 5.43506C80.7213 5.43506 79.9639 5.83291 78.7528 6.50172C78.035 6.90195 77.1544 7.39776 76.1805 7.95756C76.8986 7.48579 77.5396 7.04119 78.0691 6.66544C79.08 5.9528 79.693 5.47671 79.693 5.47671C79.693 5.47671 79.0079 5.8292 77.9204 6.42592C77.2689 6.78241 76.4666 7.23124 75.5788 7.74849C76.2125 7.32532 76.7751 6.92771 77.2383 6.5957C78.1317 5.95354 78.6664 5.52443 78.6664 5.52443C78.6664 5.52443 78.0535 5.83156 77.0897 6.35617C76.1259 6.88079 74.7973 7.62007 73.369 8.49651C71.9391 9.36689 70.6745 10.1995 69.7577 10.8025C68.8408 11.4054 68.2608 11.7622 68.2608 11.7622C68.2608 11.7622 68.4196 11.7002 68.7068 11.5843C68.9925 11.4622 69.4005 11.2879 69.8942 11.0452C70.3895 10.8086 70.972 10.5096 71.6131 10.1624C70.863 10.6362 70.1929 11.0691 69.6371 11.4194C69.1161 11.7539 68.6867 12.0184 68.3915 12.2015C68.0962 12.3845 67.9334 12.4801 67.9334 12.4801C67.9334 12.4801 68.1087 12.4071 68.4324 12.2815C68.7528 12.1436 69.2121 11.9426 69.7692 11.6699C70.3324 11.3956 70.9949 11.0556 71.7143 10.6615C70.8798 11.1839 70.1298 11.6577 69.5061 12.0457C68.9233 12.4163 68.4426 12.7075 68.1126 12.9064C67.7826 13.1052 67.5972 13.2134 67.5972 13.2134C67.5972 13.2134 67.7968 13.1339 68.1535 12.9863C68.5086 12.8327 69.0193 12.6049 69.6382 12.2962C70.2631 11.9858 71.0056 11.6049 71.8156 11.1605C70.8966 11.7316 70.0666 12.2463 69.3751 12.672C68.7288 13.0726 68.2029 13.3889 67.8321 13.6052C67.4673 13.8198 67.2577 13.9345 67.2577 13.9345C67.2577 13.9345 67.4738 13.8441 67.8714 13.6791C68.2612 13.5097 68.8232 13.2551 69.5055 12.9164C70.2 12.5744 71.0208 12.1466 71.9152 11.6536C70.9058 12.2749 70.0018 12.8289 69.2485 13.2906C68.5404 13.7272 67.9616 14.0642 67.5621 14.2947C67.1565 14.5268 66.9364 14.6507 66.9364 14.6507C66.9364 14.6507 67.2055 14.5397 67.6317 14.3605ZM64.1119 13.7834C64.1665 13.8662 64.2317 13.9397 64.2908 14.0148C64.3499 14.09 64.4151 14.1634 64.4863 14.2353C64.5559 14.3011 64.6167 14.3823 64.6907 14.4404L64.91 14.6285C64.9857 14.6927 65.0702 14.7415 65.1443 14.7996C65.2244 14.8561 65.2984 14.9142 65.3874 14.9554L65.6438 15.088C65.7283 15.1369 65.8201 15.1642 65.9075 15.1993L66.1756 15.3029L65.9192 15.1702C65.8363 15.1274 65.7473 15.0863 65.6688 15.0359L65.4317 14.8785C65.3472 14.8297 65.2792 14.77 65.2052 14.7118C65.1311 14.6537 65.0571 14.5956 64.9875 14.5298L64.7847 14.3308C64.7151 14.265 64.6621 14.1882 64.6046 14.1192C64.5471 14.0501 64.488 13.975 64.435 13.8983C64.3819 13.8215 64.3289 13.7448 64.2819 13.6664L64.1454 13.4236C64.068 13.256 63.9906 13.0883 63.9297 12.9097C63.8705 12.7372 63.8157 12.557 63.7808 12.378C63.7625 12.2854 63.7458 12.1989 63.7335 12.1048C63.725 12.0486 63.7241 11.9969 63.7216 11.9391L64.7784 11.422C65.1634 11.2344 65.5484 11.0468 65.9241 10.8487L67.0649 10.2572L68.1948 9.64907C68.949 9.2391 69.6862 8.81419 70.431 8.39372C71.1666 7.96275 71.9066 7.5241 72.6312 7.07657C73.3652 6.63954 74.0849 6.17383 74.8063 5.71418C75.5277 5.25453 76.2381 4.77832 76.9486 4.30211C77.6574 3.81983 78.3586 3.33312 79.0488 2.82986C79.739 2.32659 80.4352 1.8217 81.1052 1.29137L78.9378 2.6582L76.7595 4.00847L74.5779 5.34661L72.3838 6.66214C71.6514 7.10523 70.9126 7.52408 70.1787 7.9611C69.4415 8.38601 68.7059 8.81698 67.9594 9.23139L66.8482 9.86047L65.7276 10.4791C64.9827 10.8995 64.2298 11.2897 63.4816 11.698L63.3851 11.7499L63.3913 11.8457C63.4007 11.9536 63.4129 12.0478 63.4329 12.1464C63.4528 12.245 63.4727 12.3436 63.4971 12.4345C63.5474 12.6224 63.6115 12.8131 63.6861 12.9945C63.7286 13.0806 63.7607 13.1759 63.8093 13.2603L63.9507 13.5213L64.1119 13.7834Z" fill="#B39D6E"/>
<path d="M91.9724 24.125C91.8863 23.8038 92.0755 23.4673 92.4028 23.3796C92.7301 23.2919 93.0561 23.4903 93.1422 23.8116C93.2283 24.1328 93.033 24.471 92.7118 24.5571C92.3905 24.6432 92.0584 24.4463 91.9724 24.125Z" fill="#B39D6E"/>
<path d="M52.3343 20.72C52.5762 20.5317 52.7773 20.3609 52.9332 20.2152C53.0776 20.2934 53.2374 20.3805 53.423 20.4672C54.3516 20.9265 55.7154 21.5551 57.4583 22.1925C59.2013 22.8298 61.3157 23.4716 63.694 24.0557C66.0784 24.6382 68.7234 25.1508 71.5162 25.5848C77.1048 26.4391 82.2178 26.8036 85.9133 26.9698C89.6166 27.1404 91.9007 27.1065 91.9007 27.1065C91.9007 27.1065 89.6104 27.0446 85.9224 26.7855C82.2344 26.5263 77.1427 26.0716 71.5663 25.2141C68.7812 24.7845 66.141 24.2901 63.7603 23.7456C61.3797 23.2011 59.2645 22.605 57.5147 22.0149C55.765 21.4248 54.3867 20.8392 53.448 20.4151C53.27 20.3328 53.1135 20.2578 52.9647 20.1873C53.0575 20.0974 53.1399 20.0169 53.1936 19.9505C53.4027 19.7126 54.2953 19.1161 55.4642 18.3871C57.275 18.9868 59.5697 19.5738 62.0921 20.0413C65.192 20.627 68.026 20.972 70.0784 21.1886C72.1309 21.4053 73.4047 21.4797 73.4047 21.4797C73.4047 21.4797 72.1369 21.3062 70.0996 21.001C68.0608 20.6898 65.2481 20.2546 62.1604 19.6657C59.7419 19.2224 57.5278 18.7177 55.7413 18.2089C56.02 18.0368 56.3153 17.8537 56.6182 17.6751C62.4289 19.0676 77.4716 22.183 90.074 20.5798C90.074 20.5798 91.5148 20.4536 92.2296 20.8662C92.9443 21.2789 95.3687 22.8836 94.7798 24.2497C94.1881 25.6296 92.6443 27.6024 91.6745 27.8623C90.7047 28.1221 70.8152 28.5207 52.4771 20.7921C52.471 20.7938 52.4189 20.7688 52.3343 20.72ZM93.3847 23.7465C93.2628 23.2919 92.7924 23.0152 92.3317 23.1386C91.8771 23.2604 91.6004 23.7309 91.7239 24.1915C91.8457 24.6461 92.3161 24.9228 92.7768 24.7994C93.2314 24.6776 93.5065 24.2011 93.3847 23.7465Z" fill="#B39D6E"/>
<path d="M52.1315 18.0719C52.1497 18.067 52.1634 18.0698 52.1772 18.0726C52.0601 18.169 51.9474 18.2576 51.8557 18.3277C51.9086 18.2096 51.9982 18.1076 52.1315 18.0719Z" fill="#B39D6E"/>
<path d="M51.9419 17.3887C51.6521 17.4469 51.4644 17.5946 51.3489 17.697C51.2581 17.8188 51.2104 17.8835 51.2104 17.8835C51.2104 17.8835 51.2597 17.8249 51.3582 17.7075C51.4753 17.6112 51.6619 17.4832 51.9444 17.4465C52.2055 17.4025 52.5317 17.4321 52.8891 17.5052C52.7328 17.625 52.5826 17.7432 52.4429 17.8521C52.322 17.8131 52.1922 17.7894 52.0588 17.8251C51.7376 17.9112 51.548 18.2219 51.5823 18.544C51.4652 18.6403 51.3961 18.6978 51.3961 18.6978C51.2433 19.0246 51.0852 19.3073 50.9162 19.5735C50.5632 19.1289 50.3531 18.5875 50.5929 18.0035C51.135 16.6564 52.4948 16.6883 53.6451 16.9323C53.4226 17.0959 53.2122 17.2562 53.0183 17.4056C52.6092 17.3333 52.2421 17.3212 51.9419 17.3887Z" fill="#B39D6E"/>
<path d="M52.8338 18.1955C52.758 18.0339 52.622 17.9145 52.4506 17.8565C52.5903 17.7476 52.7405 17.6293 52.8968 17.5095C53.0832 17.5505 53.2729 17.6036 53.4779 17.6657C53.257 17.8353 53.0438 18.0094 52.8338 18.1955Z" fill="#B39D6E"/>
<path d="M52.1389 18.8755C51.9998 18.8413 51.8808 18.7368 51.8402 18.5852C51.8159 18.4943 51.8311 18.4058 51.8617 18.3261C51.9579 18.2484 52.0645 18.1613 52.1832 18.0711C52.3897 18.0417 52.5835 18.1587 52.6448 18.3632C52.5563 18.4453 52.4602 18.5231 52.3718 18.6052C52.2927 18.6979 52.218 18.7828 52.1389 18.8755Z" fill="#B39D6E"/>
<path d="M51.4039 18.7021C51.4039 18.7021 51.4729 18.6446 51.59 18.5482C51.5921 18.5802 51.5881 18.6137 51.5979 18.6501C51.6531 18.8562 51.8016 18.9983 51.9795 19.0805C51.9319 19.1453 51.8859 19.2161 51.8383 19.2808C51.6777 19.5057 51.5171 19.7307 51.3625 19.954C51.3537 19.9694 51.3387 19.9863 51.3299 20.0017C51.1923 19.8762 51.0575 19.7369 50.9377 19.5806C51.093 19.3116 51.2511 19.0289 51.4039 18.7021Z" fill="#B39D6E"/>
<path d="M54.3507 17.7956C54.1991 17.7388 54.0568 17.6925 53.9144 17.6462C54.1248 17.4859 54.3369 17.3316 54.5505 17.1834C54.5566 17.1818 54.5671 17.1725 54.5731 17.1708C54.9783 17.2767 55.6754 17.4537 56.6138 17.683C56.3125 17.8677 56.0217 18.043 55.7369 18.2168C55.2444 18.0759 54.7778 17.9346 54.3507 17.7956Z" fill="#B39D6E"/>
<path d="M54.2719 17.0891C54.0793 17.2187 53.8943 17.3527 53.7033 17.4884C53.6762 17.5086 53.6491 17.5289 53.6221 17.5491C53.411 17.4887 53.2169 17.4433 53.0261 17.41C53.2199 17.2606 53.4304 17.1002 53.6529 16.9367C53.8255 16.9749 53.9921 17.0147 54.1526 17.0561C54.1526 17.0561 54.2016 17.069 54.2719 17.0891Z" fill="#B39D6E"/>
<path d="M51.5337 20.0837C51.7706 19.7799 51.9856 19.4429 52.2286 19.1374C52.2941 19.1393 52.3535 19.1429 52.4202 19.1251C52.7233 19.0438 52.9133 18.759 52.9036 18.4563C53.1766 18.2143 53.4666 17.9871 53.7642 17.7645C53.9373 17.8285 54.1104 17.8926 54.2867 17.9688C54.6482 18.1058 55.0494 18.2452 55.4703 18.3857C54.3014 19.1147 53.4088 19.7112 53.1997 19.9491C53.14 20.0171 53.0576 20.0976 52.9708 20.1859C52.7314 20.0681 52.5348 19.9649 52.386 19.8943C52.1388 19.7721 52.0114 19.7088 52.0114 19.7088C52.0114 19.7088 52.1344 19.7798 52.3771 19.9097C52.5215 19.9879 52.712 20.0928 52.9409 20.2199C52.779 20.3672 52.5779 20.538 52.3421 20.7246C52.1593 20.6242 51.8255 20.4213 51.4905 20.1407C51.4978 20.1193 51.5127 20.1023 51.5337 20.0837Z" fill="#B39D6E"/>
<path d="M52.3491 18.8842C52.2764 18.9037 52.2032 18.8973 52.1389 18.8756C52.2181 18.7829 52.2927 18.6979 52.3718 18.6053C52.4603 18.5231 52.5564 18.4454 52.6448 18.3632L52.6464 18.3693C52.7065 18.5936 52.5734 18.8241 52.3491 18.8842Z" fill="#B39D6E"/>
<path d="M52.8338 18.1956C53.0454 18.0154 53.257 17.8353 53.4795 17.6717C53.5713 17.6991 53.6647 17.7325 53.7597 17.772C53.4605 17.9887 53.1721 18.2218 52.8992 18.4639C52.8983 18.4121 52.9051 18.3648 52.8905 18.3103C52.8775 18.2618 52.8496 18.2303 52.8338 18.1956Z" fill="#B39D6E"/>
<path d="M51.5337 20.0836C51.5188 20.1006 51.5054 20.1236 51.4844 20.1422C51.4274 20.0991 51.3748 20.0482 51.3222 19.9973C51.3311 19.982 51.346 19.965 51.3549 19.9496C51.511 19.7323 51.6716 19.5074 51.8306 19.2764C51.8782 19.2117 51.9242 19.1409 51.9719 19.0761C52.0532 19.1128 52.1356 19.1297 52.2209 19.1328C51.9856 19.4428 51.7645 19.7813 51.5337 20.0836Z" fill="#B39D6E"/>
<path d="M53.7093 17.4866C53.8943 17.3526 54.0853 17.217 54.278 17.0874C54.3483 17.1075 54.4462 17.1333 54.5853 17.1675C54.5792 17.1691 54.5687 17.1784 54.5626 17.18C54.3429 17.3298 54.1309 17.4841 53.9266 17.6428C53.8271 17.611 53.732 17.5715 53.6342 17.5457C53.6568 17.5332 53.6762 17.5085 53.7093 17.4866Z" fill="#B39D6E"/>
<circle cx="117" cy="19" r="3" fill="#B39D6E"/>
<circle cx="129" cy="19" r="3" fill="#B39D6E"/>
<circle cx="141" cy="19" r="3" fill="#B39D6E"/>
<circle cx="3" cy="19" r="3" fill="#B39D6E"/>
<circle cx="15" cy="19" r="3" fill="#B39D6E"/>
<circle cx="27" cy="19" r="3" fill="#B39D6E"/>
</svg>
