<svg width="108" height="108" viewBox="0 0 108 108" fill="none" xmlns="http://www.w3.org/2000/svg">
<rect x="1" y="1" width="106" height="106" stroke="#B39D6E" stroke-width="2"/>
<path d="M50.5402 43.1478C50.5402 43.7547 50.6976 44.3242 50.9523 44.8412C53.1627 44.7663 54.3241 44.7962 54.3466 44.8037C54.3616 44.8037 55.523 44.7737 57.7334 44.8412C57.9881 44.3317 58.1455 43.7622 58.1455 43.1478C58.1455 42.2112 57.8083 41.357 57.2464 40.6976L60.0712 26.2888C59.1121 24.9775 54.3391 25 54.3391 25C54.3391 25 49.5661 24.9775 48.6071 26.2888L51.4319 40.6976C50.8774 41.357 50.5402 42.2112 50.5402 43.1478ZM52.9829 43.3351C52.2261 43.3351 51.6192 42.938 51.6192 42.451C51.6192 41.9639 52.2336 41.5668 52.9829 41.5668C53.7322 41.5668 54.3466 41.9639 54.3466 42.451C54.3466 42.938 53.7397 43.3351 52.9829 43.3351ZM50.5702 26.6859C51.1696 26.4911 51.784 26.3487 52.4059 26.2364C52.7281 26.1839 53.0503 26.1315 53.3725 26.1015C53.5374 26.079 53.6947 26.0715 53.8596 26.0565C54.0244 26.0415 54.1818 26.034 54.3466 26.0265C54.6688 26.0116 54.9985 26.0116 55.3282 26.0191C55.493 26.0191 55.6579 26.034 55.8152 26.049C55.9801 26.0565 56.1449 26.0715 56.3022 26.094L56.7893 26.1539L57.2763 26.2438C57.4412 26.2738 57.5985 26.3038 57.7559 26.3487L58.2354 26.4761L58.4227 26.5286L58.3928 26.7384C58.2279 27.9148 58.0556 29.0911 57.8758 30.2675C57.7034 31.4439 57.5161 32.6203 57.3288 33.7967C57.1489 34.9731 56.9391 36.1419 56.7518 37.3183C56.5495 38.4722 56.3472 39.6261 56.1374 40.7725C56.2273 40.8774 56.3097 40.9749 56.3847 41.0872C56.4746 41.2221 56.542 41.372 56.6095 41.5143C56.6394 41.5893 56.6619 41.6642 56.6919 41.7391C56.7144 41.8141 56.7293 41.8965 56.7518 41.9714C56.7668 42.0463 56.7743 42.1288 56.7818 42.2112C56.7968 42.2936 56.7818 42.376 56.7893 42.451C56.7893 42.5334 56.7818 42.6083 56.7668 42.6907C56.7518 42.7657 56.7443 42.8481 56.7219 42.923L56.6469 43.1478C56.6169 43.2227 56.5795 43.2902 56.542 43.3651C56.512 43.44 56.4746 43.5075 56.4221 43.5674L56.2873 43.7622C56.2423 43.8222 56.1824 43.8821 56.1374 43.9345L55.9801 44.1144L56.1149 43.9271C56.1599 43.8671 56.2123 43.8072 56.2498 43.7397L56.3622 43.5374C56.3997 43.47 56.4296 43.4025 56.4596 43.3276C56.4896 43.2602 56.5195 43.1853 56.542 43.1178L56.5945 42.9005C56.617 42.8256 56.617 42.7507 56.6244 42.6757C56.6319 42.6008 56.6394 42.5259 56.6319 42.451C56.6244 42.376 56.6319 42.3011 56.6095 42.2337C56.5945 42.1587 56.587 42.0913 56.5645 42.0164C56.542 41.9489 56.5195 41.874 56.4971 41.8066L56.4071 41.6043C56.3397 41.4769 56.2648 41.3495 56.1749 41.2296C56.0924 41.1097 55.9875 40.9973 55.8901 40.8999L55.8377 40.8475L55.8452 40.7651C55.9875 39.5812 56.1524 38.4048 56.3097 37.2284C56.4821 36.052 56.6394 34.8756 56.8193 33.6993C56.9916 32.5229 57.1714 31.3465 57.3662 30.1701C57.5386 29.0612 57.7259 27.9597 57.9132 26.8508L57.651 26.7758C57.5011 26.7234 57.3513 26.6859 57.1939 26.656L56.7293 26.5511L56.2573 26.4761C56.0999 26.4462 55.9426 26.4312 55.7852 26.4162C55.6279 26.4012 55.4705 26.3787 55.3132 26.3637C54.9985 26.3413 54.6763 26.3188 54.3616 26.3188C54.2042 26.3113 54.0394 26.3113 53.882 26.3188C53.7247 26.3263 53.5599 26.3188 53.4025 26.3263C53.0803 26.3338 52.7656 26.3637 52.4434 26.3862C52.1212 26.4162 51.8065 26.4536 51.4843 26.5061C51.1696 26.5585 50.8474 26.611 50.5327 26.6784C50.5252 26.7009 50.5402 26.6934 50.5702 26.6859ZM49.9783 27.9747C49.9783 27.9747 50.3604 27.8773 50.8624 27.7799C51.5518 27.645 52.4659 27.5101 52.9904 27.615V34.5684V40.2555H52.346L49.9783 27.9747Z" fill="#B39D6E"/>
<path d="M70.9958 67.8818C71.0408 67.4322 71.0932 66.9902 71.1157 66.5406C71.1457 66.091 71.1831 65.6489 71.1981 65.2069C71.2056 64.9821 71.2131 64.7648 71.2281 64.5475C71.2281 64.3302 71.2281 64.1054 71.2281 63.8881C71.2281 63.6708 71.2281 63.4535 71.2281 63.2437C71.2206 63.0264 71.2131 62.8166 71.2056 62.6068C71.1981 62.1872 71.1682 61.7676 71.1307 61.363C71.1157 61.1607 71.1007 60.9584 71.0782 60.7636C71.0558 60.5688 71.0258 60.374 71.0033 60.1791V60.1716C71.0183 59.22 71.0258 58.2759 71.0333 57.3243C71.0483 55.3237 71.0558 53.3082 70.8684 51.3225C70.314 51.1727 69.6396 51.0453 68.8978 50.9329C68.9578 51.4724 69.0102 52.0194 69.0552 52.5664C69.1601 53.7502 69.2425 54.9416 69.3024 56.133C69.4148 58.5157 69.4448 60.8985 69.3174 63.2812C69.2874 63.8731 69.2425 64.4726 69.1975 65.0645L69.1151 65.9562L69.0102 66.8478C68.9802 67.1475 68.9353 67.4397 68.8903 67.732C68.8454 68.0242 68.8079 68.3239 68.748 68.6161C68.6955 68.9083 68.6431 69.2006 68.5906 69.4928L68.4033 70.3695C68.2609 70.9464 68.1185 71.5309 67.9312 72.0928C67.8413 72.3776 67.7589 72.6623 67.6465 72.9395C67.5416 73.2168 67.4517 73.5015 67.3243 73.7712C67.2044 74.041 67.092 74.3182 66.9572 74.588C66.8148 74.8502 66.6874 75.1199 66.545 75.3822L66.073 76.139L65.5335 76.8508L66.058 76.1315L66.5151 75.3672C66.6574 75.105 66.7848 74.8352 66.9122 74.573C67.0396 74.3032 67.1445 74.026 67.2644 73.7562C67.3842 73.4865 67.4667 73.2018 67.5716 72.917C67.6765 72.6398 67.7589 72.3551 67.8413 72.0703C68.0136 71.5009 68.1485 70.9239 68.2759 70.347L68.4557 69.4778C68.5082 69.1856 68.5531 68.8934 68.6056 68.6011C68.658 68.3089 68.6955 68.0167 68.733 67.717C68.7704 67.4248 68.8154 67.1325 68.8454 66.8328L68.9428 65.9487L69.0177 65.0645C69.0627 64.4726 69.1001 63.8806 69.1226 63.2887C69.1526 62.6967 69.1601 62.1048 69.175 61.5054C69.1825 60.9134 69.19 60.314 69.1825 59.7221C69.175 58.5307 69.1376 57.3468 69.0701 56.163C69.0102 54.9791 68.9203 53.7877 68.8154 52.6113C68.7704 52.1618 68.7255 51.7197 68.6805 51.2701V52.6638L68.5981 54.4696C68.5681 55.069 68.5531 55.6759 68.5082 56.2753L68.3508 58.0736L68.2759 58.9728C68.2459 59.2725 68.201 59.5722 68.1635 59.8719L67.9237 61.6627C67.8338 62.2622 67.7139 62.8466 67.609 63.446L67.4442 64.3377C67.3842 64.6299 67.3093 64.9221 67.2494 65.2218C67.107 65.8063 66.9946 66.3982 66.8298 66.9827L66.3427 68.7285L65.7808 70.4444C65.571 71.0064 65.3537 71.5683 65.1289 72.1303L64.7692 72.9545L64.5894 73.3666L64.3871 73.7712C64.2522 74.041 64.1248 74.3107 63.9825 74.5805L63.5479 75.3672C63.2332 75.8842 62.926 76.4012 62.5513 76.8658C62.9185 76.3862 63.2182 75.8617 63.5254 75.3447L63.945 74.5505C64.0799 74.2807 64.2073 74.011 64.3346 73.7413L64.5295 73.3366L64.7018 72.917L65.0465 72.0853C65.2563 71.5234 65.4586 70.9614 65.6609 70.3919L66.2079 68.6761L66.6724 66.9377C66.8298 66.3608 66.9347 65.7688 67.0695 65.1769C67.1295 64.8847 67.1969 64.5924 67.2569 64.2927L67.4067 63.4011C67.5041 62.8091 67.6165 62.2172 67.6989 61.6253L67.9312 59.842C67.9687 59.5422 68.0136 59.25 68.0436 58.9503L68.1185 58.0512L68.2684 56.2529C68.3134 55.6534 68.3209 55.054 68.3508 54.4546L68.4258 52.6563V50.8805C67.4667 50.7531 66.4027 50.6407 65.3087 50.5508C65.3762 51.0078 65.4211 51.5473 65.4885 52.1767C65.5485 52.8286 65.6009 53.5629 65.6309 54.3647C65.6384 54.7693 65.6459 55.1814 65.6609 55.616C65.6609 56.0506 65.6459 56.5001 65.6384 56.9572C65.6084 57.8788 65.5635 58.8529 65.4511 59.8494C65.4136 60.3515 65.3387 60.861 65.2787 61.3705C65.2188 61.8875 65.1289 62.4045 65.0465 62.9215C64.8741 63.963 64.6493 65.012 64.4096 66.0611C64.2747 66.5781 64.1473 67.1026 64.005 67.6196C63.8551 68.1291 63.7202 68.6461 63.5554 69.1481C63.398 69.6501 63.2407 70.1522 63.0609 70.6392C62.896 71.1262 62.7087 71.6058 62.5364 72.0778C62.1767 73.0145 61.802 73.9136 61.4199 74.7528C61.0453 75.592 60.6556 76.3713 60.2885 77.0906C59.5467 78.5142 58.8499 79.6606 58.3403 80.4474C57.8083 81.2042 57.4787 81.6238 57.4787 81.6238C57.4787 81.6238 57.7634 81.1742 58.2204 80.3575C58.4527 79.9529 58.7225 79.4508 59.0147 78.8739C59.3144 78.2969 59.6291 77.6376 59.9738 76.9182C60.3035 76.1914 60.6631 75.4047 61.0153 74.558C61.3675 73.7188 61.7121 72.8121 62.0568 71.883C62.394 70.9464 62.7162 69.9648 63.0159 68.9683C63.1732 68.4738 63.3081 67.9568 63.4505 67.4547C63.5854 66.9452 63.7127 66.4282 63.8401 65.9112C64.0874 64.8772 64.3122 63.8432 64.4845 62.8091C64.6643 61.7826 64.8217 60.7636 64.9341 59.7745C65.054 58.7855 65.1289 57.8264 65.1888 56.9122C65.2113 56.4552 65.2338 56.0131 65.2488 55.586C65.2563 55.1589 65.2638 54.7393 65.2713 54.3422C65.2862 53.9451 65.2638 53.5629 65.2638 53.1958C65.2563 52.8286 65.2638 52.4839 65.2413 52.1618C65.2038 51.5249 65.1888 50.9779 65.1514 50.5133C64.8741 50.4908 64.5969 50.4684 64.3197 50.4534C64.3272 50.888 64.3346 51.42 64.3496 52.0194C64.3496 52.3266 64.3721 52.6563 64.3571 53.0084C64.3421 53.3531 64.3271 53.7203 64.3122 54.1024C64.2747 54.8667 64.2522 55.6909 64.1923 56.5676C64.1024 57.4367 64.005 58.3584 63.9075 59.31C63.8701 59.7895 63.7727 60.2616 63.6977 60.7486C63.6153 61.2356 63.5404 61.7227 63.458 62.2247C63.383 62.7192 63.2707 63.2138 63.1583 63.7083C63.0459 64.2028 62.941 64.7048 62.8286 65.1994C62.7312 65.7014 62.5663 66.1884 62.4314 66.6755C62.2966 67.1625 62.1542 67.6495 62.0193 68.1366C61.8545 68.6086 61.6971 69.0807 61.5398 69.5527C61.3824 70.0173 61.2251 70.4819 61.0378 70.9239C60.8579 71.366 60.6856 71.8081 60.5133 72.2352C60.3409 72.6623 60.1386 73.0669 59.9588 73.464C59.6066 74.2658 59.1945 74.9926 58.8424 75.6669C58.4602 76.3263 58.1155 76.9407 57.7634 77.4502C57.4262 77.9747 57.1115 78.4093 56.8493 78.769C56.5795 79.1212 56.3622 79.3984 56.2049 79.5782C56.0625 79.758 55.9801 79.848 55.9801 79.848C55.9801 79.848 56.0625 79.7505 56.1974 79.5557C56.3397 79.3684 56.5271 79.0762 56.7818 78.709C57.0216 78.3344 57.3138 77.8848 57.6135 77.3453C57.6885 77.2105 57.7709 77.0756 57.8533 76.9332C57.9282 76.7909 58.0106 76.641 58.0856 76.4837C58.2429 76.1764 58.4228 75.8617 58.5876 75.5171C58.9098 74.8277 59.2844 74.1009 59.6066 73.2917C59.7715 72.8871 59.9588 72.4899 60.1236 72.0554C60.281 71.6283 60.4458 71.1937 60.6182 70.7516C60.798 70.3095 60.9329 69.8525 61.0827 69.3879C61.2326 68.9233 61.3899 68.4588 61.5398 67.9867C61.6747 67.5072 61.802 67.0276 61.9369 66.5406C62.0643 66.0536 62.2216 65.574 62.3191 65.0795C62.4314 64.585 62.5438 64.0904 62.6562 63.6034C62.7686 63.1163 62.8885 62.6218 62.956 62.1348C63.0459 61.6477 63.1283 61.1607 63.2107 60.6812C63.2931 60.2016 63.398 59.7296 63.443 59.2575C63.5629 58.3134 63.6828 57.4068 63.7952 56.5451C63.8701 55.6759 63.945 54.8592 64.005 54.1024C64.0349 53.7203 64.0724 53.3606 64.1024 53.0159C64.1323 52.6713 64.1323 52.3416 64.1548 52.0344C64.1773 51.4274 64.1998 50.9029 64.2222 50.4684C62.6937 50.3635 61.1352 50.2885 59.7265 50.2436C59.7865 50.6407 59.8464 51.0753 59.9213 51.5773C60.0262 52.2442 60.0787 53.001 60.1536 53.8327C60.1836 54.2448 60.1986 54.6794 60.221 55.1289C60.2285 55.3537 60.2435 55.5785 60.251 55.8108C60.251 56.0431 60.251 56.2753 60.251 56.5151C60.266 57.4667 60.236 58.4708 60.1686 59.5123C60.0937 60.5538 59.9963 61.6253 59.8314 62.7042C59.6666 63.7832 59.4718 64.8772 59.217 65.9636L59.0222 66.7729L58.8049 67.5746C58.6625 68.1066 58.4977 68.6311 58.3328 69.1556C58.1755 69.6801 57.9807 70.1896 57.8008 70.6917C57.606 71.1862 57.4262 71.6882 57.2164 72.1678C56.8268 73.1343 56.3847 74.041 55.9576 74.8877C55.5155 75.7344 55.0809 76.5211 54.6388 77.2254C54.2043 77.9373 53.7847 78.5667 53.3875 79.1137C52.9979 79.6606 52.6382 80.1252 52.331 80.5073C52.0313 80.8895 51.7691 81.1667 51.5967 81.3615C51.4244 81.5488 51.327 81.6537 51.327 81.6537C51.327 81.6537 51.6867 81.2341 52.2486 80.4474C52.8106 79.6681 53.5674 78.5142 54.3691 77.0681C54.7737 76.3488 55.1783 75.5545 55.5904 74.7078C55.9876 73.8536 56.3997 72.947 56.7743 71.9879C56.9691 71.5159 57.1415 71.0138 57.3288 70.5193C57.4936 70.0173 57.6735 69.5153 57.8308 68.9983C57.9882 68.4813 58.153 67.9642 58.2879 67.4323L58.4977 66.638L58.685 65.8363C58.9398 64.7723 59.1421 63.6933 59.3069 62.6218C59.3968 62.0898 59.4493 61.5578 59.5242 61.0333C59.5916 60.5088 59.6291 59.9843 59.6816 59.4748C59.7565 58.4483 59.8239 57.4592 59.8389 56.5076C59.8464 56.2753 59.8539 56.0356 59.8539 55.8108C59.8539 55.5785 59.8464 55.3537 59.8464 55.1364C59.8389 54.6943 59.8464 54.2598 59.8314 53.8477C59.8089 53.4355 59.794 53.0384 59.7715 52.6638C59.764 52.2891 59.734 51.9295 59.704 51.5998C59.6591 51.0903 59.6291 50.6407 59.5842 50.2436C57.104 50.1612 55.0884 50.1462 54.504 50.1387C54.5115 50.1836 54.5265 50.2361 54.5339 50.281C54.6763 50.9479 54.8037 51.6223 54.9086 52.2966C55.021 52.971 55.1109 53.6453 55.1933 54.3272L55.2982 55.3462L55.3806 56.3653L55.4406 57.3843L55.4781 58.4108C55.493 59.0927 55.5005 59.7745 55.4855 60.4564C55.4855 60.801 55.4706 61.1382 55.4556 61.4829C55.4406 61.8276 55.4331 62.1648 55.4031 62.5019C55.3732 62.8391 55.3582 63.1838 55.3207 63.521L55.2158 64.54C55.1259 65.2144 55.051 65.8962 54.9236 66.5631C54.8187 67.2374 54.6763 67.9043 54.5414 68.5712C54.474 68.9083 54.3841 69.238 54.3017 69.5677C54.2267 69.8974 54.1368 70.2271 54.0394 70.5568L53.7622 71.5384L53.4475 72.5124C53.3426 72.8346 53.2227 73.1568 53.1028 73.4715C52.9829 73.7862 52.8705 74.1084 52.7357 74.4231C52.4659 75.045 52.2112 75.6819 51.9114 76.2888C51.7616 76.596 51.6267 76.9033 51.4694 77.2105L50.9898 78.1096C50.8325 78.4093 50.6601 78.7015 50.4803 78.9938L49.9558 79.8704L50.4428 78.9788C50.6077 78.6791 50.7725 78.3868 50.9149 78.0796L51.3645 77.1655C51.5143 76.8583 51.6417 76.5436 51.7841 76.2364C52.0688 75.622 52.3011 74.9851 52.5483 74.3557C52.6682 74.041 52.7731 73.7188 52.8855 73.3966C52.9979 73.0744 53.1103 72.7597 53.2002 72.43L53.4924 71.4559L53.7547 70.4744C53.8446 70.1447 53.9195 69.8225 53.9945 69.4853C54.0694 69.1556 54.1443 68.8259 54.2118 68.4962C54.3391 67.8294 54.4665 67.17 54.5564 66.4956C54.6688 65.8288 54.7288 65.1544 54.8037 64.4875L54.8936 63.476C54.9236 63.1388 54.9311 62.8016 54.9536 62.4645C54.976 62.1273 54.9835 61.7901 54.9985 61.4529C55.0135 61.1157 55.021 60.7786 55.021 60.4414C55.0285 59.767 55.021 59.0927 54.9985 58.4183L54.9536 57.4068L54.8861 56.3952L54.7962 55.3837L54.6838 54.3796C54.6014 53.7128 54.504 53.0384 54.3916 52.379C54.3541 52.1543 54.3017 51.937 54.2642 51.7122V52.4165C54.2642 53.0984 54.2717 53.7802 54.2642 54.4621L54.1443 56.5001C54.1218 57.182 54.0319 57.8563 53.9495 58.5382L53.8296 59.5497L53.7697 60.0593L53.6873 60.5613L53.3501 62.5769C53.2152 63.2437 53.0579 63.9106 52.9155 64.57C52.7806 65.2368 52.5933 65.8962 52.421 66.5481L52.1587 67.5371C52.0688 67.8668 51.9639 68.189 51.8665 68.5112C51.6642 69.1631 51.4843 69.815 51.2521 70.4594C51.0273 71.1038 50.825 71.7482 50.5777 72.385C50.3304 73.0145 50.1057 73.6588 49.8359 74.2882C49.5737 74.9176 49.3264 75.547 49.0417 76.169C48.7719 76.7909 48.4872 77.4128 48.2025 78.0272L47.7679 78.9488C47.6255 79.256 47.4682 79.5557 47.3558 79.8779C47.4532 79.5557 47.5955 79.2485 47.7304 78.9338L48.1275 77.9972C48.3898 77.3753 48.6595 76.7459 48.9068 76.1165C49.169 75.4871 49.4013 74.8577 49.6411 74.2208C49.8884 73.5914 50.0907 72.947 50.3229 72.3026C50.5477 71.6657 50.7426 71.0138 50.9524 70.3695C51.1696 69.7251 51.3345 69.0732 51.5293 68.4213C51.6192 68.0916 51.7241 67.7694 51.799 67.4472L52.0388 66.4657C52.1962 65.8063 52.3685 65.1544 52.4959 64.4875C52.6233 63.8207 52.7731 63.1613 52.893 62.5019L53.2152 60.5013L53.2976 59.9993L53.3501 59.4973L53.4625 58.4932C53.5374 57.8189 53.6198 57.152 53.6423 56.4777L53.7472 54.4546C53.7547 53.7802 53.7397 53.1059 53.7397 52.4315L53.7322 51.42L53.6573 50.4084L53.6348 50.1462C53.0803 50.1537 52.2112 50.1612 51.1547 50.1836C51.1996 50.341 51.2446 50.4908 51.2895 50.6632C51.4244 51.1502 51.5293 51.7122 51.6267 52.3191C51.6642 52.6263 51.7091 52.9485 51.7541 53.2782C51.7766 53.6154 51.8065 53.96 51.8365 54.3122C51.8515 54.6644 51.859 55.0315 51.874 55.4062C51.874 55.7808 51.874 56.163 51.859 56.5526C51.829 57.3243 51.7841 58.1261 51.6941 58.9353C51.6492 59.3399 51.6042 59.7445 51.5443 60.1567C51.4918 60.5613 51.4244 60.9734 51.357 61.378C51.2146 62.1947 51.0498 63.004 50.8699 63.7907C50.6901 64.585 50.4878 65.3567 50.278 66.0985C50.0757 66.8478 49.8509 67.5596 49.6336 68.234C49.4163 68.9083 49.1915 69.5378 48.9817 70.1222C48.5546 71.2836 48.15 72.2277 47.8653 72.8871C47.5731 73.5464 47.3857 73.9136 47.3857 73.9136C47.3857 73.9136 47.5281 73.524 47.7679 72.8496C48.0076 72.1752 48.3223 71.1937 48.6895 70.0248C49.0492 68.8484 49.4463 67.4697 49.8284 65.9861C50.0232 65.2443 50.1956 64.4726 50.3679 63.6858C50.5327 62.8991 50.6976 62.0973 50.8325 61.2956C50.9074 60.891 50.9673 60.4938 51.0273 60.0892C51.0947 59.6846 51.1397 59.2875 51.1846 58.8904C51.2745 58.0961 51.3495 57.3094 51.3944 56.5451C51.4094 56.163 51.4244 55.7883 51.4394 55.4212C51.4394 55.054 51.4469 54.6943 51.4469 54.3422C51.4319 53.99 51.4244 53.6528 51.4094 53.3231C51.3869 52.9935 51.357 52.6788 51.3345 52.3716C51.2671 51.7646 51.1996 51.2027 51.1097 50.7156C51.0797 50.5283 51.0423 50.3635 51.0048 50.1986C50.0757 50.2211 49.0192 50.2511 47.8953 50.296C47.9627 50.6032 48.0376 50.9329 48.12 51.3001C48.18 51.6073 48.2324 51.9295 48.2999 52.2741C48.3598 52.6188 48.4198 52.9785 48.4647 53.3606C48.5097 53.7427 48.5696 54.1399 48.6071 54.552C48.637 54.9641 48.6745 55.3912 48.712 55.8333C48.727 56.2753 48.7494 56.7249 48.7644 57.1895C48.7794 57.654 48.7644 58.1261 48.7644 58.6056C48.7569 59.0852 48.727 59.5722 48.712 60.0667C48.682 60.5613 48.6445 61.0633 48.5996 61.5653C48.4947 62.5694 48.3673 63.5884 48.195 64.5999C48.1051 65.102 48.0151 65.6115 47.9027 66.106C47.8053 66.608 47.6855 67.1026 47.5656 67.5896C47.3258 68.5712 47.0561 69.5228 46.7638 70.4444C46.4791 71.366 46.1644 72.2352 45.8497 73.0594C45.535 73.8836 45.2128 74.6479 44.8981 75.3447C44.2762 76.7459 43.6693 77.8773 43.2422 78.6566C43.0249 79.0462 42.8451 79.3534 42.7252 79.5557C42.6053 79.758 42.5453 79.8779 42.5453 79.8779C42.5453 79.8779 42.5903 79.758 42.6952 79.5408C42.8001 79.3235 42.95 79.0088 43.1448 78.6041C43.5269 77.8024 44.0439 76.6335 44.6059 75.2174C44.8906 74.513 45.1678 73.7338 45.4601 72.9095C45.7448 72.0853 46.0295 71.2087 46.2993 70.2945C46.4416 69.8375 46.554 69.3729 46.6889 68.9009C46.8013 68.4288 46.9362 67.9493 47.0486 67.4622C47.161 66.9752 47.2733 66.4881 47.3708 65.9936C47.4757 65.4991 47.5656 64.9971 47.648 64.5025C47.8278 63.506 47.9552 62.5019 48.0676 61.5054C48.1125 61.0108 48.1575 60.5163 48.195 60.0293C48.2174 59.5422 48.2549 59.0627 48.2699 58.5832C48.2774 58.1111 48.2924 57.6391 48.2999 57.182C48.2924 56.7249 48.2924 56.2753 48.2849 55.8408C48.2624 55.4062 48.2474 54.9791 48.2249 54.5745C48.2025 54.1624 48.165 53.7727 48.135 53.3906C48.1125 53.0084 48.0601 52.6488 48.0226 52.3041C47.9777 51.9594 47.9477 51.6298 47.9027 51.3225C47.8428 50.9479 47.7904 50.6107 47.7379 50.296C47.2584 50.3185 46.7788 50.341 46.2843 50.3635C46.2918 50.3934 46.2993 50.4084 46.3143 50.4384C46.4566 50.8355 46.5765 51.3001 46.6889 51.8021C46.7414 52.0569 46.7938 52.3191 46.8463 52.5963C46.8837 52.8736 46.9287 53.1583 46.9736 53.458C47.0036 53.7577 47.0336 54.0575 47.0635 54.3722C47.086 54.6869 47.101 55.0016 47.116 55.3237C47.131 55.9756 47.146 56.6425 47.116 57.3243C47.086 58.0062 47.0411 58.6955 46.9736 59.3849C46.9062 60.0742 46.8088 60.7561 46.7039 61.4304C46.599 62.1048 46.4716 62.7567 46.3442 63.3936C46.2168 64.0305 46.067 64.6374 45.9246 65.2069C45.7823 65.7838 45.6324 66.3233 45.4825 66.8178C45.1903 67.8069 44.9056 68.6161 44.7033 69.1856C44.501 69.7476 44.3586 70.0697 44.3586 70.0697C44.3586 70.0697 44.4485 69.7401 44.5984 69.1556C44.7557 68.5787 44.9506 67.7395 45.1753 66.7429C45.4001 65.7389 45.6399 64.57 45.8647 63.3112C45.9771 62.6818 46.0745 62.0299 46.1794 61.363C46.2693 60.6961 46.3592 60.0218 46.4266 59.3399C46.5016 58.6656 46.554 57.9837 46.584 57.3169C46.614 56.65 46.6364 55.9906 46.6364 55.3537C46.629 55.0315 46.6215 54.7243 46.614 54.4171C46.599 54.1099 46.584 53.8102 46.5615 53.518C46.5315 53.2257 46.5091 52.941 46.4791 52.6713C46.4416 52.4015 46.4117 52.1318 46.3742 51.8845C46.2843 51.3825 46.2094 50.9179 46.1119 50.5133C46.1045 50.4684 46.0895 50.4384 46.082 50.3934C45.4151 50.4309 44.7482 50.4684 44.0814 50.5208C44.1113 50.6707 44.1338 50.8205 44.1638 50.9929C44.1863 51.1127 44.2088 51.2401 44.2312 51.3675C44.2462 51.5024 44.2612 51.6373 44.2762 51.7796C44.3361 52.3416 44.4036 52.9785 44.471 53.6753C44.501 54.3722 44.5309 55.1289 44.5609 55.9307C44.5684 56.7324 44.5459 57.5791 44.5309 58.4483C44.486 59.3175 44.4335 60.2241 44.3661 61.1382C44.2687 62.0524 44.1938 62.9815 44.0664 63.9031C43.9315 64.8247 43.8191 65.7538 43.6543 66.653C43.5794 67.1026 43.4969 67.5521 43.422 67.9942C43.3321 68.4363 43.2497 68.8709 43.1672 69.298C43.0099 70.1597 42.8076 70.9764 42.6352 71.7556C42.4554 72.5349 42.2681 73.2692 42.0883 73.9436C41.7286 75.2923 41.3839 76.4012 41.1367 77.1805C41.0168 77.5701 40.8969 77.8698 40.8295 78.0721C40.7695 78.2445 40.7321 78.3494 40.7321 78.3494C40.7321 78.3494 40.762 78.237 40.8295 78.0272C40.8819 77.8174 40.9643 77.5102 41.0617 77.1131C41.1592 76.7159 41.279 76.2364 41.3989 75.6894C41.5263 75.1424 41.6537 74.513 41.811 73.8387C41.9534 73.1568 42.1033 72.4225 42.2606 71.6358C42.4105 70.849 42.5753 70.0323 42.7177 69.1706C42.7926 68.7435 42.8675 68.3089 42.95 67.8668C43.0174 67.4248 43.0923 66.9752 43.1598 66.5256C43.3171 65.6265 43.422 64.7048 43.5494 63.7907C43.6768 62.8766 43.7592 61.955 43.8641 61.0483C43.9315 60.1417 44.0139 59.25 44.0739 58.3808C44.1039 57.5117 44.1563 56.68 44.1788 55.8857C44.1788 55.0915 44.1863 54.3422 44.1863 53.6453C44.1488 52.956 44.1263 52.3191 44.1039 51.7496C44.0964 51.6073 44.0889 51.4724 44.0889 51.3375C44.0814 51.2027 44.0589 51.0828 44.0514 50.9554C44.0289 50.7831 44.0139 50.6332 43.999 50.4759C43.5269 50.5133 43.0623 50.5508 42.6053 50.5882C42.6502 50.858 42.6952 51.1502 42.7401 51.4799C42.7926 51.9894 42.845 52.5739 42.8975 53.2033C42.9724 53.8327 42.9649 54.522 42.9874 55.2488C43.0249 55.9756 43.0024 56.7474 42.9724 57.5416C42.9649 58.3359 42.905 59.1526 42.8376 59.9843C42.7926 60.816 42.6652 61.6552 42.5828 62.5019C42.4779 63.3411 42.3355 64.1803 42.2082 65.0046C42.1332 65.4167 42.0583 65.8213 41.9759 66.2259C41.9009 66.6305 41.826 67.0201 41.7361 67.4098C41.5713 68.189 41.3989 68.9308 41.2116 69.6352C41.0393 70.3395 40.8444 70.9989 40.6721 71.6133C40.3199 72.8346 39.9753 73.8312 39.7205 74.528C39.4733 75.2248 39.3009 75.6145 39.3009 75.6145C39.3009 75.6145 39.4283 75.2099 39.6156 74.498C39.7205 74.1459 39.8254 73.7113 39.9528 73.2093C40.0727 72.7072 40.2076 72.1453 40.3574 71.5309C40.4998 70.9164 40.6571 70.2496 40.7995 69.5377C40.9568 68.8334 41.0992 68.0841 41.2491 67.3049C41.4064 66.5331 41.5188 65.7239 41.6687 64.9146C41.7886 64.0979 41.9234 63.2662 42.0208 62.4345C42.1107 61.6028 42.2381 60.7711 42.2906 59.9394C42.358 59.1151 42.4479 58.3059 42.4704 57.5192C42.5079 56.7324 42.5603 55.9756 42.5528 55.2488C42.5603 54.8892 42.5603 54.537 42.5678 54.1998C42.5678 54.0275 42.5753 53.8626 42.5753 53.6978C42.5678 53.5329 42.5678 53.3756 42.5603 53.2182C42.5378 52.5888 42.5229 52.0119 42.5154 51.4949C42.4929 51.1652 42.4704 50.873 42.4479 50.5957C42.1707 50.6182 41.9009 50.6482 41.6387 50.6782C41.6612 50.828 41.6762 50.9779 41.6986 51.1352C41.7811 51.9445 41.811 52.8886 41.7661 53.8926C41.7436 54.3946 41.7136 54.9191 41.6612 55.4436C41.6087 55.9681 41.5488 56.5076 41.4739 57.0396C41.3989 57.5716 41.309 58.1036 41.2191 58.6206C41.1292 59.1376 41.0168 59.6471 40.9119 60.1417C40.6946 61.1232 40.4623 62.0374 40.2375 62.8091C40.0127 63.5809 39.7954 64.2178 39.6231 64.6524C39.5407 64.8697 39.4658 65.042 39.4058 65.1544C39.3534 65.2668 39.3009 65.3193 39.3009 65.3118C39.3084 65.3193 39.3459 65.2593 39.3833 65.1394C39.4208 65.0195 39.4658 64.8397 39.5257 64.6149C39.6381 64.1579 39.7805 63.506 39.9378 62.7267C40.0952 61.94 40.275 61.0258 40.4473 60.0443C40.5297 59.5497 40.6122 59.0477 40.7021 58.5307C40.7845 58.0137 40.8669 57.4892 40.9344 56.9647C41.0093 56.4402 41.0767 55.9157 41.1367 55.3912C41.1891 54.8742 41.2491 54.3572 41.2865 53.8626C41.369 52.8736 41.3989 51.9445 41.3839 51.1502C41.3839 50.9929 41.3764 50.8505 41.369 50.7081C39.6606 50.8955 38.1845 51.1502 37.2329 51.4799C37.2554 52.2292 37.4652 53.0909 37.5101 53.7278C37.5925 54.8142 37.6675 55.8932 37.7274 56.9797C37.8098 58.3958 37.8698 59.8195 37.9147 61.2431C37.8773 61.7377 37.8323 62.2322 37.7874 62.7417C37.7349 63.4011 37.6525 64.0754 37.5776 64.7423C37.4876 65.4092 37.4127 66.0835 37.3003 66.7354C37.2029 67.3948 37.083 68.0317 36.9631 68.6536C36.9032 68.9608 36.8283 69.268 36.7683 69.5602C36.7084 69.8599 36.6484 70.1522 36.566 70.4294C36.4236 70.9914 36.2963 71.5234 36.1464 72.0104C36.079 72.2502 36.0115 72.4899 35.9441 72.7072C35.8692 72.9245 35.8017 73.1343 35.7418 73.3291C35.6144 73.7188 35.502 74.0635 35.3896 74.3407C35.1798 74.8952 35.0674 75.2174 35.0674 75.2174C35.0674 75.2174 35.2248 74.9176 35.487 74.3856C35.6219 74.1234 35.7718 73.7937 35.9291 73.4116C36.0115 73.2168 36.1015 73.0144 36.1914 72.8046C36.2738 72.5874 36.3562 72.3551 36.4461 72.1153C36.5285 71.8755 36.6334 71.6283 36.7159 71.366C36.7983 71.1038 36.8807 70.8265 36.9631 70.5493C37.0531 70.2721 37.128 69.9798 37.2029 69.6801C37.2778 69.3804 37.3603 69.0807 37.4277 68.766C37.5626 68.1441 37.7124 67.4922 37.8098 66.8328C37.8848 66.4357 37.9447 66.0311 37.9972 65.6265C38.0046 67.1101 37.9972 68.5936 37.9747 70.0772C37.8398 70.6917 37.7049 71.2911 37.5401 71.868C37.3678 72.4525 37.2104 73.0219 37.0231 73.5464C36.8432 74.0784 36.6484 74.5655 36.4611 75.0225C36.2663 75.4721 36.0865 75.8767 35.9141 76.2364C35.7493 76.596 35.5844 76.9033 35.4496 77.1505C35.3147 77.4053 35.1948 77.6001 35.1199 77.7275C35.0375 77.8623 35 77.9373 35 77.9373C35 77.9373 35.0525 77.8698 35.1424 77.75C35.2323 77.6226 35.3746 77.4502 35.532 77.2105C35.6968 76.9707 35.8842 76.6785 36.094 76.3338C36.1989 76.1615 36.3038 75.9741 36.4162 75.7793C36.5285 75.5845 36.6334 75.3672 36.7458 75.1499C36.9631 74.7078 37.1954 74.2208 37.4052 73.6888C37.5925 73.2317 37.7649 72.7447 37.9297 72.2352C37.8698 74.1534 37.7799 76.0715 37.6525 77.9897C38.0196 77.9897 38.3868 77.8623 38.664 77.6301C38.5591 77.8549 38.4542 78.0721 38.3493 78.2819C38.2144 78.5442 38.0946 78.7915 37.9672 79.0237C37.7274 79.4808 37.5176 79.8554 37.3678 80.1177C37.2179 80.38 37.1355 80.5373 37.1355 80.5373C37.1355 80.5373 37.2554 80.4099 37.4577 80.1776C37.5551 80.0653 37.675 79.9229 37.8023 79.7506C37.9372 79.5857 38.0796 79.3909 38.2294 79.1811C38.3868 78.9713 38.5366 78.7315 38.694 78.4768C38.724 78.4318 38.7464 78.3868 38.7764 78.3419C38.7764 78.9488 38.7539 79.5482 38.7015 80.1477C38.9562 79.9529 39.211 79.7505 39.4658 79.5557C39.5032 79.9454 39.5407 80.3425 39.5782 80.7321C40.1101 80.5223 40.5972 80.1776 40.9643 79.7356C40.9194 80.365 40.9419 80.9944 41.0243 81.6163C41.5488 81.5488 42.0583 81.339 42.4779 81.0094C42.5678 81.3765 42.6577 81.7362 42.7551 82.1033C43.0698 81.9984 43.3845 81.8935 43.6992 81.7886C43.7592 81.9909 43.8266 82.1932 43.8866 82.3955C44.5235 82.5304 45.1978 82.4855 45.8197 82.2682C46.052 82.7702 46.8388 82.9051 47.2209 82.5004C48.6895 82.8002 50.2255 82.7927 51.6867 82.4705C52.0763 82.8826 52.7282 82.8451 53.2901 82.7852C54.4665 82.6503 55.6354 82.5154 56.8118 82.3806C57.0141 82.3581 57.2389 82.3356 57.4187 82.4255C57.5761 82.5079 57.6885 82.6578 57.8533 82.7177C58.1006 82.8002 58.3553 82.6503 58.5726 82.5004C58.9398 82.2457 59.3069 81.9909 59.6741 81.7362C60.5957 82.0659 61.4424 81.1218 61.9744 80.2975C62.1692 80.7471 62.8211 80.9194 63.2107 80.6272C63.1283 80.7621 63.0459 80.8895 62.9634 81.0094C62.7836 81.2866 62.6188 81.5414 62.4614 81.7661C62.3116 81.9909 62.1767 82.1857 62.0643 82.3431C61.8395 82.6653 61.7121 82.8451 61.7121 82.8451C61.7121 82.8451 61.8695 82.6878 62.1467 82.4105C62.2891 82.2757 62.4464 82.1033 62.6263 81.8935C62.7162 81.7886 62.8136 81.6837 62.9185 81.5638C63.0159 81.4439 63.1133 81.3166 63.2182 81.1892C63.2257 81.1817 63.2332 81.1742 63.2407 81.1667C63.2407 81.2042 63.2407 81.2491 63.2482 81.2866C66.7474 78.6791 68.8753 74.5655 69.9093 70.3245C70.1641 69.2755 70.3589 68.2115 70.5088 67.14C70.4863 67.3648 70.4638 67.5896 70.4413 67.8144C70.3514 68.6985 70.2241 69.5827 70.0892 70.4444C70.0143 70.879 69.9468 71.3061 69.8719 71.7257C69.7895 72.1528 69.7145 72.5649 69.6396 72.977C69.4748 73.7937 69.3099 74.588 69.1376 75.3297C68.9578 76.0715 68.7704 76.7684 68.5756 77.4053C68.3808 78.0422 68.171 78.6191 67.9762 79.1212C67.7814 79.6307 67.5791 80.0578 67.4142 80.4099C67.2419 80.7621 67.107 81.0318 67.0021 81.2192C66.9047 81.4065 66.8523 81.5039 66.8523 81.5039C66.8523 81.5039 66.9122 81.414 67.0321 81.2341C67.152 81.0618 67.3168 80.7996 67.5116 80.4624C67.7064 80.1177 67.9312 79.6981 68.1635 79.2036C68.3958 78.709 68.6431 78.1396 68.8753 77.5027C69.3399 76.2364 69.7595 74.7153 70.1191 73.0669C70.2915 72.2502 70.4713 71.396 70.6137 70.5193C70.771 69.6651 70.8984 68.7735 70.9958 67.8818Z" fill="#B39D6E"/>
<path d="M72.4944 61.1457C72.4569 60.3215 72.3894 59.5122 72.3295 58.733C72.1946 57.167 72.0448 55.7134 71.9024 54.4695C71.835 53.8476 71.7526 53.2707 71.6327 52.7686C71.5128 52.2666 71.3629 51.8395 71.1906 51.5098C71.1681 51.4649 71.1456 51.4349 71.1232 51.39C71.0857 51.375 71.0407 51.3675 71.0033 51.36C71.0332 51.4199 71.0632 51.4874 71.0932 51.5548C71.2355 51.8845 71.3554 52.3116 71.4304 52.8061C71.5053 53.3006 71.5428 53.8701 71.5877 54.4995C71.6626 55.7508 71.7526 57.2119 71.85 58.7704C71.8949 59.5497 71.9324 60.3589 71.9698 61.1757C71.9998 61.9924 72.0373 62.8241 72.0448 63.6633C72.0523 64.0829 72.0598 64.495 72.0598 64.9071C72.0598 65.3192 72.0673 65.7313 72.0448 66.1434C72.0298 66.5556 72.0298 66.9602 72.0148 67.3573C71.9923 67.7544 71.9773 68.1515 71.9549 68.5412C71.8874 69.3204 71.8425 70.0697 71.7526 70.7815C71.7301 70.9614 71.7151 71.1337 71.6926 71.306C71.6701 71.4784 71.6402 71.6432 71.6177 71.8156C71.5727 72.1452 71.5278 72.4674 71.4828 72.7821C71.4304 73.0894 71.3704 73.3816 71.3255 73.6663C71.2805 73.951 71.2281 74.2133 71.1681 74.4606C71.0557 74.9551 70.9733 75.3897 70.8684 75.7418C70.6811 76.4462 70.5762 76.8508 70.5762 76.8508C70.5762 76.8508 70.726 76.4612 70.9733 75.7718C71.1007 75.4271 71.2131 75 71.3629 74.5055C71.5203 74.0185 71.6402 73.4565 71.79 72.8421C71.9099 72.2277 72.0598 71.5533 72.1572 70.8415C72.2696 70.1297 72.352 69.3729 72.4344 68.5861C72.4869 67.7994 72.5543 66.9901 72.5693 66.1584C72.5918 65.7463 72.5843 65.3267 72.5918 64.9071C72.5992 64.4875 72.5993 64.0679 72.5843 63.6483C72.5693 62.8091 72.5318 61.9699 72.4944 61.1457Z" fill="#B39D6E"/>
<path d="M37.2404 51.2102C38.2295 50.888 39.6906 50.6407 41.354 50.4534C41.4364 50.4459 41.5188 50.4309 41.6013 50.4234C41.871 50.3934 42.1482 50.3635 42.433 50.341C42.4704 50.341 42.5079 50.3335 42.5529 50.3335C43.0174 50.2885 43.482 50.2511 43.9615 50.2136C43.9915 50.2136 44.029 50.2061 44.0589 50.2061C44.7183 50.1612 45.3777 50.1162 46.037 50.0787C46.097 50.0787 46.1494 50.0712 46.2094 50.0712C46.7189 50.0413 47.2209 50.0188 47.708 49.9963C47.7529 49.9963 47.7904 49.9963 47.8353 49.9888C48.9593 49.9439 50.0158 49.9139 50.9449 49.8914C50.9898 49.8914 51.0423 49.8914 51.0947 49.8914C52.1737 49.8689 53.0579 49.8539 53.6348 49.8539C53.7322 49.8539 53.8147 49.8539 53.8896 49.8539C54.002 49.8539 54.0994 49.8539 54.1668 49.8539C54.2418 49.8539 54.3092 49.8539 54.3317 49.8539C54.3542 49.8539 54.3916 49.8539 54.4441 49.8539C54.9686 49.8539 57.0141 49.8689 59.5542 49.9514C59.5917 49.9514 59.6291 49.9514 59.6666 49.9588C61.0977 50.0113 62.6713 50.0787 64.2223 50.1911C64.2523 50.1911 64.2822 50.1986 64.3122 50.1986C64.5819 50.2211 64.8592 50.2361 65.1289 50.2586C65.1589 50.2586 65.1889 50.2661 65.2188 50.2661C66.3278 50.356 67.4068 50.4684 68.3808 50.5957C68.4483 50.6032 68.5082 50.6182 68.5756 50.6257C68.5981 50.6257 68.6206 50.6332 68.6431 50.6332C68.7105 50.6407 68.778 50.6557 68.8454 50.6632C69.6172 50.7831 70.3065 50.9104 70.8835 51.0678C71.4529 51.2177 71.9175 51.3825 72.2397 51.5698C72.4495 51.1277 73.0714 49.6142 72.367 48.2505C71.6552 46.8793 69.8494 46.0401 66.9946 45.7628C62.8661 45.3582 59.6966 45.1859 57.5686 45.1184C55.4556 45.051 54.3542 45.081 54.3317 45.081C54.3092 45.081 53.2002 45.051 51.0873 45.1184C48.9518 45.1859 45.7823 45.3582 41.6537 45.7628C38.7989 46.0401 36.9931 46.8793 36.2813 48.2505C35.577 49.6142 36.1914 51.1277 36.4087 51.5698C36.6335 51.4275 36.9182 51.3151 37.2404 51.2102Z" fill="#B39D6E"/>
</svg>
