<svg width="108" height="108" viewBox="0 0 108 108" fill="none" xmlns="http://www.w3.org/2000/svg">
<rect x="1" y="1" width="106" height="106" stroke="#B39D6E" stroke-width="2"/>
<path d="M71.8 25.4301C71.39 25.4301 71.05 25.0901 71.05 24.6801C71.05 24.2701 71.39 23.9301 71.8 23.9301C72.21 23.9301 72.55 24.2701 72.55 24.6801C72.55 25.0901 72.21 25.4301 71.8 25.4301Z" fill="#B39D6E"/>
<path d="M19.43 37.11C19.43 25.45 28.88 16 40.53 16L86.63 16.06C87.94 16.06 89 19.71 89 24.22C89 28.73 87.94 32.38 86.63 32.38L67.18 34.07C67.31 34.02 67.46 33.93 67.61 33.77C67.99 33.37 68.36 32.66 68.65 31.78C68.94 30.9 69.17 29.84 69.33 28.69C69.4 28.12 69.47 27.52 69.5 26.92C69.54 26.32 69.56 25.69 69.56 25.09C69.56 24.47 69.54 23.86 69.5 23.25C69.47 22.74 69.41 22.25 69.35 21.77H85.47C85.49 22.07 85.52 22.36 85.54 22.67C85.56 23.23 85.57 23.79 85.57 24.35C85.57 24.92 85.56 25.47 85.53 26.02C85.5 26.57 85.47 27.11 85.41 27.63C85.3 28.67 85.14 29.63 84.94 30.44C84.73 31.24 84.46 31.89 84.15 32.26C84 32.44 83.84 32.55 83.72 32.6C83.6 32.65 83.52 32.64 83.53 32.65C83.53 32.64 83.6 32.66 83.73 32.64C83.86 32.62 84.06 32.53 84.25 32.36C84.64 32.02 85.01 31.37 85.31 30.56C85.61 29.74 85.84 28.76 86 27.7C86.07 27.17 86.14 26.62 86.18 26.06C86.21 25.5 86.23 24.91 86.24 24.35C86.24 23.77 86.22 23.21 86.18 22.64C86.14 22.08 86.07 21.53 86 21C85.84 19.94 85.61 18.96 85.31 18.15C85.01 17.34 84.64 16.69 84.25 16.35C84.06 16.18 83.87 16.1 83.73 16.07C83.6 16.04 83.53 16.06 83.53 16.06C83.53 16.07 83.61 16.06 83.73 16.11C83.85 16.15 84 16.26 84.16 16.44C84.46 16.8 84.72 17.44 84.93 18.21H68.58C68.3 17.42 67.97 16.78 67.61 16.41C67.42 16.21 67.22 16.1 67.08 16.07C66.94 16.03 66.86 16.06 66.86 16.05C66.86 16.06 66.94 16.05 67.07 16.11C67.2 16.16 67.36 16.29 67.51 16.5C67.81 16.92 68.08 17.63 68.28 18.51C68.48 19.39 68.64 20.43 68.74 21.56C68.8 22.12 68.82 22.71 68.85 23.3C68.88 23.89 68.89 24.5 68.89 25.1C68.89 25.71 68.88 26.31 68.85 26.9C68.82 27.49 68.79 28.08 68.73 28.64C68.63 29.77 68.47 30.81 68.27 31.69C68.06 32.57 67.8 33.28 67.5 33.7C67.35 33.91 67.19 34.04 67.06 34.09L65.54 34.22C65.54 34.22 65.33 34.25 65.01 34.35C65.08 34.29 65.15 34.24 65.23 34.16C65.61 33.74 65.96 33.01 66.25 32.11C66.39 31.66 66.53 31.17 66.64 30.64C66.75 30.11 66.86 29.55 66.93 28.97C67.09 27.8 67.17 26.55 67.19 25.3C67.19 24.05 67.13 22.79 66.97 21.62C66.82 20.45 66.59 19.37 66.3 18.47C66.01 17.57 65.64 16.85 65.25 16.44C65.06 16.23 64.85 16.12 64.71 16.09C64.56 16.05 64.49 16.07 64.49 16.07C64.49 16.07 64.57 16.07 64.7 16.13C64.83 16.19 65 16.32 65.15 16.53C65.42 16.9 65.65 17.5 65.84 18.23H39.1C39.1 18.23 31.45 19.13 29.23 23.24C29.23 23.24 32.53 21.92 39.1 21.8C45.1 21.69 63.28 21.78 66.4 21.8C66.49 22.86 66.53 23.97 66.53 25.1C64.72 25.01 55.98 24.76 52.72 28.68C52.57 28.86 52.45 29.01 52.32 29.17C49.77 25.4 45.45 22.92 40.56 22.92C32.72 22.92 26.36 29.28 26.36 37.12C26.36 44.96 32.72 51.32 40.56 51.32C48.4 51.32 54.76 44.96 54.76 37.12C54.76 35.95 54.6 34.83 54.34 33.74C55.09 32.02 57.76 28.15 66.47 27.54C66.44 28 66.41 28.46 66.37 28.91C66.26 30.06 66.1 31.12 65.9 32.02C65.7 32.92 65.44 33.65 65.15 34.09C65.03 34.26 64.91 34.37 64.8 34.44C64.71 34.47 64.61 34.51 64.51 34.56H64.5H64.51C63.41 35.05 61.81 36.26 61.57 39.19C61.57 39.23 61.56 39.28 61.56 39.32C61.56 39.33 61.56 39.33 61.56 39.34C60.73 47.3 55.47 53.95 48.29 56.77C48.36 57.7 48.1 58.68 46.79 58.89C44.12 59.33 44.46 61.89 44.46 61.89C45.57 66.89 46.57 80.66 45.24 86C43.91 91.33 40.57 91 40.57 91C40.57 91 37.24 91.33 35.9 86C34.57 80.67 35.57 66.89 36.68 61.89C36.68 61.89 37.01 59.33 34.35 58.89C33.03 58.67 32.77 57.68 32.85 56.75C24.98 53.65 19.43 46.03 19.43 37.11ZM71.8 23.6C71.2 23.6 70.72 24.09 70.72 24.68C70.72 25.28 71.21 25.76 71.8 25.76C72.4 25.76 72.88 25.27 72.88 24.68C72.88 24.09 72.39 23.6 71.8 23.6ZM76.74 31.18C73 31.42 69.99 32 69.99 32C69.99 32 73.05 32.17 76.78 31.93C80.52 31.68 83.52 31.11 83.52 31.11C83.52 31.11 80.47 30.93 76.74 31.18ZM52.36 52.3C54.07 51.06 55.69 49.32 56.95 47.22C58.21 45.13 59 42.91 59.44 40.85C59.66 39.82 59.8 38.83 59.87 37.9C59.89 37.67 59.9 37.44 59.9 37.21C59.91 36.99 59.93 36.78 59.94 36.57C59.95 36.36 59.99 36.16 60.03 35.97C60.07 35.77 60.1 35.58 60.17 35.41C60.39 34.69 60.78 34.1 61.22 33.69C61.67 33.28 62.15 33.04 62.56 32.9C62.97 32.76 63.31 32.7 63.53 32.67C63.76 32.64 63.88 32.64 63.88 32.64C63.88 32.64 63.76 32.63 63.53 32.64C63.3 32.65 62.95 32.68 62.52 32.79C62.09 32.9 61.57 33.11 61.06 33.51C60.55 33.91 60.09 34.52 59.81 35.28C59.72 35.47 59.67 35.67 59.62 35.88C59.56 36.09 59.51 36.3 59.49 36.52C59.46 36.74 59.43 36.97 59.41 37.19C59.39 37.41 59.37 37.63 59.34 37.86C59.24 38.77 59.06 39.73 58.81 40.72C58.31 42.7 57.51 44.83 56.3 46.84C55.09 48.85 53.58 50.55 51.97 51.8C50.37 53.07 48.71 53.92 47.28 54.51C46.93 54.65 46.6 54.77 46.29 54.88C45.27 55.23 44.4 55.44 43.76 55.61C42.9 55.79 42.42 55.88 42.42 55.88C42.42 55.88 42.9 55.82 43.78 55.72C44.63 55.58 45.88 55.37 47.36 54.88C47.38 54.87 47.4 54.87 47.42 54.86C48.91 54.35 50.66 53.56 52.36 52.3ZM45 58.99C45 58.99 44.53 58.97 43.78 58.97C43.03 58.96 42 58.97 40.87 59C39.74 59.04 38.73 59.08 37.99 59.07C37.62 59.05 37.32 59.05 37.11 59.02C36.9 59 36.78 58.99 36.78 58.99C36.78 58.99 36.89 59.04 37.08 59.13C37.27 59.23 37.57 59.32 37.94 59.43C38.68 59.64 39.74 59.78 40.9 59.74C42.06 59.71 43.09 59.51 43.83 59.33C44.56 59.16 45 58.99 45 58.99ZM36.43 72.96C36.25 75.22 36.12 77.71 36.26 80.35C36.33 81.67 36.47 82.96 36.74 84.19C36.88 84.81 37.05 85.41 37.28 85.99C37.52 86.57 37.81 87.13 38.26 87.6C38.37 87.72 38.49 87.82 38.62 87.93C38.76 88.02 38.89 88.12 39.03 88.18C39.16 88.25 39.3 88.32 39.45 88.37C39.52 88.4 39.59 88.43 39.67 88.45L39.9 88.5C40.05 88.54 40.21 88.54 40.37 88.55C40.53 88.54 40.69 88.53 40.84 88.49C41.15 88.42 41.42 88.28 41.66 88.12C42.13 87.78 42.44 87.35 42.69 86.93C42.94 86.51 43.13 86.08 43.28 85.67C43.58 84.85 43.76 84.09 43.88 83.41C44 82.74 44.07 82.15 44.11 81.67C44.19 80.71 44.12 80.18 44.12 80.18C44.12 80.18 44.12 80.71 43.96 81.65C43.88 82.12 43.76 82.69 43.58 83.34C43.4 83.99 43.17 84.72 42.82 85.48C42.65 85.86 42.44 86.24 42.19 86.61C41.94 86.97 41.64 87.32 41.28 87.55C40.91 87.77 40.5 87.87 40.07 87.75L39.91 87.71L39.75 87.64C39.64 87.6 39.54 87.54 39.43 87.47C39.22 87.35 39.05 87.21 38.89 87.02C38.25 86.27 37.91 85.14 37.68 83.98C37.45 82.81 37.33 81.56 37.26 80.28C37.13 77.71 37.19 75.24 37.28 73C37.37 70.75 37.51 68.73 37.64 67.03C37.9 63.63 38.12 61.53 38.12 61.53C38.12 61.53 37.65 63.59 37.15 66.98C36.88 68.68 36.62 70.71 36.43 72.96ZM27.47 51.37C27.71 51.6 28.04 51.97 28.51 52.35C29.42 53.14 30.81 54.12 32.54 54.82C32.77 54.92 33 54.99 33.23 55.07C34.7 55.59 36.09 55.85 37.13 55.91C38.34 56 39.08 55.89 39.08 55.89C39.08 55.89 38.34 55.81 37.18 55.54C36.53 55.39 35.73 55.17 34.88 54.89C34.22 54.67 33.53 54.42 32.82 54.13C31.16 53.46 29.73 52.68 28.73 52.05C28.21 51.76 27.83 51.47 27.54 51.29C27.26 51.11 27.1 51.01 27.1 51.01C27.1 51.01 27.24 51.13 27.47 51.37ZM27.56 22.44C27.56 22.44 26.55 23.31 25.24 25.03C24.59 25.89 23.86 26.96 23.2 28.23C22.53 29.49 21.91 30.96 21.49 32.57C21.05 34.17 20.88 35.76 20.88 37.2C20.88 38.64 21.08 39.92 21.31 40.98C21.57 42.03 21.85 42.86 22.08 43.41C22.31 43.96 22.44 44.27 22.44 44.27C22.44 44.27 22.35 43.95 22.19 43.38C22.03 42.8 21.84 41.96 21.68 40.92C21.54 39.87 21.45 38.61 21.51 37.22C21.58 35.83 21.79 34.31 22.21 32.77C23.02 29.66 24.42 27.05 25.54 25.26C26.68 23.44 27.56 22.44 27.56 22.44Z" fill="#B39D6E"/>
<path d="M53.04 37.11C53.04 38.72 51.66 39.24 49.69 39.41C49.46 40.32 49.1 41.18 48.63 41.96C48.91 42.29 49.16 42.61 49.36 42.93C50.15 44.16 50.16 45.18 49.37 45.96C48.98 46.35 48.53 46.54 48.03 46.54C47.52 46.54 46.96 46.34 46.34 45.94C46.03 45.74 45.7 45.49 45.37 45.21C44.59 45.68 43.73 46.04 42.82 46.27C42.65 48.24 42.13 49.62 40.52 49.62C38.91 49.62 38.39 48.24 38.22 46.27C37.31 46.04 36.45 45.68 35.67 45.21C35.34 45.49 35.02 45.74 34.7 45.94C34.08 46.34 33.52 46.54 33.01 46.54C32.51 46.54 32.06 46.35 31.67 45.96C30.53 44.82 31.14 43.48 32.42 41.97C31.95 41.19 31.59 40.33 31.36 39.42C29.39 39.25 28.01 38.73 28.01 37.12C28.01 35.51 29.39 34.99 31.36 34.82C31.59 33.91 31.95 33.05 32.42 32.27C31.14 30.76 30.54 29.41 31.67 28.28C32.81 27.14 34.15 27.75 35.67 29.02C36.45 28.55 37.31 28.19 38.22 27.96C38.39 25.99 38.91 24.61 40.52 24.61C42.13 24.61 42.65 25.99 42.82 27.96C43.73 28.19 44.59 28.55 45.37 29.02C45.7 28.74 46.02 28.49 46.34 28.29C47.57 27.5 48.59 27.49 49.37 28.28C50.15 29.06 50.15 30.08 49.36 31.31C49.16 31.62 48.91 31.95 48.63 32.28C49.1 33.06 49.46 33.92 49.69 34.83C51.66 34.98 53.04 35.5 53.04 37.11ZM48.64 39.46C47.97 39.48 47.27 39.48 46.54 39.48C46.44 39.48 46.35 39.47 46.26 39.47C46.33 39.53 46.4 39.6 46.47 39.66C47 40.19 47.49 40.69 47.94 41.16C48.23 40.63 48.47 40.06 48.64 39.46ZM44.6 44.5C44.13 44.05 43.63 43.56 43.1 43.03C43.03 42.96 42.97 42.89 42.91 42.82C42.91 42.91 42.92 43.01 42.92 43.1C42.92 43.83 42.92 44.54 42.9 45.2C43.49 45.04 44.06 44.8 44.6 44.5ZM43.8 42.33C44.38 42.91 44.94 43.47 45.47 43.95C46.2 43.42 46.85 42.77 47.38 42.04C46.89 41.51 46.33 40.95 45.76 40.37C45.36 39.97 44.94 39.63 44.51 39.33C44.1 40.05 43.5 40.66 42.78 41.06C43.06 41.5 43.41 41.93 43.8 42.33ZM39.19 45.44C39.63 45.51 40.08 45.55 40.53 45.55C40.99 45.55 41.44 45.51 41.87 45.44C41.9 44.76 41.91 43.98 41.91 43.11C41.91 42.55 41.85 42 41.76 41.49C41.37 41.6 40.96 41.66 40.53 41.66C40.1 41.66 39.69 41.6 39.3 41.49C39.21 42.01 39.15 42.55 39.15 43.11C39.15 43.98 39.16 44.76 39.19 45.44ZM38.18 45.21C38.16 44.54 38.16 43.84 38.16 43.11C38.16 43.01 38.17 42.92 38.17 42.83C38.11 42.9 38.04 42.97 37.98 43.04C37.45 43.57 36.95 44.06 36.48 44.51C37.01 44.8 37.58 45.04 38.18 45.21ZM33.14 41.17C33.59 40.68 34.09 40.18 34.61 39.67C34.68 39.6 34.75 39.54 34.82 39.48C34.73 39.48 34.63 39.49 34.54 39.49C33.81 39.49 33.1 39.49 32.44 39.47C32.6 40.06 32.84 40.63 33.14 41.17ZM32.09 37.11C32.09 37.57 32.13 38.02 32.2 38.45C32.88 38.48 33.66 38.49 34.53 38.49C35.09 38.49 35.64 38.43 36.15 38.34C36.04 37.95 35.98 37.54 35.98 37.11C35.98 36.68 36.04 36.27 36.15 35.88C35.63 35.79 35.09 35.73 34.53 35.73C33.66 35.73 32.88 35.74 32.2 35.77C32.13 36.2 32.09 36.65 32.09 37.11ZM32.43 34.75C33.1 34.73 33.8 34.73 34.53 34.73C34.63 34.73 34.72 34.74 34.81 34.74C34.74 34.68 34.67 34.61 34.6 34.55C34.08 34.03 33.58 33.53 33.13 33.05C32.84 33.58 32.6 34.15 32.43 34.75ZM36.47 29.71C36.96 30.16 37.46 30.66 37.97 31.18C38.04 31.25 38.1 31.32 38.16 31.39C38.16 31.3 38.15 31.2 38.15 31.11C38.15 30.38 38.15 29.67 38.17 29.01C37.58 29.18 37.01 29.41 36.47 29.71ZM37.26 31.89C36.65 31.28 36.09 30.73 35.59 30.27C34.86 30.8 34.22 31.44 33.69 32.17C34.18 32.7 34.74 33.26 35.31 33.84C35.71 34.24 36.13 34.58 36.56 34.88C36.97 34.16 37.57 33.55 38.29 33.15C38 32.71 37.66 32.28 37.26 31.89ZM36.57 39.34C36.14 39.64 35.71 39.98 35.32 40.38C34.74 40.96 34.18 41.52 33.7 42.05C34.23 42.78 34.87 43.43 35.61 43.96C36.14 43.47 36.7 42.91 37.28 42.34C37.68 41.94 38.02 41.52 38.32 41.09C37.58 40.66 36.98 40.06 36.57 39.34ZM41.88 28.77C41.44 28.7 40.99 28.66 40.54 28.66C40.08 28.66 39.63 28.7 39.2 28.77C39.17 29.45 39.16 30.23 39.16 31.1C39.16 31.66 39.22 32.21 39.31 32.72C39.7 32.61 40.11 32.55 40.54 32.55C40.97 32.55 41.38 32.61 41.77 32.72C41.86 32.21 41.92 31.66 41.92 31.1C41.91 30.24 41.91 29.45 41.88 28.77ZM40.53 35.66C39.73 35.66 39.09 36.31 39.09 37.1C39.09 37.9 39.74 38.54 40.53 38.54C41.33 38.54 41.97 37.89 41.97 37.1C41.98 36.31 41.33 35.66 40.53 35.66ZM42.89 29C42.91 29.67 42.91 30.37 42.91 31.1C42.91 31.2 42.9 31.29 42.9 31.38C42.96 31.31 43.03 31.24 43.09 31.17C43.62 30.64 44.12 30.15 44.59 29.7C44.06 29.41 43.49 29.18 42.89 29ZM45.47 30.26C44.94 30.75 44.38 31.31 43.8 31.88C43.4 32.28 43.06 32.7 42.76 33.13C43.48 33.54 44.09 34.14 44.49 34.87C44.92 34.57 45.35 34.23 45.74 33.83C46.32 33.25 46.88 32.69 47.36 32.16C46.85 31.44 46.2 30.79 45.47 30.26ZM47.93 33.04C47.48 33.51 46.99 34.01 46.46 34.54C46.39 34.61 46.32 34.67 46.25 34.73C46.34 34.73 46.44 34.72 46.53 34.72C47.26 34.72 47.97 34.72 48.63 34.74C48.47 34.15 48.23 33.58 47.93 33.04ZM48.87 35.76C48.19 35.73 47.41 35.72 46.54 35.72C45.98 35.72 45.43 35.78 44.92 35.87C45.03 36.26 45.09 36.67 45.09 37.1C45.09 37.53 45.03 37.94 44.92 38.33C45.44 38.42 45.98 38.48 46.54 38.48C47.41 38.48 48.19 38.47 48.87 38.44C48.94 38 48.98 37.55 48.98 37.1C48.98 36.65 48.94 36.2 48.87 35.76Z" fill="#B39D6E"/>
</svg>
