<svg width="108" height="108" viewBox="0 0 108 108" fill="none" xmlns="http://www.w3.org/2000/svg">
<rect x="1" y="1" width="106" height="106" stroke="#B39D6E" stroke-width="2"/>
<path d="M58.8739 54.5836C59.0832 54.0873 59.3164 53.561 59.5915 53.0049C59.6273 53.0169 59.6513 53.0229 59.6871 53.0288C59.717 53.0348 59.7529 53.0468 59.7828 53.0528C59.8725 53.0767 59.9562 53.0946 60.022 53.1066C60.1715 53.1365 60.327 53.1126 60.4525 53.0288C62.1329 51.9884 63.58 50.4217 65.0031 49.0762C66.0795 48.0597 67.1439 47.0311 68.1963 45.9907C68.7225 45.4704 69.171 44.7947 69.8467 44.4539C70.2833 44.2326 70.6959 44.4419 71.1085 44.5735C71.3776 44.6572 71.6466 44.699 71.9277 44.5735C73.1535 44.0114 71.8799 42.9769 72.1908 42.0919C72.3642 41.5956 72.9203 41.2667 73.2672 40.9079C73.6379 40.5252 74.0146 40.1425 74.3854 39.7538C77.9912 35.9865 79.803 32.2791 77.2796 28.8407C74.7561 25.4024 68.0528 27.6747 66.6177 28.5358C65.1825 29.4028 62.5694 31.2326 63.3826 33.9773C64.1959 36.7221 64.2317 41.177 64.2317 41.177C63.556 45.2731 59.1549 49.8656 57.8095 51.1931C57.7198 51.2828 57.672 51.4023 57.648 51.5219C57.6421 51.5698 57.6301 51.6176 57.6361 51.6655C57.6361 51.7013 57.648 51.7372 57.66 51.7731C56.9723 52.4069 55.7106 53.579 54.0841 55.0978C54.8615 55.1576 56.5358 55.1517 58.8739 54.5836ZM65.1706 32.7515C65.9719 30.0187 68.6926 28.8886 69.7869 28.6853C70.8812 28.4819 74.6485 27.3099 76.5201 30.1922C78.3918 33.0744 75.3959 37.2662 72.5257 39.3711C69.6554 41.476 66.6595 38.3725 66.6595 38.3725C66.6595 38.3725 64.3693 35.4842 65.1706 32.7515Z" fill="#B39D6E"/>
<path d="M95.3145 39.2395C93.4788 38.4084 90.441 38.3187 88.091 39.4907C88.091 39.4907 87.5229 39.706 86.6738 39.6462C83.666 37.2842 79.9525 38.6296 75.982 41.5657C71.9457 44.5496 62.5574 51.8568 61.0505 53.7165C60.9907 53.7943 60.9549 53.878 60.9369 53.9737C60.925 54.0275 60.913 54.0813 60.919 54.1351C60.919 54.1471 60.925 54.165 60.925 54.183C60.9309 54.2427 60.9369 54.3025 60.9429 54.3743C60.2194 54.6195 59.5496 54.8108 58.9217 54.9663C58.8859 54.9783 58.844 54.9842 58.8081 54.9962C58.7723 55.0022 58.7304 55.0141 58.6945 55.0261C56.0216 55.648 54.2635 55.5284 53.7134 55.4626C53.6775 55.4566 53.6416 55.4566 53.6177 55.4507C51.8357 57.107 49.7189 59.0923 47.4944 61.2151L47.4885 61.2092L47.4167 61.1374L47.3689 61.0896L47.2313 60.952L38.6683 52.389C38.4889 52.2096 38.2258 52.1857 38.0165 52.2993L30.7631 45.0519C30.8109 45.2731 30.7631 45.5123 30.5897 45.6797L30.1532 46.1163L28.5685 47.7009L28.132 48.1374C27.9586 48.3108 27.7254 48.3587 27.5041 48.3108L34.7576 55.5643C34.6439 55.7736 34.6679 56.0427 34.8473 56.2161L43.3325 64.7013L43.4701 64.8389L43.5119 64.8807L43.5837 64.9525L43.5956 64.9644C39.4277 69.0187 35.2658 73.1866 32.3776 76.3559C30.2847 78.6521 28.8555 80.4341 28.5685 81.2653C30.494 80.8228 38.4531 74.7772 46.747 68.1277L46.8785 68.2593L46.9264 68.3071L46.9981 68.3789L47.022 68.4028L47.0699 68.4506L60.1416 81.5224C60.3569 81.7377 60.7157 81.7377 60.9309 81.5224L63.9746 78.4787C64.1899 78.2634 64.1899 77.9046 63.9746 77.6894L51.3035 65.0242L51.2497 64.9704L51.2318 64.9525L51.16 64.8807L51.1062 64.8269L50.9806 64.7013C53.235 62.8656 55.4356 61.0537 57.4746 59.3614C57.5105 59.3315 57.5464 59.3016 57.5823 59.2717C57.6182 59.2418 57.654 59.2119 57.6899 59.182C59.0234 58.0758 60.2792 57.0233 61.4332 56.0546C61.4631 56.1084 61.493 56.1682 61.5289 56.222C61.5648 56.2759 61.5947 56.3297 61.6366 56.3835C61.6545 56.4074 61.6665 56.4313 61.6844 56.4553C61.8817 56.7243 62.2704 56.7662 62.5335 56.5629C64.0225 55.3909 69.1352 51.6117 73.2851 51.4562C73.2851 51.4562 77.6982 52.0482 80.3173 53.2023C82.9424 54.3564 85.0832 51.9944 86.1236 50.6788C86.901 49.6981 88.8205 45.907 88.4617 42.8214C88.8205 42.0022 89.5501 40.9438 90.9972 40.6687C93.4548 40.1963 95.3205 41.165 95.6494 40.9617C95.9723 40.7704 97.1503 40.0707 95.3145 39.2395ZM54.2874 58.602C54.7479 59.1222 54.7598 59.8876 54.3532 60.4198L52.4935 58.309C53.0735 57.9681 53.827 58.0758 54.2874 58.602ZM37.4903 52.5086C37.4903 52.5086 37.0717 53.1843 36.396 53.86C35.7203 54.5358 35.0446 54.9543 35.0446 54.9543C35.0446 54.9543 35.4632 54.2786 36.1389 53.6029C36.8206 52.9332 37.4903 52.5086 37.4903 52.5086ZM34.0759 53.2083C33.8128 53.4714 33.3882 53.4714 33.1251 53.2083L29.0768 49.16C28.8137 48.8968 28.8137 48.4723 29.0768 48.2092L29.5432 47.7428L30.195 47.091L30.6614 46.6245C30.9245 46.3614 31.3491 46.3614 31.6122 46.6245L35.6605 50.6728C35.9236 50.9359 35.9236 51.3605 35.6605 51.6236L34.0759 53.2083ZM44.2474 69.0965C41.9333 70.9322 39.6191 72.768 37.3109 74.6158C36.402 75.3393 35.4931 76.0688 34.5901 76.7984C33.4241 77.7372 32.2102 78.6043 30.9724 79.4474C30.482 79.7763 29.9977 80.1112 29.5073 80.44L30.1352 79.6447C30.1352 79.6447 38.5128 70.6691 44.2235 65.6043L45.5092 66.8899C45.1205 67.2009 44.7258 67.5178 44.3132 67.8527C43.8169 68.2533 43.3026 68.6719 42.7824 69.0965C42.2622 69.521 41.7359 69.9516 41.2097 70.3881C40.6835 70.8246 40.1573 71.2611 39.643 71.6857C39.1288 72.1162 38.6205 72.5408 38.1301 72.9534C37.1495 73.7786 36.2405 74.55 35.4692 75.2197C34.6918 75.8835 34.0519 76.4516 33.6035 76.8462C33.155 77.2409 32.9038 77.4681 32.9038 77.4681C32.9038 77.4681 33.1789 77.2648 33.6513 76.9C34.1237 76.5353 34.8054 76.021 35.6067 75.3872C36.414 74.7593 37.3468 74.0178 38.3454 73.2165C38.8417 72.8159 39.356 72.3973 39.8762 71.9787C40.3965 71.5541 40.9227 71.1236 41.4489 70.6931C41.9751 70.2565 42.5013 69.82 43.0156 69.3954C43.5299 68.9649 44.0381 68.5403 44.5225 68.1277C44.9351 67.7809 45.3298 67.4401 45.7125 67.1172L46.1789 67.5836C45.5331 68.0739 44.8932 68.5882 44.2474 69.0965ZM60.5841 80.47C59.9981 79.9138 59.2387 79.1903 58.3417 78.3292C57.4627 77.4801 56.4402 76.4994 55.316 75.4111C53.1034 73.2703 50.4843 70.705 47.6977 67.9364C47.6798 67.9184 47.6619 67.9005 47.6499 67.8885C47.6439 67.8826 47.638 67.8766 47.632 67.8706C47.6081 67.8467 47.5841 67.8228 47.5602 67.7989C47.5423 67.7809 47.5303 67.769 47.5124 67.757C47.4705 67.7151 47.4287 67.6733 47.3808 67.6254C47.1895 67.4401 47.0041 67.2487 46.8187 67.0633C46.6573 66.9019 46.4898 66.7345 46.3284 66.573C46.2626 66.5072 46.2028 66.4474 46.137 66.3816C45.6945 65.9391 45.258 65.5026 44.8334 65.0721C44.6301 64.8688 44.4268 64.6655 44.2295 64.4621C44.2116 64.4442 44.1936 64.4263 44.1757 64.4083C44.1697 64.4023 44.1697 64.4023 44.1637 64.3964C44.1398 64.3724 44.1159 64.3485 44.092 64.3246C44.08 64.3067 44.0621 64.2947 44.0441 64.2768C43.9963 64.2289 43.9544 64.1871 43.9066 64.1392C42.6807 62.9014 41.5266 61.7294 40.4682 60.6471C39.4397 59.5946 38.5069 58.6319 37.6817 57.7828C37.2332 57.3163 36.8146 56.8858 36.4319 56.4911C36.103 56.1503 35.7921 55.8274 35.523 55.5463C37.1674 53.9737 37.9866 53.1843 37.9866 53.1843C37.9866 53.1843 37.2332 53.9737 35.7323 55.5463C35.9834 55.7855 36.2704 56.0606 36.5754 56.3476C36.9701 56.7243 37.4006 57.1369 37.873 57.5854C38.7221 58.4047 39.6909 59.3435 40.7493 60.36C41.8376 61.4125 43.0156 62.5666 44.2594 63.7864C44.3072 63.8283 44.3491 63.8761 44.3969 63.924C44.4149 63.9359 44.4268 63.9539 44.4448 63.9718C44.4687 63.9957 44.4926 64.0196 44.5165 64.0436C44.5225 64.0495 44.5225 64.0495 44.5285 64.0555C44.5464 64.0735 44.5644 64.0914 44.5883 64.1093C44.7976 64.3186 45.0069 64.5219 45.2221 64.7372C45.6587 65.1678 46.1012 65.6103 46.5556 66.0528C46.6154 66.1126 46.6692 66.1664 46.729 66.2262C46.8965 66.3936 47.0639 66.561 47.2373 66.7285C47.4227 66.9138 47.6081 67.0992 47.7994 67.2846C47.8413 67.3265 47.8831 67.3683 47.931 67.4102C47.931 67.4102 47.931 67.4102 47.9369 67.4161C47.9549 67.4341 47.9668 67.446 47.9788 67.458C48.0027 67.4819 48.0266 67.5058 48.0506 67.5298C48.0565 67.5357 48.0625 67.5417 48.0685 67.5477C48.0864 67.5656 48.1044 67.5836 48.1223 67.6015C50.8909 70.3582 53.4443 72.9534 55.585 75.142C56.6734 76.2662 57.66 77.2827 58.5151 78.1558C59.3463 79.0229 60.0459 79.7524 60.5901 80.3145C61.6724 79.28 62.2166 78.7597 62.2226 78.7597C62.2106 78.7597 61.6665 79.3338 60.5841 80.47ZM62.2166 78.7538L50.1196 65.987L62.2166 78.7538ZM50.4245 64.1452L48.7263 62.447C49.5335 62.2616 50.8012 62.154 52.3321 62.6862C52.1287 62.6204 51.0763 63.5532 50.4245 64.1452ZM52.1347 60.4976C51.6743 59.9773 51.6623 59.2119 52.069 58.6797L53.9287 60.7906C53.3486 61.1254 52.5952 61.0178 52.1347 60.4976ZM77.0763 51.3007C77.0344 51.2648 76.9746 51.217 76.9148 51.1572C76.8491 51.1034 76.7653 51.0496 76.6816 50.9838C76.6398 50.9539 76.5919 50.918 76.5441 50.8821C76.4903 50.8522 76.4364 50.8163 76.3826 50.7865C76.269 50.7147 76.1494 50.6429 76.0119 50.5831C75.9461 50.5473 75.8744 50.5174 75.8026 50.4815C75.7249 50.4516 75.6531 50.4217 75.5694 50.3918C75.4139 50.326 75.2405 50.2782 75.0671 50.2244C74.7083 50.1347 74.3136 50.0509 73.8891 50.027C73.4645 49.9971 73.016 50.0091 72.5556 50.0569C72.0951 50.1107 71.6287 50.2124 71.1623 50.3439C70.6959 50.4815 70.2295 50.6609 69.775 50.8642C69.3205 51.0615 68.8721 51.2828 68.4355 51.516C68.005 51.7492 67.5745 51.9884 67.1738 52.2276C66.3606 52.706 65.6191 53.1724 64.9852 53.591C64.3573 54.0095 63.8371 54.3683 63.4783 54.6255C63.1195 54.8826 62.9162 55.0321 62.9162 55.0321C62.9162 55.0321 62.9641 54.9902 63.0538 54.9125C63.1435 54.8347 63.269 54.7151 63.4365 54.5716C63.7773 54.2846 64.2557 53.872 64.8596 53.4175C65.4636 52.9571 66.1931 52.4488 67.0004 51.9465C67.8017 51.4442 68.6867 50.9359 69.6255 50.5233C70.0979 50.32 70.5763 50.1406 71.0607 50.0031C71.545 49.8596 72.0473 49.7759 72.5257 49.734C73.0101 49.6922 73.4765 49.7041 73.919 49.752C74.3615 49.7938 74.7681 49.9074 75.1329 50.021C75.3123 50.0928 75.4916 50.1466 75.6471 50.2303C75.7249 50.2662 75.8026 50.3081 75.8803 50.3439C75.9521 50.3858 76.0238 50.4277 76.0896 50.4695C76.2272 50.5473 76.3468 50.631 76.4544 50.7087C76.5082 50.7506 76.562 50.7865 76.6099 50.8223C76.6577 50.8642 76.6996 50.9001 76.7414 50.9359C76.9148 51.0795 77.0284 51.211 77.1062 51.2947C77.1839 51.3844 77.2318 51.4263 77.2318 51.4263C77.2318 51.4263 77.166 51.3784 77.0763 51.3007ZM86.3808 47.5275C86.0459 48.5859 84.5809 51.1393 81.7644 51.5937C78.9479 52.0422 76.3767 49.4111 76.3767 49.4111C76.3767 49.4111 73.6678 46.0505 76.1255 43.4672C78.5832 40.884 83.1158 38.4383 85.735 40.6627C88.3541 42.8872 86.7156 46.4691 86.3808 47.5275Z" fill="#B39D6E"/>
<path d="M11.592 35.9028L11 36.4948L11.7176 37.2124C11.7654 37.1526 11.8252 37.0928 11.879 37.039C12.6086 36.3094 13.4876 36.0045 13.8404 36.3573C14.1932 36.7101 13.8882 37.5891 13.1587 38.3246C13.0989 38.3844 13.0451 38.4382 12.9853 38.4861L13.4637 38.9644C13.5115 38.9047 13.5713 38.8449 13.6251 38.791C14.3546 38.0615 15.2337 37.7506 15.5865 38.1093C15.9393 38.4621 15.6343 39.3412 14.9048 40.0707C14.845 40.1305 14.7912 40.1843 14.7314 40.2322L15.2097 40.7105C15.2576 40.6507 15.3174 40.5909 15.3712 40.5371C16.1007 39.8076 16.9798 39.5026 17.3326 39.8554C17.6854 40.2082 17.3804 41.0873 16.6509 41.8168C16.5911 41.8766 16.5373 41.9304 16.4775 41.9782L16.9558 42.4566C17.0037 42.3968 17.0635 42.337 17.1173 42.2832C17.8468 41.5537 18.7258 41.2487 19.0786 41.6015C19.4315 41.9543 19.1265 42.8334 18.397 43.5689C18.3372 43.6287 18.2833 43.6825 18.2235 43.7303L18.7019 44.2087C18.7498 44.1489 18.8096 44.0891 18.8634 44.0353C19.5929 43.3057 20.4719 42.9948 20.8247 43.3536C21.1775 43.7064 20.8726 44.5854 20.143 45.3149C20.0832 45.3747 20.0294 45.4286 19.9696 45.4764L20.448 45.9548C20.4958 45.895 20.5556 45.8352 20.6095 45.7814C21.339 45.0518 22.218 44.7469 22.5708 45.0997C22.9236 45.4525 22.6187 46.3315 21.8891 47.061C21.8293 47.1208 21.7755 47.1747 21.7157 47.2225L22.4692 47.9759L23.0612 47.4976L26.6371 47.6411L12.2557 33.2478C11.1555 35.1195 11.592 35.9028 11.592 35.9028Z" fill="#B39D6E"/>
<path d="M29.9379 40.6149L30.4162 40.0229L29.6628 39.2694C29.615 39.3292 29.5552 39.389 29.5013 39.4428C28.7718 40.1724 27.8928 40.4833 27.54 40.1245C27.1872 39.7717 27.4921 38.8927 28.2217 38.1632C28.2815 38.1034 28.3353 38.0496 28.3951 38.0017L27.9167 37.5233C27.8689 37.5831 27.8091 37.6429 27.7553 37.6968C27.0257 38.4263 26.1467 38.7313 25.7939 38.3784C25.4411 38.0256 25.7461 37.1466 26.4756 36.4171C26.5354 36.3573 26.5892 36.3035 26.649 36.2556L26.1706 35.7773C26.1228 35.8371 26.063 35.8968 26.0092 35.9507C25.2796 36.6802 24.4006 36.9852 24.0418 36.6324C23.689 36.2796 23.994 35.4005 24.7235 34.671C24.7833 34.6112 24.8371 34.5574 24.8969 34.5095L24.4186 34.0312C24.3707 34.091 24.3109 34.1508 24.2571 34.2046C23.5276 34.9341 22.6485 35.2451 22.2957 34.8863C21.9429 34.5335 22.2479 33.6544 22.9774 32.9249C23.0372 32.8651 23.091 32.8113 23.1508 32.7635L22.6725 32.2851C22.6246 32.3449 22.5648 32.4047 22.511 32.4585C21.7815 33.188 20.9025 33.493 20.5496 33.1402C20.1968 32.7874 20.5018 31.9084 21.2313 31.1788C21.2911 31.119 21.345 31.0652 21.4048 31.0174L20.9264 30.539C20.8785 30.5988 20.8187 30.6586 20.7649 30.7124C20.0354 31.4419 19.1564 31.7469 18.7976 31.3941C18.4448 31.0413 18.7497 30.1623 19.4793 29.4327C19.5391 29.3729 19.5929 29.3191 19.6527 29.2713L18.9351 28.5537L18.3431 29.1457C18.3431 29.1457 17.5598 28.7092 15.6821 29.8095L30.0754 44.1908L29.9379 40.6149Z" fill="#B39D6E"/>
<path d="M27.9586 47.976L28.2396 47.6949L30.1412 45.7933L30.4222 45.5123C30.5957 45.3389 30.5957 45.0519 30.4222 44.8784L30.0874 44.5436L29.9977 44.4539L15.4848 29.935L15.2098 29.6659C15.0363 29.4925 14.7493 29.4925 14.5759 29.6659L12.1122 32.1296C11.9388 32.303 11.9388 32.59 12.1122 32.7635L12.3813 33.0326L16.0409 36.6922L20.0474 35.5979C19.9696 35.5201 19.8919 35.4424 19.8082 35.3587C18.8395 34.39 17.9186 33.4571 17.0754 32.596C16.6628 32.1715 16.2562 31.7589 15.8795 31.3702C15.5267 31.0054 15.1978 30.6646 14.8928 30.3476C14.1035 31.1011 13.4696 31.705 12.9913 32.1595C12.8836 32.2612 12.782 32.3628 12.6923 32.4465C12.7102 32.4645 12.7222 32.4824 12.7401 32.5004C13.2305 33.0206 13.4876 33.2897 13.4876 33.2897C13.4876 33.2897 13.2185 33.0326 12.7042 32.5482C12.6624 32.5183 12.6385 32.4884 12.5906 32.4465C12.8418 32.1774 13.1587 31.8486 13.5354 31.4479C13.5833 31.4061 13.6311 31.3522 13.673 31.3104C13.6969 31.2865 13.7208 31.2625 13.7387 31.2386C14.0856 30.8798 14.4623 30.4852 14.8928 30.0367C14.9466 30.0905 15.0124 30.1503 15.0662 30.2041C15.73 30.844 16.4775 31.5735 17.3027 32.3748C18.1637 33.2179 19.0966 34.1388 20.0653 35.1075C24.5621 39.6043 28.0782 43.3775 28.0782 43.3775C28.0782 43.3775 26.5234 41.9244 24.2212 39.7L20.2866 40.9378L26.8942 47.5454L26.9839 47.6351L27.3188 47.97C27.4981 48.1494 27.7852 48.1494 27.9586 47.976ZM26.9719 47.0132C26.7626 46.8159 26.5474 46.6066 26.3261 46.3853C25.0464 45.1057 24.1375 43.9396 24.1375 43.9396C24.1375 43.9396 25.3036 44.8485 26.5832 46.1282C26.8045 46.3495 27.0198 46.5707 27.2111 46.774C27.2889 46.8577 27.3606 46.9355 27.4383 47.0192C27.4563 47.0371 27.4742 47.0611 27.4922 47.079C27.534 47.1268 27.5759 47.1747 27.6177 47.2225C27.6297 47.2345 27.6357 47.2524 27.6476 47.2644L27.6895 47.2345C27.7314 47.1986 27.7732 47.1567 27.8151 47.1209C27.8988 47.0491 27.9765 46.9833 28.0483 46.9175C28.1978 46.792 28.3293 46.6843 28.431 46.5946C28.6463 46.4212 28.7718 46.3196 28.7718 46.3196C28.7718 46.3196 28.6702 46.4451 28.4968 46.6604C28.4071 46.768 28.2994 46.8936 28.1739 47.0431C28.1081 47.1149 28.0423 47.1926 27.9705 47.2763C27.9347 47.3182 27.8988 47.36 27.8569 47.4019C27.7912 47.4737 27.7194 47.5514 27.6476 47.6231C27.5161 47.5036 27.3726 47.366 27.2231 47.2285C27.1334 47.1627 27.0556 47.091 26.9719 47.0132Z" fill="#B39D6E"/>
<path d="M16.4356 37.0868L17.6196 38.2708L21.6081 37.1466C21.1955 36.74 20.7709 36.3154 20.3344 35.8849L16.4356 37.0868Z" fill="#B39D6E"/>
<path d="M23.6472 39.1438C23.414 38.9166 23.1688 38.6774 22.9236 38.4382L18.8634 39.5146L19.7663 40.4175L23.6472 39.1438Z" fill="#B39D6E"/>
<path d="M31.4388 46.7979C31.2714 46.6305 30.9963 46.6305 30.8289 46.7979L30.207 47.4198L29.8721 47.7547L29.2502 48.3766C29.0828 48.544 29.0828 48.8191 29.2502 48.9865L33.2985 53.0348C33.4659 53.2023 33.741 53.2023 33.9084 53.0348L35.4871 51.4562C35.6545 51.2887 35.6545 51.0137 35.4871 50.8462L31.4388 46.7979ZM33.0773 50.631C32.6826 51.0256 32.0487 51.0256 31.6541 50.631C31.2594 50.2363 31.2594 49.6024 31.6541 49.2078C32.0487 48.8131 32.6826 48.8131 33.0773 49.2078C33.4719 49.6024 33.4719 50.2363 33.0773 50.631Z" fill="#B39D6E"/>
<path d="M31.7797 49.3334C31.4567 49.6563 31.4567 50.1825 31.7797 50.4994C32.1026 50.8223 32.6288 50.8223 32.9457 50.4994C33.2686 50.1765 33.2686 49.6503 32.9457 49.3334C32.6288 49.0105 32.1026 49.0105 31.7797 49.3334ZM32.6527 50.332L32.3657 50.045L32.0846 50.326L31.959 50.2004L32.2401 49.9194L31.959 49.6383L32.0846 49.5128L32.3657 49.7938L32.6527 49.5068L32.7783 49.6324L32.4912 49.9194L32.7783 50.2064L32.6527 50.332Z" fill="#B39D6E"/>
</svg>
