<svg width="65" height="66" viewBox="0 0 65 66" fill="none" xmlns="http://www.w3.org/2000/svg">
<path d="M20.1762 20.9223L22.1889 27.1956L24.1954 20.9223H27.0565V29.939H24.8766V27.8335L25.0872 23.5232L22.9073 29.939H21.4706L19.2845 23.5171L19.495 27.8335V29.939H17.3214V20.9223H20.1762ZM31.5896 30.0629C30.5616 30.0629 29.7297 29.7574 29.0939 29.1463C28.4581 28.5312 28.1402 27.7323 28.1402 26.7497V26.5763C28.1402 25.891 28.2662 25.2861 28.518 24.7618C28.774 24.2375 29.1455 23.8329 29.6327 23.548C30.1199 23.259 30.6979 23.1145 31.3667 23.1145C32.308 23.1145 33.0512 23.4076 33.5961 23.9939C34.1411 24.576 34.4136 25.3894 34.4136 26.4339V27.2451H30.2644C30.3387 27.6208 30.5018 27.916 30.7536 28.1307C31.0055 28.3454 31.3316 28.4527 31.7321 28.4527C32.3926 28.4527 32.9087 28.2215 33.2803 27.7591L34.234 28.8862C33.9739 29.2454 33.6044 29.5324 33.1255 29.747C32.6507 29.9576 32.1387 30.0629 31.5896 30.0629ZM31.3543 24.7247C30.7433 24.7247 30.38 25.1293 30.2644 25.9385H32.3699V25.7774C32.3782 25.443 32.2936 25.185 32.116 25.0033C31.9385 24.8176 31.6846 24.7247 31.3543 24.7247ZM37.1756 23.2384L37.2437 24.0249C37.7061 23.418 38.344 23.1145 39.1573 23.1145C39.855 23.1145 40.3752 23.323 40.7179 23.74C41.0647 24.157 41.2443 24.7845 41.2567 25.6226V29.939H39.1635V25.7093C39.1635 25.3708 39.0954 25.1231 38.9591 24.9662C38.8229 24.8052 38.5752 24.7247 38.216 24.7247C37.8073 24.7247 37.5038 24.8857 37.3056 25.2077V29.939H35.2186V23.2384H37.1756ZM44.8795 28.3289H47.9325V29.939H42.2413V28.7748L45.2139 24.8485H42.3714V23.2384H47.8644V24.3655L44.8795 28.3289ZM11.8531 40.9199C10.8333 40.6267 10.0902 40.2676 9.62366 39.8423C9.16126 39.413 8.93006 38.8845 8.93006 38.257C8.93006 37.5468 9.21287 36.9606 9.77848 36.4982C10.3482 36.0317 11.0872 35.7984 11.9955 35.7984C12.6148 35.7984 13.166 35.9181 13.649 36.1576C14.1362 36.397 14.5119 36.7273 14.7761 37.1484C15.0445 37.5696 15.1786 38.0299 15.1786 38.5294H13.9834C13.9834 37.9845 13.81 37.5572 13.4632 37.2475C13.1164 36.9338 12.6272 36.7769 11.9955 36.7769C11.4093 36.7769 10.951 36.9069 10.6207 37.167C10.2945 37.423 10.1315 37.7801 10.1315 38.2384C10.1315 38.6058 10.2863 38.9175 10.5959 39.1735C10.9097 39.4253 11.4402 39.6565 12.1875 39.8671C12.9389 40.0777 13.5251 40.3109 13.9463 40.5669C14.3715 40.8187 14.6853 41.1139 14.8876 41.4525C15.094 41.791 15.1972 42.1894 15.1972 42.6477C15.1972 43.3784 14.9123 43.9647 14.3426 44.4064C13.7729 44.8441 13.0111 45.0629 12.0574 45.0629C11.4382 45.0629 10.8602 44.9452 10.3234 44.7099C9.78674 44.4704 9.37182 44.1443 9.07869 43.7314C8.78969 43.3186 8.64519 42.85 8.64519 42.3256H9.84041C9.84041 42.8706 10.0406 43.3021 10.4411 43.62C10.8457 43.9337 11.3845 44.0906 12.0574 44.0906C12.685 44.0906 13.166 43.9626 13.5004 43.7067C13.8348 43.4507 14.002 43.1018 14.002 42.6601C14.002 42.2183 13.8472 41.8777 13.5375 41.6382C13.2279 41.3947 12.6664 41.1552 11.8531 40.9199ZM21.7059 42.5857H17.9282L17.0798 44.939H15.8537L19.2969 35.9223H20.3373L23.7867 44.939H22.5667L21.7059 42.5857ZM18.2874 41.6073H21.3529L19.8171 37.39L18.2874 41.6073ZM26.1957 43.9668H30.4687V44.939H25.0005V35.9223H26.1957V43.9668ZM38.3522 40.7217C38.3522 41.6052 38.2036 42.3773 37.9063 43.0378C37.6091 43.6943 37.188 44.1959 36.643 44.5427C36.098 44.8895 35.4622 45.0629 34.7356 45.0629C34.0255 45.0629 33.3959 44.8895 32.8468 44.5427C32.2977 44.1918 31.8704 43.6943 31.5649 43.0502C31.2635 42.402 31.1087 41.6527 31.1004 40.8022V40.152C31.1004 39.285 31.2511 38.5191 31.5525 37.8544C31.8539 37.1897 32.2791 36.6819 32.8282 36.331C33.3814 35.9759 34.0131 35.7984 34.7232 35.7984C35.4457 35.7984 36.0815 35.9739 36.6306 36.3248C37.1838 36.6716 37.6091 37.1773 37.9063 37.842C38.2036 38.5026 38.3522 39.2726 38.3522 40.152V40.7217ZM37.1694 40.1396C37.1694 39.0703 36.9547 38.2508 36.5253 37.681C36.096 37.1072 35.4953 36.8202 34.7232 36.8202C33.9718 36.8202 33.3794 37.1072 32.9459 37.681C32.5165 38.2508 32.2956 39.0434 32.2832 40.0591V40.7217C32.2832 41.758 32.5 42.5734 32.9335 43.1679C33.3711 43.7583 33.9718 44.0535 34.7356 44.0535C35.5035 44.0535 36.098 43.7748 36.5191 43.2174C36.9403 42.6559 37.157 41.8529 37.1694 40.8084V40.1396ZM47.0717 40.7217C47.0717 41.6052 46.9231 42.3773 46.6258 43.0378C46.3286 43.6943 45.9075 44.1959 45.3625 44.5427C44.8175 44.8895 44.1817 45.0629 43.4551 45.0629C42.745 45.0629 42.1154 44.8895 41.5663 44.5427C41.0172 44.1918 40.5899 43.6943 40.2844 43.0502C39.983 42.402 39.8282 41.6527 39.8199 40.8022V40.152C39.8199 39.285 39.9706 38.5191 40.272 37.8544C40.5734 37.1897 40.9986 36.6819 41.5477 36.331C42.1009 35.9759 42.7326 35.7984 43.4427 35.7984C44.1652 35.7984 44.801 35.9739 45.3501 36.3248C45.9033 36.6716 46.3286 37.1773 46.6258 37.842C46.9231 38.5026 47.0717 39.2726 47.0717 40.152V40.7217ZM45.8889 40.1396C45.8889 39.0703 45.6742 38.2508 45.2448 37.681C44.8155 37.1072 44.2148 36.8202 43.4427 36.8202C42.6913 36.8202 42.0989 37.1072 41.6654 37.681C41.236 38.2508 41.0151 39.0434 41.0028 40.0591V40.7217C41.0028 41.758 41.2195 42.5734 41.653 43.1679C42.0906 43.7583 42.6913 44.0535 43.4551 44.0535C44.223 44.0535 44.8175 43.7748 45.2387 43.2174C45.6598 42.6559 45.8765 41.8529 45.8889 40.8084V40.1396ZM55.785 44.939H54.5898L50.0505 37.9907V44.939H48.8553V35.9223H50.0505L54.6022 42.9016V35.9223H55.785V44.939Z" fill="white"/>
<circle cx="32.5" cy="33" r="32.1037" stroke="white" stroke-width="0.792683"/>
</svg>
