<?xml version="1.0" encoding="utf-8"?><svg viewBox="0 0 144 108" xmlns="http://www.w3.org/2000/svg" xmlns:xlink="http://www.w3.org/1999/xlink"><style>:root>svg{display:none}:root>svg:target{display:block}</style><svg fill="#151A21" viewBox="0 0 12 8" id="arrow-down" xmlns="http://www.w3.org/2000/svg"><path d="M1.485 1l4.5 5 4.5-5"/></svg><svg fill="none" viewBox="0 0 144 38" id="blade" xmlns="http://www.w3.org/2000/svg"><path d="M50.367 21.137c-.349.347-.717.62-1.09.83-.098.047-.188.097-.28.141-.092.044-.188.076-.275.113-.18.08-.358.122-.526.173-.34.085-.64.133-.894.155-.25.035-.447.029-.582.033-.135.004-.205.01-.205.01s.071 0 .21.008c.137.002.337.02.59-.002.251-.01.561-.04.913-.109.345-.072.736-.19 1.131-.387a5.158 5.158 0 001.157-.823c.353-.329.679-.715.99-1.13.335.281.675.482.851.584-1.44 1.1-4.109 2.752-6.293 3.11 0 0-.85-.26-.414-1.546 0 0 .21-.304.961-.29 0 0 2.523.467 4.319-2.43.118.15.253.289.392.42-.311.415-.621.81-.955 1.14zM55.26 16.701c.474-.315.945-.617 1.4-.908.456-.284.9-.566 1.324-.829.425-.257.825-.507 1.194-.73 1.49-.892 2.481-1.482 2.481-1.482l-.708.365c-.443.235-1.088.57-1.843 1-.755.43-1.636.926-2.563 1.492-.462.287-.935.582-1.41.898-.237.155-.48.317-.716.478-.05.032-.097.071-.141.103l-.12-.033c-.16-.042-.326-.082-.5-.12a44.329 44.329 0 013.185-2.178c4.606-2.813 9.349-5.455 14.06-8.068C72.996 5.53 75 4.2 77.018 2.913c.972-.618 1.947-1.243 2.917-1.867 1.28-.824 2.216-.36 3.24.724.427.45.77.976.984 1.561.112.295.565 1.96.223 2.163 0 0-12.49 7.478-17.878 10.331 0 0-1.441.198-3.383-1.958 0 0-3.63 2.07-6.507 3.816-.937-.223-1.634-.4-2.04-.512.23-.16.46-.318.685-.47zm12.372-2.34a35 35 0 001.783-.836 80.871 80.871 0 005.688-3.141 114.765 114.765 0 005.466-3.505c1.374-.933 2.204-1.545 2.204-1.545s-.908.49-2.353 1.306c-.847.474-1.883 1.07-3.03 1.734a115.34 115.34 0 002.348-1.565c1.257-.863 2.01-1.422 2.01-1.422s-.83.444-2.158 1.183c-.786.438-1.745.98-2.802 1.595a90.456 90.456 0 002.12-1.425c1.132-.791 1.813-1.305 1.813-1.305s-.757.398-1.968 1.067c-.718.4-1.599.896-2.573 1.456.719-.472 1.36-.917 1.89-1.293a48.168 48.168 0 001.623-1.188s-.685.352-1.773.949c-.651.356-1.453.805-2.341 1.322a60.44 60.44 0 001.66-1.152c.893-.642 1.427-1.072 1.427-1.072s-.612.308-1.576.832a82.894 82.894 0 00-3.721 2.14c-1.43.87-2.695 1.704-3.611 2.306-.917.603-1.497.96-1.497.96s.159-.062.446-.178c.286-.122.694-.296 1.187-.539a38.986 38.986 0 001.72-.883c-.751.474-1.421.907-1.977 1.257-.52.335-.95.6-1.246.782-.295.183-.458.28-.458.28s.176-.074.5-.2c.32-.137.78-.338 1.336-.611a46.23 46.23 0 001.945-1.008c-.834.522-1.584.996-2.208 1.384a66.241 66.241 0 01-1.909 1.167s.2-.08.556-.227c.356-.153.866-.381 1.485-.69.625-.31 1.368-.691 2.178-1.135-.92.57-1.75 1.085-2.44 1.511-.647.4-1.173.717-1.544.933-.365.215-.574.33-.574.33l.613-.256c.39-.17.952-.424 1.635-.763.694-.342 1.515-.77 2.41-1.262l-2.667 1.637a65.509 65.509 0 01-2.313 1.36s.27-.111.696-.29zm-3.52-.578c.055.083.12.157.179.232.059.075.124.148.195.22.07.066.13.147.205.205l.219.189c.076.064.16.113.234.17.08.057.154.115.243.156l.257.133c.084.049.176.076.263.111l.269.104-.257-.133c-.083-.043-.172-.084-.25-.134l-.237-.157c-.085-.05-.153-.109-.227-.167a3.054 3.054 0 01-.218-.182l-.202-.2c-.07-.065-.123-.142-.18-.21a4.31 4.31 0 01-.323-.453l-.137-.243a5.321 5.321 0 01-.215-.514 4.045 4.045 0 01-.197-.805c-.008-.056-.009-.108-.011-.166l1.056-.517c.385-.188.77-.375 1.146-.573l1.14-.592 1.13-.608c.755-.41 1.492-.835 2.237-1.255.736-.431 1.476-.87 2.2-1.317.734-.437 1.454-.903 2.175-1.363.722-.46 1.432-.936 2.143-1.412.708-.482 1.41-.969 2.1-1.472.69-.503 1.386-1.008 2.056-1.539l-2.167 1.367-2.178 1.35-2.182 1.339-2.194 1.315c-.733.443-1.471.862-2.205 1.3-.737.424-1.473.855-2.22 1.27l-1.11.628-1.121.62c-.745.42-1.498.81-2.246 1.218l-.097.052.006.096c.01.108.022.202.042.3.02.099.04.198.064.288.05.188.114.38.19.56.042.087.074.182.122.266l.142.261.16.262zM91.972 24.125a.61.61 0 01.43-.745.604.604 0 01.74.432.613.613 0 01-.43.745.608.608 0 01-.74-.432z" fill="#B39D6E"/><path d="M52.334 20.72c.242-.188.443-.36.6-.505.144.078.303.166.489.252.929.46 2.292 1.088 4.035 1.726 1.743.637 3.858 1.279 6.236 1.863 2.384.582 5.03 1.095 7.822 1.529 5.589.854 10.702 1.219 14.397 1.385 3.704.17 5.988.137 5.988.137s-2.29-.062-5.979-.322c-3.688-.259-8.78-.713-14.356-1.57-2.785-.43-5.425-.925-7.806-1.47-2.38-.544-4.495-1.14-6.245-1.73a43.851 43.851 0 01-4.067-1.6c-.178-.082-.334-.157-.483-.228.092-.09.175-.17.229-.236.209-.238 1.101-.835 2.27-1.564 1.811.6 4.106 1.187 6.628 1.654 3.1.586 5.934.931 7.986 1.148 2.053.216 3.327.29 3.327.29s-1.268-.173-3.305-.478c-2.04-.311-4.852-.746-7.94-1.335-2.418-.444-4.632-.948-6.419-1.457.279-.172.574-.355.877-.534 5.81 1.393 20.854 4.508 33.456 2.905 0 0 1.44-.126 2.156.286.714.413 3.139 2.018 2.55 3.384-.592 1.38-2.136 3.352-3.106 3.612-.97.26-20.859.659-39.197-7.07a.716.716 0 01-.143-.072zm41.05 3.027a.86.86 0 10-.608 1.053.865.865 0 00.609-1.053zM52.132 18.072c.018-.005.031-.002.045 0-.117.097-.23.186-.321.256a.431.431 0 01.276-.256z" fill="#B39D6E"/><path d="M51.942 17.389a1.24 1.24 0 00-.593.308l-.139.187.148-.177c.117-.096.304-.224.586-.26.261-.044.588-.015.945.058-.156.12-.306.238-.446.347a.67.67 0 00-.384-.027.661.661 0 00-.477.719l-.186.154a7.67 7.67 0 01-.48.875c-.353-.444-.563-.986-.323-1.57.542-1.347 1.902-1.315 3.052-1.07-.222.163-.433.323-.627.473-.409-.073-.776-.085-1.076-.017z" fill="#B39D6E"/><path d="M52.834 18.195a.646.646 0 00-.383-.338c.14-.11.29-.228.446-.348.186.041.376.095.58.157-.22.17-.433.343-.643.53zM52.139 18.875a.407.407 0 01-.299-.29.415.415 0 01.022-.259c.096-.078.203-.165.321-.255.207-.03.4.088.462.292-.089.082-.185.16-.273.242l-.233.27zM51.404 18.702l.186-.154c.002.032-.002.066.008.102a.666.666 0 00.382.43c-.048.065-.094.136-.142.2-.16.226-.32.45-.476.674-.008.015-.023.032-.032.048a3.25 3.25 0 01-.392-.421c.155-.27.313-.552.466-.879zM54.35 17.796a10.193 10.193 0 00-.436-.15c.21-.16.423-.314.636-.463.007-.001.017-.01.023-.012.405.106 1.102.283 2.04.512-.3.185-.591.36-.876.534-.493-.141-.96-.282-1.386-.421zM54.272 17.09c-.193.129-.378.263-.569.398l-.08.061a5.732 5.732 0 00-.597-.139c.194-.15.404-.31.627-.473a14.849 14.849 0 01.619.152zM51.534 20.084c.237-.304.452-.641.695-.947.065.002.124.006.191-.012a.664.664 0 00.484-.669c.273-.242.563-.469.86-.691.173.063.346.128.523.204.361.137.762.276 1.183.417-1.169.729-2.061 1.325-2.27 1.563-.06.068-.142.149-.23.237-.239-.118-.435-.221-.584-.292l-.375-.185s.123.07.366.2l.564.31c-.162.148-.363.319-.599.506a5.539 5.539 0 01-.852-.584.137.137 0 01.044-.057z" fill="#B39D6E"/><path d="M52.35 18.884a.363.363 0 01-.211-.008l.233-.27c.088-.083.184-.16.273-.243l.001.006a.42.42 0 01-.297.515zM52.834 18.196c.211-.18.423-.36.645-.524.092.027.186.06.28.1-.298.217-.587.45-.86.692 0-.052.006-.1-.008-.154-.014-.048-.041-.08-.057-.114zM51.534 20.084c-.015.017-.029.04-.05.058a1.804 1.804 0 01-.162-.145c.01-.015.024-.032.033-.047.156-.218.317-.443.476-.674.047-.064.093-.135.14-.2a.652.652 0 00.25.057c-.235.31-.456.648-.687.95zM53.71 17.487c.184-.134.375-.27.568-.4.07.02.168.046.307.08-.006.002-.016.011-.022.013-.22.15-.432.304-.636.463-.1-.032-.195-.072-.293-.097.023-.013.042-.037.075-.06z" fill="#B39D6E"/><circle cx="117" cy="19" r="3" fill="#B39D6E"/><circle cx="129" cy="19" r="3" fill="#B39D6E"/><circle cx="141" cy="19" r="3" fill="#B39D6E"/><circle cx="3" cy="19" r="3" fill="#B39D6E"/><circle cx="15" cy="19" r="3" fill="#B39D6E"/><circle cx="27" cy="19" r="3" fill="#B39D6E"/></svg><svg fill="none" viewBox="0 0 108 108" id="blade-ico" xmlns="http://www.w3.org/2000/svg"><path stroke="#B39D6E" stroke-width="2" d="M1 1h106v106H1z"/><path d="M26.12 69.24a8.26 8.26 0 01-1.113 1.917c-.118.13-.222.26-.332.384-.11.123-.233.23-.341.339-.219.232-.458.403-.677.584a9.478 9.478 0 01-1.24.786c-.352.207-.649.32-.849.41-.2.09-.3.141-.3.141s.106-.044.319-.117c.206-.082.515-.179.88-.37a9.57 9.57 0 001.297-.727c.469-.323.98-.74 1.448-1.28a8.33 8.33 0 001.217-1.946c.325-.71.571-1.489.779-2.301a9.7 9.7 0 001.634.344c-1.468 2.536-4.432 6.657-7.472 8.545 0 0-1.43.139-1.577-2.051 0 0 .127-.584 1.256-1.03 0 0 4.058-.866 4.944-6.307.27.15.557.275.846.386-.207.812-.425 1.594-.72 2.293zM30.676 59.583c.513-.765 1.03-1.508 1.529-2.224.505-.708.994-1.404 1.463-2.059.476-.647.919-1.269 1.333-1.83 1.67-2.256 2.785-3.753 2.785-3.753s-.3.359-.831.984c-.516.627-1.27 1.527-2.133 2.637-.861 1.11-1.87 2.397-2.902 3.817a82.352 82.352 0 00-1.549 2.215c-.26.378-.52.77-.774 1.158-.053.08-.101.167-.147.24l-.199.025c-.265.038-.539.082-.82.132.963-1.61 2.143-3.49 3.405-5.228 5.135-7.056 10.581-13.942 15.997-20.766 2.408-3.028 4.574-6.254 6.792-9.43a1075.86 1075.86 0 003.2-4.596c1.4-2.024 3.086-1.912 5.288-.929.916.41 1.753.982 2.437 1.723.35.371 2.058 2.578 1.672 3.092 0 0-14.017 18.912-20.295 26.513 0 0-2.03 1.19-6.267-.827 0 0-4.136 5.342-7.352 9.733-1.538.247-2.689.415-3.365.5.245-.38.49-.76.733-1.127zm17.027-11.166c.52-.54 1.267-1.332 2.146-2.353 1.77-2.026 4.117-4.917 6.547-8.217a185.664 185.664 0 005.991-8.623 124.219 124.219 0 002.334-3.675s-1.053 1.295-2.704 3.409a392.247 392.247 0 00-3.45 4.469 186.006 186.006 0 002.536-3.793c1.342-2.067 2.12-3.37 2.12-3.37s-.964 1.177-2.49 3.105a287.597 287.597 0 00-3.195 4.119 146.323 146.323 0 002.281-3.443c1.202-1.883 1.9-3.073 1.9-3.073s-.884 1.064-2.278 2.814a368.203 368.203 0 00-2.94 3.769 103.1 103.1 0 002.02-3.1 77.883 77.883 0 001.688-2.783s-.804.951-2.058 2.517a163.12 163.12 0 00-2.678 3.427 97.744 97.744 0 001.764-2.751 60.415 60.415 0 001.469-2.485s-.725.838-1.84 2.22a134.163 134.163 0 00-4.23 5.503c-1.595 2.186-2.968 4.213-3.963 5.682-.996 1.47-1.641 2.362-1.641 2.362s.199-.191.556-.542c.35-.36.852-.873 1.439-1.542a63.206 63.206 0 002.02-2.384c-.827 1.173-1.559 2.235-2.172 3.103-.57.822-1.048 1.483-1.376 1.94-.327.456-.51.7-.51.7s.216-.218.621-.606c.393-.405.955-.99 1.618-1.742a74.915 74.915 0 002.28-2.712c-.923 1.297-1.75 2.47-2.44 3.436a107.48 107.48 0 01-1.548 2.15c-.37.501-.58.777-.58.777s.25-.242.69-.684a48.079 48.079 0 001.79-1.95 97.023 97.023 0 002.548-3.047 1161.173 1161.173 0 01-2.708 3.77c-.717 1-1.306 1.798-1.726 2.351-.411.547-.653.848-.653.848s.266-.27.758-.762a57.938 57.938 0 001.968-2.152 96.878 96.878 0 002.816-3.38 2589.39 2589.39 0 01-2.968 4.098 105.897 105.897 0 01-1.896 2.545c-.462.598-.714.92-.714.92s.333-.333.858-.865zm-5.614 1.32c.133.09.276.16.41.235.135.076.278.145.429.208.145.055.286.139.432.18l.445.145c.152.049.309.07.456.11.154.035.3.076.46.082l.464.04c.157.02.311.004.463.002l.465-.012-.465-.039c-.15-.012-.31-.019-.458-.045l-.451-.088c-.157-.02-.295-.068-.442-.109-.146-.04-.293-.081-.438-.137l-.426-.171c-.145-.055-.272-.137-.4-.204a5.104 5.104 0 01-.39-.225 6.956 6.956 0 01-.373-.252l-.354-.278a8.582 8.582 0 01-.641-.633 6.56 6.56 0 01-.792-1.081c-.048-.079-.081-.155-.12-.24l1.257-1.428c.459-.518.918-1.037 1.356-1.566l1.337-1.59 1.31-1.61c.873-1.08 1.71-2.17 2.562-3.26.831-1.1 1.665-2.214 2.47-3.332.825-1.107 1.611-2.25 2.403-3.383a178.977 178.977 0 002.325-3.437c.76-1.16 1.505-2.321 2.223-3.5.72-1.18 1.446-2.366 2.118-3.573l-2.39 3.385-2.416 3.367-2.429 3.35-2.461 3.326c-.82 1.116-1.663 2.2-2.488 3.307-.838 1.091-1.669 2.191-2.527 3.273l-1.27 1.628-1.29 1.619c-.852 1.09-1.734 2.139-2.598 3.213l-.112.137.068.14c.081.155.158.288.249.423.09.134.181.27.274.39.192.25.406.495.63.72.117.101.224.224.349.32l.372.302.404.292zM90.11 47.911a.985.985 0 01.18-1.38.977.977 0 011.372.187.992.992 0 01-.18 1.38.983.983 0 01-1.373-.187z" fill="#B39D6E"/><path d="M28.799 67.399c.245-.431.439-.811.581-1.126.265.028.557.059.888.073a65.16 65.16 0 007.096.075c2.999-.128 6.555-.48 10.469-1.083 3.922-.608 8.19-1.482 12.63-2.565 8.876-2.189 16.738-4.814 22.36-6.857 5.637-2.041 9.028-3.508 9.028-3.508s-3.46 1.328-9.128 3.227c-5.669 1.9-13.555 4.377-22.415 6.553-4.426 1.085-8.675 1.983-12.569 2.646-3.893.663-7.421 1.084-10.4 1.287-2.98.204-5.401.183-7.066.132-.317-.013-.597-.028-.863-.04.083-.192.156-.364.195-.496.165-.485 1.128-1.93 2.422-3.743 3.076-.227 6.867-.773 10.925-1.638 4.992-1.047 9.439-2.289 12.638-3.238 3.2-.949 5.149-1.627 5.149-1.627s-2.002.527-5.233 1.334c-3.238.8-7.709 1.893-12.685 2.928-3.887.837-7.507 1.456-10.49 1.803.31-.43.637-.886.978-1.34C42.851 58.672 67.25 54 85.076 43.792c0 0 2.074-1.082 3.397-.909 1.324.174 5.94 1.067 5.907 3.473-.029 2.427-1.111 6.33-2.399 7.32-1.287.99-30.745 13.915-62.924 13.74a1.168 1.168 0 01-.258-.018zM91.984 46.47a1.392 1.392 0 00-1.95-.255 1.392 1.392 0 00-.255 1.95 1.392 1.392 0 001.95.255 1.399 1.399 0 00.255-1.95zM26.855 63.57c.024-.02.046-.023.068-.028-.115.217-.228.419-.322.58.006-.209.076-.417.254-.553z" fill="#B39D6E"/><path d="M26.148 62.667a2.004 2.004 0 00-.695.828l-.091.364.112-.354a1.82 1.82 0 01.713-.754c.363-.227.868-.385 1.448-.498-.16.276-.31.546-.452.795-.205.017-.413.062-.59.198-.427.328-.517.91-.266 1.369l-.183.345a12.378 12.378 0 01-.174 1.606c-.803-.446-1.452-1.124-1.456-2.145-.025-2.348 2.025-3.143 3.895-3.492-.231.382-.446.752-.643 1.096-.656.145-1.212.355-1.618.642z" fill="#B39D6E"/><path d="M27.98 63.319a1.044 1.044 0 00-.783-.27c.142-.248.293-.518.452-.794.304-.054.62-.093.964-.127-.224.39-.435.782-.633 1.19zM27.364 64.765a.658.658 0 01-.626-.248.67.67 0 01-.129-.4c.095-.176.2-.373.322-.58a.668.668 0 01.87.15c-.08.177-.176.352-.257.53-.06.187-.12.36-.18.548zM26.159 64.962s.067-.13.182-.346c.023.047.038.1.075.148.21.273.52.393.837.406-.031.126-.056.26-.087.387-.1.435-.2.87-.293 1.3-.004.028-.016.063-.02.091a5.272 5.272 0 01-.846-.385c.065-.498.126-1.019.151-1.601zM29.998 61.781c-.262.01-.503.028-.745.047.215-.37.436-.731.663-1.085.008-.006.018-.027.026-.033.671-.093 1.822-.26 3.366-.5-.336.462-.661.905-.98 1.34-.822.096-1.607.174-2.33.231zM29.442 60.775c-.207.313-.4.627-.602.949l-.084.14a9.27 9.27 0 00-.976.162c.197-.343.412-.713.643-1.095.281-.05.555-.094.82-.132l.199-.024zM27.209 66.945c.165-.601.277-1.238.451-1.845.099-.037.19-.069.279-.137.402-.309.51-.852.307-1.298.258-.531.55-1.05.856-1.567.299-.012.597-.023.907-.019a52 52 0 002.027-.11c-1.294 1.813-2.258 3.257-2.422 3.742-.047.138-.12.31-.195.495-.431-.027-.789-.06-1.055-.073l-.674-.044s.228.03.67.073c.265.027.614.066 1.035.113-.15.32-.345.7-.581 1.126a8.97 8.97 0 01-1.634-.344.22.22 0 01.029-.112z" fill="#B39D6E"/><path d="M27.683 64.648a.586.586 0 01-.32.117c.061-.188.12-.36.181-.548.081-.178.177-.353.258-.53l.006.007a.68.68 0 01-.125.954zM27.98 63.319c.204-.4.409-.8.64-1.183.154-.016.314-.024.48-.024a18.11 18.11 0 00-.856 1.567c-.033-.077-.053-.152-.108-.224-.05-.064-.11-.094-.156-.136zM27.209 66.945c-.012.034-.018.077-.037.118a2.943 2.943 0 01-.333-.116c.004-.029.016-.063.02-.092.098-.421.198-.856.293-1.3.03-.126.055-.26.086-.387.145.005.278-.021.408-.07-.16.61-.28 1.252-.437 1.847zM28.848 61.717c.193-.315.395-.636.602-.949.117-.013.28-.035.509-.07-.009.006-.018.026-.026.032-.236.36-.457.722-.664 1.086-.168.014-.334.014-.496.036.026-.033.04-.082.075-.135z" fill="#B39D6E"/></svg><svg fill="none" viewBox="0 0 108 108" id="brush" xmlns="http://www.w3.org/2000/svg"><path stroke="#B39D6E" stroke-width="2" d="M1 1h106v106H1z"/><path d="M50.54 43.148c0 .607.158 1.176.412 1.693 2.21-.075 3.372-.045 3.395-.037.015 0 1.176-.03 3.386.037.255-.51.413-1.079.413-1.693a3.76 3.76 0 00-.9-2.45l2.825-14.41C59.112 24.979 54.34 25 54.34 25s-4.773-.023-5.732 1.289l2.825 14.409a3.794 3.794 0 00-.892 2.45zm2.443.187c-.757 0-1.364-.397-1.364-.884s.615-.884 1.364-.884c.75 0 1.364.397 1.364.884s-.607.884-1.364.884zm-2.413-16.65a13.944 13.944 0 012.803-.583c.164-.023.322-.03.487-.046.164-.015.322-.022.487-.03.322-.014.651-.014.981-.007.165 0 .33.015.487.03.165.008.33.023.487.045l.487.06.487.09c.165.03.322.06.48.105l.48.127.187.053-.03.21a287.645 287.645 0 01-.517 3.528c-.173 1.177-.36 2.353-.547 3.53-.18 1.176-.39 2.345-.577 3.521a471.744 471.744 0 01-.615 3.455c.09.104.173.202.248.314.09.135.157.285.224.427.03.075.053.15.083.225.022.075.037.158.06.232.015.075.022.158.03.24.015.083 0 .165.007.24 0 .082-.007.157-.022.24-.015.075-.023.157-.045.232l-.075.225c-.03.075-.067.142-.105.217a.688.688 0 01-.12.202l-.135.195c-.045.06-.105.12-.15.172l-.157.18.135-.187c.045-.06.097-.12.135-.187l.112-.203c.038-.067.068-.134.098-.21.03-.067.06-.142.082-.21l.052-.216c.023-.075.023-.15.03-.225.008-.075.015-.15.008-.225-.008-.075 0-.15-.023-.217-.015-.075-.022-.143-.044-.218-.023-.067-.045-.142-.068-.21l-.09-.202a2.811 2.811 0 00-.517-.704l-.052-.053.007-.082c.142-1.184.307-2.36.465-3.537.172-1.176.33-2.352.51-3.529.172-1.176.351-2.352.546-3.529.173-1.109.36-2.21.547-3.32l-.262-.074a3.15 3.15 0 00-.457-.12l-.465-.105-.472-.075a5.11 5.11 0 00-.472-.06c-.157-.015-.314-.037-.472-.052a13.525 13.525 0 00-.951-.045 5.114 5.114 0 00-.48 0c-.157.007-.322 0-.48.007-.322.008-.636.038-.959.06-.322.03-.636.068-.959.12-.314.052-.637.105-.951.172-.008.023.007.015.037.008zm-.592 1.29s.382-.098.884-.195c.69-.135 1.604-.27 2.128-.165v12.641h-.644l-2.368-12.281zM70.996 67.882c.045-.45.097-.892.12-1.341.03-.45.067-.892.082-1.334.008-.225.015-.442.03-.66v-.659-.644l-.022-.637c-.008-.42-.038-.84-.075-1.244-.015-.202-.03-.405-.053-.6-.022-.194-.052-.389-.075-.584v-.007c.015-.952.023-1.896.03-2.848.015-2 .023-4.016-.165-6.002a18.35 18.35 0 00-1.97-.39c.06.54.112 1.087.157 1.634.105 1.184.188 2.376.247 3.567.113 2.383.143 4.765.015 7.148-.03.592-.074 1.192-.12 1.783l-.082.892-.105.892c-.03.3-.075.592-.12.884-.045.292-.082.592-.142.884l-.157.877-.188.877c-.142.576-.285 1.16-.472 1.723-.09.285-.172.57-.284.846-.105.278-.195.563-.323.832-.12.27-.232.547-.367.817-.142.262-.27.532-.412.794l-.472.757-.54.712.525-.72.457-.764c.142-.262.27-.532.397-.794.128-.27.232-.547.352-.817.12-.27.203-.554.308-.839.105-.277.187-.562.27-.847.172-.57.306-1.146.434-1.723l.18-.87c.052-.291.097-.584.15-.876.052-.292.09-.584.127-.884.037-.292.082-.585.112-.884l.098-.884.075-.885c.045-.591.082-1.183.105-1.775.03-.592.037-1.184.052-1.784.008-.592.015-1.191.008-1.783a70.209 70.209 0 00-.113-3.559 93.06 93.06 0 00-.255-3.552l-.135-1.34v1.393l-.082 1.806c-.03.599-.045 1.206-.09 1.805l-.157 1.799-.075.899c-.03.3-.075.6-.112.899l-.24 1.79c-.09.6-.21 1.185-.315 1.784l-.165.892c-.06.292-.135.584-.195.884-.142.584-.254 1.176-.42 1.76l-.486 1.746-.562 1.716c-.21.562-.427 1.124-.652 1.686l-.36.825-.18.412-.202.404c-.135.27-.262.54-.404.81l-.435.786c-.315.517-.622 1.034-.997 1.499.367-.48.667-1.004.974-1.521l.42-.794c.135-.27.262-.54.39-.81l.195-.404.172-.42.344-.832c.21-.562.413-1.124.615-1.693l.547-1.716.464-1.738c.158-.577.263-1.17.398-1.761.06-.292.127-.585.187-.884l.15-.892c.097-.592.21-1.184.292-1.776l.232-1.783c.038-.3.083-.592.113-.892l.075-.899.15-1.798c.044-.6.052-1.199.082-1.798l.075-1.799V50.88c-.96-.127-2.023-.24-3.117-.33.067.458.112.997.18 1.627a40.3 40.3 0 01.142 2.188c.007.404.015.816.03 1.251 0 .435-.015.884-.023 1.341a36.18 36.18 0 01-.187 2.892c-.037.503-.112 1.012-.172 1.522-.06.517-.15 1.033-.233 1.55a53.093 53.093 0 01-.636 3.14c-.135.517-.263 1.042-.405 1.559-.15.51-.285 1.026-.45 1.528-.157.502-.314 1.004-.494 1.491-.165.487-.352.967-.525 1.439a49.395 49.395 0 01-2.248 5.013 41.579 41.579 0 01-1.948 3.356 30.508 30.508 0 01-.861 1.177s.284-.45.741-1.266c.233-.405.502-.907.795-1.484.3-.577.614-1.236.959-1.956.33-.727.69-1.513 1.041-2.36.352-.84.697-1.746 1.042-2.675.337-.937.66-1.918.959-2.915.157-.494.292-1.011.434-1.513.135-.51.263-1.027.39-1.544.247-1.034.472-2.068.644-3.102a51.27 51.27 0 00.705-5.897c.022-.457.045-.899.06-1.326l.022-1.244c.015-.397-.007-.78-.007-1.146-.008-.367 0-.712-.023-1.034-.037-.637-.052-1.184-.09-1.649a31.014 31.014 0 00-.831-.06c.007.435.015.967.03 1.566 0 .308.022.637.007.99l-.045 1.093c-.037.765-.06 1.589-.12 2.466-.09.869-.187 1.79-.284 2.742-.038.48-.135.952-.21 1.439-.083.487-.158.974-.24 1.476-.075.494-.187.989-.3 1.483-.112.495-.217.997-.33 1.491-.097.502-.262.99-.397 1.477-.134.486-.277.974-.412 1.46-.164.473-.322.945-.48 1.417-.157.464-.314.929-.501 1.37-.18.443-.352.885-.525 1.312-.172.427-.374.832-.554 1.229-.352.802-.765 1.529-1.117 2.203-.382.66-.727 1.274-1.079 1.783-.337.525-.651.96-.914 1.319-.27.352-.487.63-.644.81a5.49 5.49 0 01-.225.269s.083-.097.217-.292c.143-.188.33-.48.585-.847.24-.375.532-.824.832-1.364.075-.135.157-.27.24-.412.074-.142.157-.292.232-.45.157-.307.337-.621.502-.966.322-.69.696-1.416 1.019-2.225.165-.405.352-.802.517-1.237.157-.427.322-.861.494-1.303.18-.442.315-.9.465-1.364.15-.465.307-.93.457-1.401.135-.48.262-.96.397-1.446.127-.487.285-.967.382-1.462l.337-1.476c.113-.487.233-.981.3-1.468.09-.487.172-.974.255-1.454.082-.48.187-.951.232-1.423.12-.945.24-1.851.352-2.713.075-.87.15-1.686.21-2.443.03-.382.067-.741.097-1.086.03-.345.03-.674.053-.982.022-.607.045-1.131.067-1.566-1.528-.105-3.087-.18-4.495-.224.06.397.12.831.194 1.333.105.667.158 1.424.233 2.256.03.412.045.846.067 1.296.008.225.023.45.03.682v.704a40.14 40.14 0 01-1.034 9.449l-.195.809-.217.802a38.286 38.286 0 01-.472 1.58c-.157.525-.352 1.035-.532 1.537-.195.494-.375.996-.585 1.476a35.494 35.494 0 01-2.577 5.057 28.443 28.443 0 01-1.252 1.889 29.9 29.9 0 01-1.056 1.393c-.3.382-.562.66-.734.855l-.27.292s.36-.42.922-1.207a34.483 34.483 0 002.12-3.379c.405-.72.81-1.513 1.221-2.36.398-.854.81-1.761 1.184-2.72.195-.472.367-.974.555-1.469.165-.502.344-1.004.502-1.52.157-.518.322-1.035.457-1.567l.21-.794.187-.802c.255-1.064.457-2.143.622-3.214.09-.532.142-1.064.217-1.589.068-.524.105-1.049.158-1.558.075-1.027.142-2.016.157-2.967.007-.233.015-.472.015-.697 0-.233-.008-.457-.008-.675-.007-.442 0-.876-.015-1.288-.022-.413-.037-.81-.06-1.184a14.964 14.964 0 00-.067-1.064c-.045-.51-.075-.96-.12-1.356-2.48-.083-4.496-.098-5.08-.105.008.045.023.097.03.142.142.667.27 1.341.375 2.016.112.674.202 1.348.284 2.03l.105 1.02.083 1.018.06 1.02.037 1.026c.015.682.023 1.364.008 2.045 0 .345-.015.682-.03 1.027-.015.345-.023.682-.053 1.019-.03.337-.045.682-.082 1.019l-.105 1.019c-.09.674-.165 1.356-.292 2.023-.105.674-.248 1.341-.383 2.008-.067.337-.157.667-.24.997-.074.33-.164.66-.262.989l-.277.981-.315.974c-.104.323-.224.645-.344.96-.12.314-.233.636-.367.951-.27.622-.525 1.259-.825 1.866-.15.307-.284.614-.442.921l-.48.9c-.156.3-.329.591-.509.884l-.524.876.487-.891c.165-.3.33-.592.472-.9l.45-.913c.15-.308.277-.622.42-.93.284-.614.516-1.25.763-1.88.12-.315.225-.637.337-.96.113-.322.225-.636.315-.966l.292-.974.263-.982c.09-.33.164-.651.24-.989.074-.33.15-.66.217-.989.127-.667.255-1.326.344-2 .113-.667.173-1.342.248-2.008l.09-1.012c.03-.337.037-.674.06-1.011.022-.338.03-.675.044-1.012.016-.337.023-.674.023-1.012.008-.674 0-1.348-.023-2.023l-.044-1.011-.068-1.012-.09-1.011-.112-1.004a44.311 44.311 0 00-.292-2.001c-.038-.225-.09-.442-.128-.667v.704c0 .682.008 1.364 0 2.046l-.12 2.038c-.022.682-.112 1.356-.194 2.038l-.12 1.012-.06.51-.083.501-.337 2.016c-.135.667-.292 1.334-.434 1.993-.135.667-.323 1.326-.495 1.978l-.262.99c-.09.329-.195.651-.292.973-.203.652-.383 1.304-.615 1.948-.225.645-.427 1.29-.674 1.926-.248.63-.472 1.274-.742 1.903-.262.63-.51 1.259-.794 1.881-.27.622-.555 1.244-.84 1.858l-.434.922c-.142.307-.3.607-.412.929.097-.322.24-.63.374-.944l.398-.937c.262-.622.532-1.251.779-1.88.262-.63.494-1.26.734-1.896.247-.63.45-1.274.682-1.918.225-.637.42-1.29.63-1.933.217-.645.381-1.297.576-1.949.09-.33.195-.652.27-.974l.24-.981c.157-.66.33-1.312.457-1.978.127-.667.277-1.327.397-1.986l.322-2 .083-.503.052-.502.112-1.004c.075-.674.158-1.341.18-2.015l.105-2.023c.008-.675-.007-1.35-.007-2.023l-.008-1.012-.075-1.012-.022-.262c-.555.008-1.424.015-2.48.038.045.157.09.307.134.48.135.486.24 1.048.338 1.655.037.307.082.63.127.96.023.336.053.681.083 1.033.014.352.022.72.037 1.094 0 .375 0 .757-.015 1.147a33.208 33.208 0 01-.315 3.604c-.052.404-.12.816-.187 1.221a47.305 47.305 0 01-1.079 4.72c-.202.75-.427 1.462-.644 2.136a59.721 59.721 0 01-.652 1.888 52.116 52.116 0 01-1.117 2.765c-.292.66-.48 1.027-.48 1.027s.143-.39.383-1.064c.24-.675.554-1.656.922-2.825.36-1.177.756-2.555 1.138-4.039.195-.742.368-1.513.54-2.3.165-.787.33-1.589.465-2.39.074-.405.134-.802.194-1.207.068-.404.113-.801.158-1.199.09-.794.164-1.58.21-2.345l.044-1.124c0-.367.008-.727.008-1.079-.015-.352-.023-.69-.038-1.019-.022-.33-.052-.644-.075-.951a24.17 24.17 0 00-.224-1.656 7.854 7.854 0 00-.105-.517c-.93.022-1.986.052-3.11.097l.225 1.004c.06.307.112.63.18.974.06.345.12.704.165 1.087.045.382.105.779.142 1.191.03.412.068.84.105 1.281.015.442.037.892.052 1.357.015.464 0 .936 0 1.416-.007.48-.037.966-.052 1.46-.03.495-.068.997-.112 1.5a47.47 47.47 0 01-.405 3.034c-.09.502-.18 1.012-.292 1.506-.098.502-.218.997-.337 1.484-.24.981-.51 1.933-.802 2.854-.285.922-.6 1.791-.914 2.615a41.667 41.667 0 01-.952 2.286 43.268 43.268 0 01-1.656 3.312c-.217.39-.397.696-.517.899-.12.202-.18.322-.18.322s.045-.12.15-.337l.45-.937a58.463 58.463 0 003.155-8.31c.142-.456.254-.921.389-1.393.112-.472.247-.952.36-1.439a46.63 46.63 0 00.599-2.96c.18-.996.307-2 .42-2.997.044-.494.09-.989.127-1.476.022-.487.06-.966.075-1.446.007-.472.022-.944.03-1.401-.008-.457-.008-.907-.015-1.341-.023-.435-.038-.862-.06-1.267-.023-.412-.06-.801-.09-1.183-.023-.383-.075-.742-.112-1.087-.045-.345-.075-.674-.12-.982-.06-.374-.113-.711-.165-1.026l-1.454.068c.008.03.015.044.03.074.143.398.263.862.375 1.364.052.255.105.517.157.794.038.278.083.562.128.862l.09.914c.022.315.037.63.052.952.015.652.03 1.319 0 2-.03.682-.075 1.372-.142 2.06a36.26 36.26 0 01-.27 2.046 45.96 45.96 0 01-.36 1.964 38.718 38.718 0 01-.42 1.813 31.89 31.89 0 01-.441 1.61c-.293.99-.577 1.8-.78 2.369-.202.562-.344.884-.344.884s.09-.33.24-.914c.157-.577.352-1.416.576-2.413.225-1.004.465-2.173.69-3.432.112-.63.21-1.281.314-1.948.09-.667.18-1.341.248-2.023a31 31 0 00.157-2.023c.03-.667.052-1.326.052-1.963l-.022-.937c-.015-.307-.03-.607-.052-.899-.03-.292-.053-.577-.083-.847-.037-.27-.067-.54-.105-.786-.09-.502-.165-.967-.262-1.372-.008-.045-.023-.075-.03-.12-.667.038-1.334.075-2 .128.03.15.052.3.082.472l.067.374.045.413c.06.562.128 1.198.195 1.895.03.697.06 1.454.09 2.256.007.801-.015 1.648-.03 2.517-.045.87-.097 1.776-.165 2.69-.097.914-.172 1.843-.3 2.765-.135.922-.247 1.85-.412 2.75-.075.45-.157.9-.232 1.341-.09.442-.172.877-.255 1.304-.157.862-.36 1.678-.532 2.458-.18.779-.367 1.513-.547 2.188a70.866 70.866 0 01-.951 3.236c-.12.39-.24.69-.307.892l-.098.277s.03-.112.098-.322c.052-.21.134-.517.232-.914.097-.397.217-.877.337-1.424.127-.547.255-1.176.412-1.85.142-.682.292-1.416.45-2.203.15-.787.314-1.604.457-2.465.075-.428.15-.862.232-1.304.067-.442.142-.892.21-1.341.157-.9.262-1.821.39-2.735.127-.914.21-1.836.314-2.743.068-.906.15-1.798.21-2.667.03-.87.082-1.701.105-2.495 0-.794.007-1.544.007-2.24-.037-.69-.06-1.327-.082-1.896-.008-.143-.015-.278-.015-.413-.008-.134-.03-.254-.038-.382a13.082 13.082 0 01-.052-.48l-1.394.113c.045.27.09.562.135.892a91.3 91.3 0 01.157 1.723c.075.63.068 1.319.09 2.046.038.727.015 1.498-.015 2.293a34.552 34.552 0 01-.134 2.442c-.045.832-.173 1.671-.255 2.518-.105.84-.247 1.678-.375 2.503-.075.412-.15.816-.232 1.22-.075.406-.15.795-.24 1.185-.165.779-.337 1.52-.524 2.225-.173.704-.368 1.364-.54 1.978a43.91 43.91 0 01-.951 2.915c-.248.697-.42 1.087-.42 1.087s.127-.405.315-1.117c.105-.352.21-.787.337-1.289.12-.502.255-1.064.404-1.678.143-.615.3-1.281.443-1.993.157-.705.3-1.454.45-2.233.156-.772.269-1.581.419-2.39.12-.817.254-1.649.352-2.48.09-.832.217-1.664.27-2.496.067-.824.157-1.633.18-2.42.037-.787.09-1.543.082-2.27.007-.36.007-.712.015-1.05 0-.171.007-.336.007-.501-.007-.165-.007-.322-.015-.48a81.893 81.893 0 01-.045-1.723 68.97 68.97 0 00-.067-.9c-.277.023-.547.053-.81.083.023.15.038.3.06.457.083.81.113 1.754.068 2.758a28.452 28.452 0 01-.105 1.55 40.276 40.276 0 01-.187 1.597 50 50 0 01-.255 1.58c-.09.518-.202 1.027-.307 1.522a42.87 42.87 0 01-.675 2.667 21.784 21.784 0 01-.614 1.843 4.63 4.63 0 01-.217.502c-.053.113-.105.165-.105.158.007.007.045-.053.082-.173.038-.12.083-.3.143-.524a49.3 49.3 0 00.412-1.888c.157-.787.337-1.701.51-2.683.082-.494.164-.996.254-1.513.083-.517.165-1.042.232-1.566.075-.525.143-1.05.203-1.574.052-.517.112-1.034.15-1.528.082-.99.112-1.919.097-2.713 0-.157-.008-.3-.015-.442-1.708.188-3.184.442-4.136.772.022.75.232 1.61.277 2.248a160.633 160.633 0 01.405 7.515c-.038.495-.083.99-.128 1.499-.052.66-.134 1.333-.21 2-.09.667-.164 1.341-.277 1.993-.097.66-.217 1.297-.337 1.919-.06.307-.135.614-.195.906-.06.3-.12.592-.202.87-.142.561-.27 1.093-.42 1.58-.067.24-.135.48-.202.697-.075.218-.142.427-.202.622-.128.39-.24.735-.352 1.012-.21.554-.323.876-.323.876s.158-.3.42-.831c.135-.263.285-.592.442-.974.082-.195.172-.398.262-.607.083-.218.165-.45.255-.69.083-.24.187-.487.27-.749.082-.262.165-.54.247-.817.09-.277.165-.57.24-.869.075-.3.157-.6.225-.914.135-.622.284-1.274.382-1.933.075-.397.135-.802.187-1.207.008 1.484 0 2.968-.022 4.451a29.85 29.85 0 01-.435 1.791c-.172.585-.33 1.154-.517 1.678-.18.532-.375 1.02-.562 1.476-.195.45-.374.855-.547 1.214-.165.36-.33.667-.464.914-.135.255-.255.45-.33.578-.082.134-.12.21-.12.21s.053-.068.142-.188c.09-.127.233-.3.39-.54.165-.24.352-.531.562-.876.105-.172.21-.36.322-.555.113-.194.217-.412.33-.63a20.436 20.436 0 001.184-2.915 164.11 164.11 0 01-.277 5.756 1.59 1.59 0 001.011-.36c-.105.225-.21.442-.315.652-.135.262-.254.51-.382.742-.24.457-.45.831-.6 1.094-.15.262-.231.42-.231.42s.12-.128.322-.36a6.91 6.91 0 00.344-.427c.135-.165.278-.36.427-.57.158-.21.308-.45.465-.704.03-.045.052-.09.082-.135 0 .607-.022 1.206-.075 1.806.255-.195.51-.397.765-.592l.112 1.176a3.465 3.465 0 001.386-.996 9.282 9.282 0 00.06 1.88 2.983 2.983 0 001.454-.607c.09.367.18.727.277 1.094l.944-.314c.06.202.128.404.188.606.636.135 1.31.09 1.933-.127.232.502 1.019.637 1.4.232 1.47.3 3.005.293 4.467-.03.39.413 1.041.375 1.603.315 1.177-.135 2.345-.27 3.522-.404.202-.023.427-.045.607.044.157.083.27.233.434.293.248.082.502-.068.72-.218l1.101-.764c.922.33 1.768-.614 2.3-1.439.195.45.847.622 1.237.33a8.389 8.389 0 01-.248.382c-.18.278-.344.532-.502.757-.15.225-.284.42-.397.577-.224.322-.352.502-.352.502l.435-.434c.142-.135.3-.308.48-.517.09-.105.187-.21.291-.33.098-.12.195-.247.3-.375l.023-.022c0 .037 0 .082.007.12 3.5-2.608 5.627-6.722 6.661-10.963.255-1.049.45-2.112.6-3.184l-.068.674a49.34 49.34 0 01-.352 2.63c-.075.435-.142.862-.217 1.282-.082.427-.157.839-.232 1.251-.165.817-.33 1.611-.502 2.353-.18.742-.368 1.438-.562 2.075a24.712 24.712 0 01-.6 1.716c-.195.51-.397.937-.562 1.289a18.28 18.28 0 01-.412.81c-.097.186-.15.284-.15.284l.18-.27a11.5 11.5 0 00.48-.772c.194-.344.42-.764.651-1.258.233-.495.48-1.064.712-1.701.465-1.267.885-2.788 1.244-4.436.172-.817.352-1.671.495-2.548.157-.854.284-1.746.382-2.637z" fill="#B39D6E"/><path d="M72.494 61.146c-.037-.825-.105-1.634-.165-2.413a154.19 154.19 0 00-.427-4.264 13.981 13.981 0 00-.27-1.7c-.12-.502-.27-.93-.441-1.26-.023-.044-.045-.074-.068-.119-.037-.015-.082-.023-.12-.03.03.06.06.127.09.195.142.33.262.757.337 1.251.075.495.113 1.064.158 1.694.075 1.25.165 2.712.262 4.27.045.78.082 1.589.12 2.406.03.816.067 1.648.075 2.487.007.42.015.832.015 1.244 0 .412.007.824-.015 1.236-.015.413-.015.817-.03 1.214-.023.397-.038.794-.06 1.184-.068.78-.112 1.529-.202 2.24-.023.18-.038.353-.06.525-.023.172-.053.337-.075.51-.045.33-.09.651-.135.966-.053.307-.113.6-.157.884a9.936 9.936 0 01-.158.795c-.112.494-.195.929-.3 1.28-.187.705-.292 1.11-.292 1.11s.15-.39.397-1.08c.128-.344.24-.771.39-1.266.157-.486.277-1.048.427-1.663.12-.614.27-1.289.367-2 .113-.712.195-1.47.277-2.256.053-.787.12-1.596.135-2.428.023-.412.015-.831.023-1.25.007-.42.007-.84-.008-1.26a91.19 91.19 0 00-.09-2.502z" fill="#B39D6E"/><path d="M37.24 51.21c.99-.322 2.45-.57 4.114-.757.082-.007.165-.022.247-.03.27-.03.547-.06.832-.082.037 0 .075-.008.12-.008.464-.044.929-.082 1.409-.12.03 0 .067-.007.097-.007.66-.045 1.319-.09 1.978-.127.06 0 .112-.008.172-.008.51-.03 1.012-.052 1.499-.075.045 0 .082 0 .127-.007 1.124-.045 2.18-.075 3.11-.098h.15c1.079-.022 1.963-.037 2.54-.037h.809c.525 0 2.57.015 5.11.097.038 0 .075 0 .113.008 1.43.052 3.004.12 4.555.232.03 0 .06.008.09.008.27.022.547.037.817.06.03 0 .06.007.09.007 1.109.09 2.188.202 3.162.33.067.007.127.022.195.03.022 0 .045.007.067.007.067.008.135.023.202.03.772.12 1.462.247 2.038.405.57.15 1.035.315 1.357.502.21-.442.831-1.956.127-3.32-.712-1.37-2.518-2.21-5.372-2.487-4.129-.405-7.298-.577-9.426-.645-2.113-.067-3.215-.037-3.237-.037-.023 0-1.132-.03-3.245.037-2.135.068-5.305.24-9.433.645-2.855.277-4.66 1.116-5.373 2.488-.704 1.363-.09 2.877.128 3.319.224-.142.51-.255.831-.36z" fill="#B39D6E"/></svg><svg fill="none" viewBox="0 0 108 108" id="dryer" xmlns="http://www.w3.org/2000/svg"><path stroke="#B39D6E" stroke-width="2" d="M1 1h106v106H1z"/><path d="M71.8 25.43c-.41 0-.75-.34-.75-.75s.34-.75.75-.75.75.34.75.75-.34.75-.75.75z" fill="#B39D6E"/><path d="M19.43 37.11c0-11.66 9.45-21.11 21.1-21.11l46.1.06c1.31 0 2.37 3.65 2.37 8.16s-1.06 8.16-2.37 8.16l-19.45 1.69c.13-.05.28-.14.43-.3.38-.4.75-1.11 1.04-1.99.29-.88.52-1.94.68-3.09.07-.57.14-1.17.17-1.77a27.96 27.96 0 000-3.67c-.03-.51-.09-1-.15-1.48h16.12c.02.3.05.59.07.9.02.56.03 1.12.03 1.68 0 .57-.01 1.12-.04 1.67-.03.55-.06 1.09-.12 1.61-.11 1.04-.27 2-.47 2.81-.21.8-.48 1.45-.79 1.82-.15.18-.31.29-.43.34-.12.05-.2.04-.19.05 0-.01.07.01.2-.01s.33-.11.52-.28c.39-.34.76-.99 1.06-1.8.3-.82.53-1.8.69-2.86.07-.53.14-1.08.18-1.64.03-.56.05-1.15.06-1.71 0-.58-.02-1.14-.06-1.71-.04-.56-.11-1.11-.18-1.64-.16-1.06-.39-2.04-.69-2.85-.3-.81-.67-1.46-1.06-1.8-.19-.17-.38-.25-.52-.28-.13-.03-.2-.01-.2-.01 0 .01.08 0 .2.05.12.04.27.15.43.33.3.36.56 1 .77 1.77H68.58c-.28-.79-.61-1.43-.97-1.8-.19-.2-.39-.31-.53-.34-.14-.04-.22-.01-.22-.02 0 .01.08 0 .21.06.13.05.29.18.44.39.3.42.57 1.13.77 2.01.2.88.36 1.92.46 3.05.06.56.08 1.15.11 1.74.03.59.04 1.2.04 1.8 0 .61-.01 1.21-.04 1.8-.03.59-.06 1.18-.12 1.74-.1 1.13-.26 2.17-.46 3.05-.21.88-.47 1.59-.77 2.01-.15.21-.31.34-.44.39l-1.52.13s-.21.03-.53.13c.07-.06.14-.11.22-.19.38-.42.73-1.15 1.02-2.05.14-.45.28-.94.39-1.47.11-.53.22-1.09.29-1.67.16-1.17.24-2.42.26-3.67 0-1.25-.06-2.51-.22-3.68-.15-1.17-.38-2.25-.67-3.15-.29-.9-.66-1.62-1.05-2.03-.19-.21-.4-.32-.54-.35-.15-.04-.22-.02-.22-.02s.08 0 .21.06.3.19.45.4c.27.37.5.97.69 1.7H39.1s-7.65.9-9.87 5.01c0 0 3.3-1.32 9.87-1.44 6-.11 24.18-.02 27.3 0 .09 1.06.13 2.17.13 3.3-1.81-.09-10.55-.34-13.81 3.58-.15.18-.27.33-.4.49a14.18 14.18 0 00-11.76-6.25c-7.84 0-14.2 6.36-14.2 14.2 0 7.84 6.36 14.2 14.2 14.2 7.84 0 14.2-6.36 14.2-14.2 0-1.17-.16-2.29-.42-3.38.75-1.72 3.42-5.59 12.13-6.2-.03.46-.06.92-.1 1.37-.11 1.15-.27 2.21-.47 3.11-.2.9-.46 1.63-.75 2.07-.12.17-.24.28-.35.35-.09.03-.19.07-.29.12h-.01.01c-1.1.49-2.7 1.7-2.94 4.63 0 .04-.01.09-.01.13v.02c-.83 7.96-6.09 14.61-13.27 17.43.07.93-.19 1.91-1.5 2.12-2.67.44-2.33 3-2.33 3 1.11 5 2.11 18.77.78 24.11-1.33 5.33-4.67 5-4.67 5s-3.33.33-4.67-5c-1.33-5.33-.33-19.11.78-24.11 0 0 .33-2.56-2.33-3-1.32-.22-1.58-1.21-1.5-2.14-7.87-3.1-13.42-10.72-13.42-19.64zM71.8 23.6c-.6 0-1.08.49-1.08 1.08 0 .6.49 1.08 1.08 1.08.6 0 1.08-.49 1.08-1.08 0-.59-.49-1.08-1.08-1.08zm4.94 7.58c-3.74.24-6.75.82-6.75.82s3.06.17 6.79-.07c3.74-.25 6.74-.82 6.74-.82s-3.05-.18-6.78.07zM52.36 52.3c1.71-1.24 3.33-2.98 4.59-5.08 1.26-2.09 2.05-4.31 2.49-6.37.22-1.03.36-2.02.43-2.95.02-.23.03-.46.03-.69.01-.22.03-.43.04-.64.01-.21.05-.41.09-.6.04-.2.07-.39.14-.56.22-.72.61-1.31 1.05-1.72.45-.41.93-.65 1.34-.79.41-.14.75-.2.97-.23.23-.03.35-.03.35-.03s-.12-.01-.35 0c-.23.01-.58.04-1.01.15-.43.11-.95.32-1.46.72-.51.4-.97 1.01-1.25 1.77-.09.19-.14.39-.19.6-.06.21-.11.42-.13.64-.03.22-.06.45-.08.67-.02.22-.04.44-.07.67-.1.91-.28 1.87-.53 2.86-.5 1.98-1.3 4.11-2.51 6.12-1.21 2.01-2.72 3.71-4.33 4.96-1.6 1.27-3.26 2.12-4.69 2.71-.35.14-.68.26-.99.37-1.02.35-1.89.56-2.53.73-.86.18-1.34.27-1.34.27s.48-.06 1.36-.16c.85-.14 2.1-.35 3.58-.84.02-.01.04-.01.06-.02 1.49-.51 3.24-1.3 4.94-2.56zM45 58.99s-.47-.02-1.22-.02c-.75-.01-1.78 0-2.91.03-1.13.04-2.14.08-2.88.07-.37-.02-.67-.02-.88-.05l-.33-.03s.11.05.3.14c.19.1.49.19.86.3.74.21 1.8.35 2.96.31 1.16-.03 2.19-.23 2.93-.41.73-.17 1.17-.34 1.17-.34zm-8.57 13.97c-.18 2.26-.31 4.75-.17 7.39.07 1.32.21 2.61.48 3.84.14.62.31 1.22.54 1.8.24.58.53 1.14.98 1.61.11.12.23.22.36.33.14.09.27.19.41.25.13.07.27.14.42.19.07.03.14.06.22.08l.23.05c.15.04.31.04.47.05.16-.01.32-.02.47-.06.31-.07.58-.21.82-.37.47-.34.78-.77 1.03-1.19.25-.42.44-.85.59-1.26.3-.82.48-1.58.6-2.26.12-.67.19-1.26.23-1.74.08-.96.01-1.49.01-1.49s0 .53-.16 1.47c-.08.47-.2 1.04-.38 1.69-.18.65-.41 1.38-.76 2.14-.17.38-.38.76-.63 1.13-.25.36-.55.71-.91.94-.37.22-.78.32-1.21.2l-.16-.04-.16-.07c-.11-.04-.21-.1-.32-.17-.21-.12-.38-.26-.54-.45-.64-.75-.98-1.88-1.21-3.04-.23-1.17-.35-2.42-.42-3.7-.13-2.57-.07-5.04.02-7.28.09-2.25.23-4.27.36-5.97.26-3.4.48-5.5.48-5.5s-.47 2.06-.97 5.45c-.27 1.7-.53 3.73-.72 5.98zm-8.96-21.59c.24.23.57.6 1.04.98.91.79 2.3 1.77 4.03 2.47.23.1.46.17.69.25 1.47.52 2.86.78 3.9.84 1.21.09 1.95-.02 1.95-.02s-.74-.08-1.9-.35c-.65-.15-1.45-.37-2.3-.65-.66-.22-1.35-.47-2.06-.76a26.42 26.42 0 01-4.09-2.08c-.52-.29-.9-.58-1.19-.76-.28-.18-.44-.28-.44-.28s.14.12.37.36zm.09-28.93s-1.01.87-2.32 2.59c-.65.86-1.38 1.93-2.04 3.2-.67 1.26-1.29 2.73-1.71 4.34-.44 1.6-.61 3.19-.61 4.63s.2 2.72.43 3.78c.26 1.05.54 1.88.77 2.43l.36.86-.25-.89c-.16-.58-.35-1.42-.51-2.46-.14-1.05-.23-2.31-.17-3.7.07-1.39.28-2.91.7-4.45.81-3.11 2.21-5.72 3.33-7.51 1.14-1.82 2.02-2.82 2.02-2.82z" fill="#B39D6E"/><path d="M53.04 37.11c0 1.61-1.38 2.13-3.35 2.3-.23.91-.59 1.77-1.06 2.55.28.33.53.65.73.97.79 1.23.8 2.25.01 3.03-.39.39-.84.58-1.34.58-.51 0-1.07-.2-1.69-.6-.31-.2-.64-.45-.97-.73-.78.47-1.64.83-2.55 1.06-.17 1.97-.69 3.35-2.3 3.35-1.61 0-2.13-1.38-2.3-3.35-.91-.23-1.77-.59-2.55-1.06-.33.28-.65.53-.97.73-.62.4-1.18.6-1.69.6-.5 0-.95-.19-1.34-.58-1.14-1.14-.53-2.48.75-3.99-.47-.78-.83-1.64-1.06-2.55-1.97-.17-3.35-.69-3.35-2.3 0-1.61 1.38-2.13 3.35-2.3.23-.91.59-1.77 1.06-2.55-1.28-1.51-1.88-2.86-.75-3.99 1.14-1.14 2.48-.53 4 .74.78-.47 1.64-.83 2.55-1.06.17-1.97.69-3.35 2.3-3.35 1.61 0 2.13 1.38 2.3 3.35.91.23 1.77.59 2.55 1.06.33-.28.65-.53.97-.73 1.23-.79 2.25-.8 3.03-.01.78.78.78 1.8-.01 3.03-.2.31-.45.64-.73.97.47.78.83 1.64 1.06 2.55 1.97.15 3.35.67 3.35 2.28zm-4.4 2.35c-.67.02-1.37.02-2.1.02-.1 0-.19-.01-.28-.01.07.06.14.13.21.19.53.53 1.02 1.03 1.47 1.5.29-.53.53-1.1.7-1.7zM44.6 44.5c-.47-.45-.97-.94-1.5-1.47-.07-.07-.13-.14-.19-.21 0 .09.01.19.01.28 0 .73 0 1.44-.02 2.1.59-.16 1.16-.4 1.7-.7zm-.8-2.17c.58.58 1.14 1.14 1.67 1.62.73-.53 1.38-1.18 1.91-1.91-.49-.53-1.05-1.09-1.62-1.67-.4-.4-.82-.74-1.25-1.04-.41.72-1.01 1.33-1.73 1.73a8 8 0 001.02 1.27zm-4.61 3.11c.44.07.89.11 1.34.11.46 0 .91-.04 1.34-.11.03-.68.04-1.46.04-2.33 0-.56-.06-1.11-.15-1.62a4.511 4.511 0 01-2.46 0c-.09.52-.15 1.06-.15 1.62 0 .87.01 1.65.04 2.33zm-1.01-.23c-.02-.67-.02-1.37-.02-2.1 0-.1.01-.19.01-.28-.06.07-.13.14-.19.21-.53.53-1.03 1.02-1.5 1.47.53.29 1.1.53 1.7.7zm-5.04-4.04c.45-.49.95-.99 1.47-1.5.07-.07.14-.13.21-.19-.09 0-.19.01-.28.01-.73 0-1.44 0-2.1-.02.16.59.4 1.16.7 1.7zm-1.05-4.06c0 .46.04.91.11 1.34.68.03 1.46.04 2.33.04.56 0 1.11-.06 1.62-.15a4.511 4.511 0 010-2.46c-.52-.09-1.06-.15-1.62-.15-.87 0-1.65.01-2.33.04-.07.43-.11.88-.11 1.34zm.34-2.36c.67-.02 1.37-.02 2.1-.02.1 0 .19.01.28.01-.07-.06-.14-.13-.21-.19-.52-.52-1.02-1.02-1.47-1.5-.29.53-.53 1.1-.7 1.7zm4.04-5.04c.49.45.99.95 1.5 1.47.07.07.13.14.19.21 0-.09-.01-.19-.01-.28 0-.73 0-1.44.02-2.1-.59.17-1.16.4-1.7.7zm.79 2.18a57.87 57.87 0 00-1.67-1.62c-.73.53-1.37 1.17-1.9 1.9.49.53 1.05 1.09 1.62 1.67.4.4.82.74 1.25 1.04.41-.72 1.01-1.33 1.73-1.73-.29-.44-.63-.87-1.03-1.26zm-.69 7.45c-.43.3-.86.64-1.25 1.04-.58.58-1.14 1.14-1.62 1.67.53.73 1.17 1.38 1.91 1.91.53-.49 1.09-1.05 1.67-1.62.4-.4.74-.82 1.04-1.25a4.739 4.739 0 01-1.75-1.75zm5.31-10.57a8.55 8.55 0 00-1.34-.11c-.46 0-.91.04-1.34.11-.03.68-.04 1.46-.04 2.33 0 .56.06 1.11.15 1.62a4.511 4.511 0 012.46 0c.09-.51.15-1.06.15-1.62-.01-.86-.01-1.65-.04-2.33zm-1.35 6.89a1.44 1.44 0 101.44 1.44c.01-.79-.64-1.44-1.44-1.44zM42.89 29c.02.67.02 1.37.02 2.1 0 .1-.01.19-.01.28.06-.07.13-.14.19-.21.53-.53 1.03-1.02 1.5-1.47a8.8 8.8 0 00-1.7-.7zm2.58 1.26c-.53.49-1.09 1.05-1.67 1.62-.4.4-.74.82-1.04 1.25a4.52 4.52 0 011.73 1.74c.43-.3.86-.64 1.25-1.04.58-.58 1.14-1.14 1.62-1.67a8.31 8.31 0 00-1.89-1.9zm2.46 2.78c-.45.47-.94.97-1.47 1.5-.07.07-.14.13-.21.19.09 0 .19-.01.28-.01.73 0 1.44 0 2.1.02-.16-.59-.4-1.16-.7-1.7zm.94 2.72c-.68-.03-1.46-.04-2.33-.04-.56 0-1.11.06-1.62.15a4.511 4.511 0 010 2.46c.52.09 1.06.15 1.62.15.87 0 1.65-.01 2.33-.04.07-.44.11-.89.11-1.34 0-.45-.04-.9-.11-1.34z" fill="#B39D6E"/></svg><svg fill="none" viewBox="0 0 108 108" id="hairbrush" xmlns="http://www.w3.org/2000/svg"><path stroke="#B39D6E" stroke-width="2" d="M1 1h106v106H1z"/><path d="M58.874 54.584c.21-.497.442-1.023.718-1.58.035.013.06.019.095.025.03.006.066.018.096.024.09.024.173.042.239.054.15.03.305.006.43-.078 1.68-1.04 3.128-2.607 4.551-3.953a194.084 194.084 0 003.193-3.085c.526-.52.975-1.196 1.65-1.537.437-.221.85-.012 1.263.12.269.083.538.125.819 0 1.225-.563-.048-1.597.263-2.482.173-.496.73-.825 1.076-1.184.37-.383.748-.766 1.118-1.154 3.606-3.767 5.418-7.475 2.895-10.913-2.524-3.439-9.227-1.166-10.662-.305-1.435.867-4.049 2.697-3.235 5.441.813 2.745.849 7.2.849 7.2-.676 4.096-5.077 8.689-6.422 10.016a.633.633 0 00-.162.329c-.006.048-.018.096-.012.144 0 .035.012.071.024.107-.688.634-1.95 1.806-3.576 3.325.777.06 2.452.054 4.79-.514zM65.17 32.75c.8-2.732 3.522-3.862 4.616-4.066 1.094-.203 4.861-1.375 6.733 1.507 1.872 2.882-1.124 7.074-3.994 9.18-2.87 2.104-5.867-1-5.867-1s-2.29-2.888-1.488-5.62z" fill="#B39D6E"/><path d="M95.314 39.24c-1.835-.832-4.873-.921-7.223.25 0 0-.568.216-1.417.156-3.008-2.362-6.722-1.016-10.692 1.92-4.036 2.984-13.425 10.29-14.931 12.15a.588.588 0 00-.114.258c-.012.054-.024.107-.018.161 0 .012.006.03.006.048l.018.191c-.724.245-1.393.437-2.021.592-.036.012-.078.018-.114.03a.797.797 0 00-.114.03c-2.672.622-4.43.502-4.98.437-.036-.006-.072-.006-.096-.012a646.251 646.251 0 00-6.124 5.764l-.005-.006-.072-.072-.048-.047-.138-.138-8.563-8.563a.545.545 0 00-.651-.09l-7.254-7.247c.048.221 0 .46-.173.628l-.437.436-1.584 1.585-.437.436a.668.668 0 01-.628.174l7.254 7.253a.544.544 0 00.09.652l8.485 8.485.137.138.042.042.072.072.012.011c-4.168 4.055-8.33 8.223-11.218 11.392-2.093 2.296-3.523 4.078-3.81 4.91 1.926-.443 9.885-6.489 18.179-13.138l.132.131.047.048.072.072.024.024.048.048 13.072 13.071a.563.563 0 00.789 0l3.044-3.043a.563.563 0 000-.79L51.303 65.024l-.053-.054-.018-.017-.072-.072-.054-.054-.125-.126a904.197 904.197 0 006.601-5.43l.108-.089a828.019 828.019 0 003.743-3.127c.03.053.06.113.096.167.036.054.066.108.108.161.017.024.03.048.047.072.198.27.586.311.85.108 1.488-1.172 6.601-4.951 10.751-5.107 0 0 4.413.592 7.032 1.746 2.625 1.154 4.766-1.208 5.807-2.523.777-.98 2.697-4.772 2.338-7.858.358-.819 1.088-1.877 2.535-2.152 2.458-.473 4.323.496 4.652.293.323-.192 1.501-.891-.335-1.723zM54.287 58.602c.46.52.473 1.286.066 1.818l-1.86-2.111a1.423 1.423 0 011.794.293zM37.49 52.509s-.418.675-1.094 1.351c-.676.676-1.351 1.094-1.351 1.094s.418-.675 1.094-1.351a9.189 9.189 0 011.351-1.094zm-3.414.7a.671.671 0 01-.95 0l-4.05-4.049a.671.671 0 010-.95l.467-.467.652-.652.466-.467a.671.671 0 01.951 0l4.049 4.049a.671.671 0 010 .95l-1.585 1.585zm10.171 15.888a1993.054 1993.054 0 00-6.936 5.519 479.94 479.94 0 00-2.72 2.182 56.041 56.041 0 01-3.619 2.65c-.49.328-.974.663-1.465.992l.628-.795s8.378-8.976 14.088-14.04l1.286 1.285a364.697 364.697 0 00-4.3 3.498l-1.566 1.298c-.514.43-1.023.855-1.513 1.267-.98.826-1.89 1.597-2.66 2.267-.778.663-1.418 1.232-1.867 1.626-.448.395-.7.622-.7.622s.276-.203.748-.568c.473-.365 1.154-.879 1.956-1.513.807-.628 1.74-1.37 2.738-2.17.497-.401 1.011-.82 1.531-1.238l1.573-1.286c.526-.436 1.052-.873 1.567-1.298.514-.43 1.022-.855 1.507-1.267.412-.347.807-.688 1.19-1.01l.466.466c-.646.49-1.286 1.004-1.932 1.513zM60.584 80.47c-.586-.556-1.345-1.28-2.242-2.14-.88-.85-1.902-1.83-3.026-2.919a820.261 820.261 0 01-7.666-7.523l-.018-.017-.072-.072a.299.299 0 00-.048-.042l-.131-.132c-.191-.185-.377-.376-.562-.562l-.49-.49-.192-.191c-.443-.443-.879-.88-1.304-1.31-.203-.203-.406-.407-.603-.61l-.054-.054-.012-.012a48.57 48.57 0 00-.072-.071c-.012-.018-.03-.03-.048-.048l-.137-.138a779.746 779.746 0 01-3.439-3.492c-1.028-1.052-1.961-2.015-2.786-2.864-.449-.467-.867-.897-1.25-1.292-.329-.34-.64-.664-.909-.945 1.644-1.572 2.464-2.362 2.464-2.362l-2.255 2.362c.251.24.538.515.843.802.395.376.826.789 1.298 1.237.85.82 1.818 1.758 2.876 2.775a721.851 721.851 0 013.51 3.426c.048.042.09.09.138.138.018.012.03.03.048.048l.072.072.011.011a.528.528 0 00.06.054c.21.21.419.413.634.628.437.43.88.873 1.334 1.316l.173.173c.168.168.335.335.508.502.186.186.371.371.562.557.042.041.084.083.132.125l.006.006.042.042.072.072.017.018.054.053a801.02 801.02 0 017.463 7.541 755.881 755.881 0 002.93 3.014c.831.867 1.53 1.596 2.075 2.158 1.082-1.034 1.627-1.554 1.633-1.554-.012 0-.556.574-1.639 1.71zm1.633-1.716L50.12 65.987l12.097 12.767zM50.425 64.145l-1.699-1.698c.807-.185 2.075-.293 3.606.24-.203-.067-1.256.866-1.907 1.458zm1.71-3.647a1.435 1.435 0 01-.066-1.818l1.86 2.11a1.438 1.438 0 01-1.794-.292zM77.076 51.3c-.042-.036-.101-.084-.161-.144-.066-.054-.15-.107-.233-.173a7.752 7.752 0 01-.138-.102c-.054-.03-.108-.066-.161-.096a2.709 2.709 0 00-.371-.203c-.066-.036-.138-.066-.21-.102-.077-.03-.149-.06-.233-.09-.155-.065-.329-.113-.502-.167a6.285 6.285 0 00-1.178-.197 7.725 7.725 0 00-1.333.03c-.46.054-.927.155-1.394.287a11.15 11.15 0 00-1.387.52c-.455.198-.903.419-1.34.652-.43.233-.86.472-1.261.712a50.18 50.18 0 00-3.696 2.398c-.358.257-.562.406-.562.406l.138-.12c.09-.077.215-.197.383-.34.34-.287.819-.7 1.423-1.155.604-.46 1.333-.968 2.14-1.47.802-.503 1.687-1.011 2.626-1.424.472-.203.95-.382 1.435-.52a7.498 7.498 0 011.465-.269c.484-.042.95-.03 1.393.018.443.042.85.155 1.214.269.18.072.359.126.514.21.078.035.156.077.233.113.072.042.144.084.21.125.137.078.257.162.364.24.054.042.108.077.156.113l.131.114c.174.144.287.275.365.359.078.09.126.131.126.131s-.066-.048-.156-.125zm9.305-3.773c-.335 1.058-1.8 3.611-4.617 4.066-2.816.448-5.387-2.183-5.387-2.183s-2.71-3.36-.251-5.944c2.457-2.583 6.99-5.029 9.609-2.804 2.62 2.224.98 5.806.646 6.865zM11.592 35.903l-.592.592.718.717c.047-.06.107-.12.161-.173.73-.73 1.609-1.035 1.961-.682.353.353.048 1.232-.681 1.968a2.15 2.15 0 01-.174.161l.479.478c.047-.06.107-.12.161-.173.73-.73 1.609-1.04 1.961-.682.353.353.048 1.232-.681 1.962-.06.06-.114.113-.174.161l.479.479c.048-.06.107-.12.161-.174.73-.73 1.609-1.034 1.962-.682.352.353.047 1.232-.682 1.962a2.13 2.13 0 01-.174.161l.479.479c.048-.06.108-.12.161-.174.73-.73 1.609-1.034 1.962-.681.352.352.047 1.231-.682 1.967a2.13 2.13 0 01-.173.161l.478.479c.048-.06.108-.12.161-.174.73-.73 1.609-1.04 1.962-.681.352.352.048 1.231-.682 1.96-.06.06-.114.115-.173.162l.478.479c.048-.06.108-.12.162-.174.729-.73 1.608-1.034 1.96-.681.354.352.049 1.231-.68 1.961-.06.06-.114.114-.174.161l.753.754.592-.478 3.576.143-14.381-14.393c-1.1 1.872-.664 2.655-.664 2.655zM29.938 40.615l.478-.592-.753-.754a2.19 2.19 0 01-.162.174c-.73.73-1.608 1.04-1.961.681-.353-.352-.048-1.231.682-1.96.06-.06.113-.114.173-.162l-.478-.479c-.048.06-.108.12-.162.174-.73.73-1.608 1.034-1.961.681-.353-.352-.048-1.231.682-1.96.06-.06.113-.114.173-.162l-.478-.479c-.048.06-.108.12-.162.174-.73.73-1.608 1.034-1.967.681-.353-.352-.048-1.231.681-1.961.06-.06.114-.114.174-.161l-.478-.479c-.048.06-.108.12-.162.174-.73.73-1.609 1.04-1.961.681-.353-.353-.048-1.232.681-1.961.06-.06.114-.114.174-.161l-.479-.479c-.047.06-.107.12-.161.174-.73.729-1.608 1.034-1.961.681s-.048-1.232.681-1.961c.06-.06.114-.114.174-.162l-.479-.478c-.047.06-.107.12-.161.173-.73.73-1.609 1.035-1.967.682-.353-.353-.048-1.232.681-1.961.06-.06.114-.114.174-.162l-.718-.717-.592.592s-.783-.437-2.66.663l14.392 14.382-.137-3.576z" fill="#B39D6E"/><path d="M27.959 47.976l.28-.281 1.902-1.902.281-.28a.451.451 0 000-.635l-.335-.334-.09-.09-14.512-14.519-.275-.27a.451.451 0 00-.634 0l-2.464 2.465a.451.451 0 000 .633l.27.27 3.659 3.66 4.006-1.095-.239-.24c-.968-.968-1.89-1.9-2.733-2.762-.412-.424-.819-.837-1.195-1.226l-.987-1.022-1.902 1.812c-.107.101-.209.203-.299.287.018.017.03.035.048.053.49.52.748.79.748.79s-.27-.257-.784-.742c-.042-.03-.066-.06-.113-.102.25-.269.568-.597.944-.998.048-.042.096-.096.138-.138a.713.713 0 00.066-.071l1.154-1.202c.054.053.12.113.173.167.664.64 1.411 1.37 2.237 2.17.86.844 1.794 1.765 2.762 2.733 4.497 4.497 8.013 8.27 8.013 8.27s-1.555-1.453-3.857-3.677l-3.934 1.238 6.607 6.607.09.09.335.335c.18.18.466.18.64.006zm-.987-.963c-.21-.197-.425-.406-.646-.628-1.28-1.28-2.189-2.445-2.189-2.445a29.716 29.716 0 003.074 2.834l.227.245c.018.018.036.042.054.06l.126.143c.012.012.018.03.03.042l.041-.03c.042-.035.084-.077.126-.113.084-.072.162-.138.233-.204.15-.125.281-.233.383-.322l.34-.275-.274.34-.323.383c-.066.072-.132.15-.203.233a6.87 6.87 0 01-.323.347c-.132-.12-.275-.257-.425-.395a2.805 2.805 0 01-.251-.215z" fill="#B39D6E"/><path d="M16.436 37.087l1.184 1.184 3.988-1.124c-.413-.407-.837-.832-1.274-1.262l-3.898 1.202zM23.647 39.144l-.723-.706-4.06 1.077.902.902 3.881-1.273zM31.439 46.798a.433.433 0 00-.61 0l-.622.622-.335.335-.622.622a.433.433 0 000 .61l4.048 4.048a.433.433 0 00.61 0l1.58-1.579a.433.433 0 000-.61l-4.05-4.048zm1.638 3.833a1.003 1.003 0 01-1.423 0 1.003 1.003 0 010-1.423 1.003 1.003 0 011.423 0 1.003 1.003 0 010 1.423z" fill="#B39D6E"/><path d="M31.78 49.333a.823.823 0 000 1.166.823.823 0 001.166 0 .823.823 0 000-1.166.823.823 0 00-1.166 0zm.873.999l-.287-.287-.281.281-.126-.126.281-.28-.281-.282.126-.125.28.28.288-.286.125.125-.287.287.287.287-.125.126z" fill="#B39D6E"/></svg><svg fill="none" viewBox="0 0 65 66" id="logo" xmlns="http://www.w3.org/2000/svg"><path d="M20.176 20.922l2.013 6.274 2.006-6.274h2.861v9.017h-2.18v-2.105l.211-4.31-2.18 6.415h-1.436l-2.186-6.422.21 4.317v2.105h-2.174v-9.017h2.855zm11.414 9.14c-1.028 0-1.86-.305-2.496-.916-.636-.615-.954-1.414-.954-2.396v-.174c0-.685.126-1.29.378-1.814a2.787 2.787 0 011.115-1.214c.487-.289 1.065-.433 1.734-.433.941 0 1.684.293 2.23.879.544.582.817 1.395.817 2.44v.811h-4.15c.075.376.238.671.49.886.252.214.578.322.978.322.66 0 1.177-.232 1.548-.694l.954 1.127c-.26.36-.63.646-1.108.861-.475.21-.987.316-1.536.316zm-.236-5.337c-.61 0-.974.404-1.09 1.213h2.106v-.16c.008-.335-.076-.593-.254-.775-.177-.185-.431-.278-.762-.278zm5.822-1.487l.068.787c.462-.607 1.1-.91 1.913-.91.698 0 1.218.208 1.56.625.348.417.527 1.045.54 1.883v4.316h-2.093v-4.23c0-.338-.069-.586-.205-.743-.136-.16-.384-.241-.743-.241-.409 0-.712.16-.91.483v4.731h-2.087v-6.7h1.957zm7.703 5.09h3.053v1.611h-5.69v-1.164l2.972-3.926H42.37v-1.61h5.493v1.127l-2.984 3.963zM11.853 40.92c-1.02-.293-1.763-.652-2.23-1.078a2.078 2.078 0 01-.693-1.585c0-.71.283-1.296.848-1.759.57-.466 1.31-.7 2.217-.7.62 0 1.171.12 1.654.36.487.239.863.57 1.127.99.268.422.403.882.403 1.381h-1.196c0-.545-.173-.972-.52-1.282-.347-.313-.836-.47-1.467-.47-.587 0-1.045.13-1.375.39-.327.256-.49.613-.49 1.071 0 .368.155.68.465.935.314.252.844.483 1.591.694.752.21 1.338.444 1.76.7.425.252.738.547.94.886.207.338.31.736.31 1.195 0 .73-.285 1.317-.854 1.758-.57.438-1.332.657-2.286.657-.619 0-1.197-.118-1.734-.353-.536-.24-.951-.566-1.244-.979a2.392 2.392 0 01-.434-1.405H9.84c0 .545.2.976.601 1.294.405.314.943.47 1.616.47.628 0 1.109-.127 1.443-.383.335-.256.502-.605.502-1.047 0-.442-.155-.782-.465-1.022-.31-.243-.87-.483-1.684-.718zm9.853 1.666h-3.778l-.848 2.353h-1.226l3.443-9.017h1.04l3.45 9.017h-1.22l-.861-2.353zm-3.419-.979h3.066l-1.536-4.217-1.53 4.217zm7.909 2.36h4.273v.972H25v-9.017h1.196v8.045zm12.156-3.245c0 .883-.148 1.655-.446 2.316-.297.656-.718 1.158-1.263 1.505-.545.346-1.18.52-1.907.52-.71 0-1.34-.174-1.89-.52-.548-.351-.976-.849-1.281-1.493-.302-.648-.456-1.397-.465-2.248v-.65c0-.867.151-1.633.452-2.298.302-.664.727-1.172 1.276-1.523.553-.355 1.185-.533 1.895-.533.723 0 1.358.176 1.908.527.553.347.978.852 1.275 1.517.298.66.446 1.43.446 2.31v.57zm-1.183-.582c0-1.07-.214-1.89-.644-2.459-.429-.574-1.03-.86-1.802-.86-.751 0-1.344.286-1.777.86-.43.57-.65 1.362-.663 2.378v.663c0 1.036.217 1.851.65 2.446.438.59 1.039.886 1.803.886.768 0 1.362-.28 1.783-.837.421-.561.638-1.364.65-2.409v-.668zm9.903.582c0 .883-.149 1.655-.446 2.316-.297.656-.718 1.158-1.264 1.505-.544.346-1.18.52-1.907.52-.71 0-1.34-.174-1.889-.52-.549-.351-.976-.849-1.282-1.493-.301-.648-.456-1.397-.464-2.248v-.65c0-.867.15-1.633.452-2.298.301-.664.727-1.172 1.276-1.523.553-.355 1.185-.533 1.895-.533.722 0 1.358.176 1.907.527.553.347.979.852 1.276 1.517.297.66.446 1.43.446 2.31v.57zm-1.183-.582c0-1.07-.215-1.89-.644-2.459-.43-.574-1.03-.86-1.802-.86-.752 0-1.344.286-1.778.86-.429.57-.65 1.362-.662 2.378v.663c0 1.036.216 1.851.65 2.446.438.59 1.038.886 1.802.886.768 0 1.363-.28 1.784-.837.42-.561.638-1.364.65-2.409v-.668zm9.896 4.799H54.59l-4.54-6.948v6.948h-1.195v-9.017h1.196l4.551 6.98v-6.98h1.183v9.017z" fill="#fff"/><circle cx="32.5" cy="33" r="32.104" stroke="#fff" stroke-width=".793"/></svg><svg fill="none" viewBox="0 0 108 108" id="rectangle" xmlns="http://www.w3.org/2000/svg"><path stroke="#B39D6E" stroke-width="2" d="M1 1h106v106H1z"/></svg></svg>